<?xml version="1.0" encoding="utf-8"?>
<!-- Generator: Adobe Illustrator 25.2.1, SVG Export Plug-In . SVG Version: 6.00 Build 0)  -->
<svg version="1.1" id="Layer_1" xmlns="http://www.w3.org/2000/svg" xmlns:xlink="http://www.w3.org/1999/xlink" x="0px" y="0px"
	 viewBox="0 0 63 63" style="enable-background:new 0 0 63 63;" xml:space="preserve">
<style type="text/css">
	.st0{fill:#7F7C7C;}
	.st1{fill:#2A76BC;}
</style>
<g id="Artistic_swimming">
	<path d="M32.7,24.2c1-1,1-2.6,0-3.5l-7.1-7.1c-0.9-0.9-2.3-1-3.3-0.2V9.5c0-1.4-1.1-2.5-2.5-2.5s-2.5,1.1-2.5,2.5v20.9
		c0.3,0.2,0.7,0.3,1,0.4V9.5C18.4,8.7,19,8,19.9,8s1.5,0.7,1.5,1.5v18c0,0.3,0.2,0.5,0.5,0.5H23c0.1,0,0.3-0.1,0.4-0.1l5.1-5.1
		c0.1-0.1,0.1-0.2,0.1-0.4s-0.1-0.3-0.1-0.4l-5.7-5.7c-0.3-0.3-0.4-0.7-0.4-1.1s0.2-0.8,0.4-1.1c0.6-0.6,1.6-0.6,2.1,0l7.1,7.1
		c0.6,0.6,0.6,1.5,0,2.1L25.5,30c-0.1,0.1-0.1,0.2-0.1,0.4v0.1c0.3,0.2,0.7,0.3,1,0.4v-0.3L32.7,24.2z M27.4,22.5L22.8,27h-0.5v-9.6
		L27.4,22.5z"/>
	<path class="st0" d="M21.9,47c-1.9,0-3.5,1.6-3.5,3.5s1.6,3.5,3.5,3.5s3.5-1.6,3.5-3.5S23.8,47,21.9,47z M21.9,53
		c-1.4,0-2.5-1.1-2.5-2.5s1.1-2.5,2.5-2.5s2.5,1.1,2.5,2.5S23.2,53,21.9,53z"/>
	<path class="st0" d="M14,36.1c-1-1-2.6-1-3.5,0l-5.6,5.6C4,42.6,3.8,44,4.5,45c0.4,0.6,1.1,1,1.8,1c0.7,0.1,1.5-0.2,2-0.7l3.9-3.9
		l3.9,3.9c0.5,0.5,1.1,0.7,1.8,0.7h8c0.1,0,0.2,0,0.2,0c0,0,0.1,0,0.1,0c0.5-0.1,1-0.3,1.4-0.7l3.9-3.9l3.9,3.9
		c0.5,0.5,1.1,0.7,1.8,0.7h8c0.7,0,1.3-0.3,1.8-0.7l3.9-3.9l3.8,3.8c0.9,0.9,2.3,1,3.3,0.3c0.6-0.4,1-1.1,1-1.8
		c0.1-0.7-0.2-1.5-0.7-2l-5.7-5.7c-0.9-0.9-2.6-0.9-3.5,0l-3.4,3.4v-7.9c0,0,0,0,0,0c-0.2,0.1-0.3,0.1-0.5,0.2
		c-0.5,0.2-1.1,0.3-1.6,0.3h1.1v8.7c0,0.2,0.1,0.4,0.3,0.5c0.2,0.1,0.4,0,0.5-0.1l4.2-4.2c0.6-0.6,1.6-0.6,2.1,0l5.7,5.7
		c0.3,0.3,0.5,0.7,0.4,1.2c0,0.4-0.3,0.8-0.6,1.1c-0.6,0.4-1.4,0.3-2-0.2l-4.2-4.2c-0.2-0.2-0.5-0.2-0.7,0l-4.2,4.2
		c-0.3,0.3-0.7,0.4-1.1,0.4h-6h-2c-0.4,0-0.8-0.2-1.1-0.4l-4.2-4.2c-0.1-0.1-0.2-0.1-0.3-0.1c0,0,0,0,0,0c-0.1,0-0.3,0.1-0.4,0.1
		l-4.2,4.2C26.7,44.8,26.4,45,26,45c0,0,0,0,0,0c-0.1,0-0.2,0-0.3,0c-0.4,0-0.8-0.3-1.1-0.6c-0.4-0.6-0.3-1.4,0.2-2l1.3-1.3l4.3-4.3
		c0.4-0.4,1.1-0.5,1.6-0.3c0.2,0.1,0.3,0.2,0.5,0.3l4.2,4.2c0,0,0.1,0,0.1,0c0.1,0.1,0.3,0.1,0.5,0.1c0.2-0.1,0.3-0.3,0.3-0.5v-0.2
		V32h5.9c-0.8,0-1.5-0.2-2.2-0.5c-0.3-0.1-0.6-0.3-0.8-0.5h-1.9c-0.3,0.2-0.6,0.4-0.9,0.5c-0.2,0.1-0.4,0.2-0.6,0.2
		c-0.1,0-0.2,0.1-0.4,0.1c0,0-0.1,0-0.1,0v7.6l-3.4-3.4c-0.2-0.2-0.5-0.4-0.8-0.5c-0.9-0.4-2-0.2-2.7,0.5l-3.4,3.4v-7.6
		c0,0-0.1,0-0.1,0c-0.6-0.2-1.2-0.4-1.8-0.8h-1.9c-1.5,1.1-3.5,1.3-5.2,0.5c0,0,0,0,0,0v7.9L14,36.1z M17.5,41.1
		c0.1,0.1,0.4,0.2,0.5,0.1c0.2-0.1,0.3-0.3,0.3-0.5V32h7v8.4l-1.2,1.2c-0.9,0.9-1,2.3-0.3,3.3c0,0,0,0,0,0.1h-6
		c-0.4,0-0.8-0.2-1.1-0.4l-4.2-4.2c-0.1-0.1-0.2-0.1-0.4-0.1s-0.3,0-0.4,0.1l-4.2,4.2c-0.3,0.3-0.7,0.5-1.2,0.4
		c-0.4,0-0.8-0.3-1.1-0.6c-0.4-0.6-0.3-1.4,0.2-2l5.6-5.6c0.6-0.6,1.5-0.6,2.1,0L17.5,41.1z"/>
	<path d="M52,20.7l-7.1-7.1c-0.9-0.9-2.3-1-3.3-0.2V9.5c0-1.4-1.1-2.5-2.5-2.5s-2.5,1.1-2.5,2.5v21.3c0.3-0.1,0.7-0.2,1-0.4V9.5
		c0-0.8,0.7-1.5,1.5-1.5s1.5,0.7,1.5,1.5v5.8c0,0,0,0,0,0s0,0,0,0v12.1c0,0.3,0.2,0.5,0.5,0.5h1.2c0.1,0,0.3-0.1,0.4-0.1l5.1-5.1
		c0.1-0.1,0.1-0.2,0.1-0.4s-0.1-0.3-0.1-0.4l-5.7-5.7c-0.3-0.3-0.4-0.6-0.4-1v0c0-0.4,0.2-0.8,0.4-1c0.6-0.6,1.6-0.6,2.1,0l7.1,7.1
		c0.6,0.6,0.6,1.5,0,2.1L44.8,30c-0.1,0.1-0.1,0.2-0.1,0.4v0.5c0.5-0.1,1-0.4,1.4-0.7l5.9-5.9C53,23.3,53,21.7,52,20.7z M46.7,22.5
		L42.1,27h-0.5v-9.6L46.7,22.5z"/>
	<path class="st0" d="M41.1,47c-1.9,0-3.5,1.6-3.5,3.5s1.6,3.5,3.5,3.5s3.5-1.6,3.5-3.5S43.1,47,41.1,47z M41.1,53
		c-1.4,0-2.5-1.1-2.5-2.5s1.1-2.5,2.5-2.5s2.5,1.1,2.5,2.5S42.5,53,41.1,53z"/>
	<path class="st1" d="M62.3,29.9c-1.5,1.4-4.2,1.4-5.7,0l-0.8-0.8c-0.2-0.2-0.5-0.2-0.7,0l-0.8,0.8c-1.6,1.5-4.1,1.5-5.7,0l-0.8-0.8
		c-0.2-0.2-0.5-0.2-0.7,0l-0.8,0.8c-0.1,0.1-0.2,0.1-0.3,0.2c-0.4,0.3-0.9,0.6-1.4,0.7c-1.4,0.4-2.9,0.1-4-0.9l-0.8-0.8
		c-0.2-0.2-0.5-0.2-0.7,0l-0.8,0.8c-0.2,0.2-0.5,0.4-0.7,0.5c-0.3,0.2-0.7,0.3-1,0.4c-1.4,0.4-2.9,0.1-4-0.9l-0.8-0.8
		c-0.2-0.2-0.5-0.2-0.7,0l-0.8,0.8c-1.1,1-2.6,1.3-4,0.9c-0.3-0.1-0.7-0.2-1-0.4c-0.2-0.1-0.5-0.3-0.7-0.5l-0.8-0.8
		c-0.2-0.2-0.5-0.2-0.7,0l-0.8,0.8c-0.8,0.7-1.8,1.1-2.8,1.1h0c-0.4,0-0.8-0.1-1.1-0.2c-0.3-0.1-0.7-0.2-1-0.4
		c-0.2-0.1-0.5-0.3-0.7-0.5l-0.8-0.8c-0.2-0.2-0.5-0.2-0.7,0l-0.8,0.8c-1.6,1.5-4.1,1.5-5.7,0l-0.8-0.8c-0.2-0.2-0.5-0.2-0.7,0
		l-0.8,0.8c-1.6,1.5-4.1,1.5-5.7,0L0,29.3v1.4c1.9,1.8,5.1,1.8,7,0l0.5-0.4L8,30.7c1.9,1.8,5.1,1.8,7,0l0.5-0.4l0.5,0.4
		c0.4,0.4,0.9,0.7,1.4,0.9c0,0,0,0,0,0c1.7,0.7,3.7,0.6,5.2-0.5c0.2-0.1,0.3-0.2,0.5-0.4l0.5-0.4l0.5,0.4c0.2,0.1,0.3,0.2,0.5,0.4
		c0.5,0.4,1.1,0.7,1.8,0.8c0,0,0.1,0,0.1,0c1.6,0.4,3.4,0,4.7-1.2l0.5-0.4l0.5,0.4c1.3,1.2,3,1.6,4.7,1.2c0,0,0.1,0,0.1,0
		c0.1,0,0.3-0.1,0.4-0.1c0.2-0.1,0.4-0.1,0.6-0.2c0.3-0.1,0.6-0.3,0.9-0.5c0.2-0.1,0.3-0.2,0.5-0.4l0.5-0.4l0.5,0.4
		c0.1,0.1,0.3,0.2,0.5,0.4c0.3,0.2,0.5,0.4,0.8,0.5c0.7,0.3,1.4,0.5,2.2,0.5c0.6,0,1.1-0.1,1.6-0.3c0.2-0.1,0.3-0.1,0.5-0.2
		c0,0,0,0,0,0c0.5-0.2,1-0.5,1.4-0.9l0.5-0.4l0.5,0.4c1.9,1.8,5.1,1.8,7,0l0.5-0.4l0.5,0.4c0.9,0.9,2.2,1.4,3.5,1.4
		c1.3,0,2.6-0.5,3.5-1.4v-1.4L62.3,29.9z"/>
</g>
</svg>
