<?xml version="1.0" encoding="utf-8"?>
<!-- Generator: Adobe Illustrator 25.2.1, SVG Export Plug-In . SVG Version: 6.00 Build 0)  -->
<svg version="1.1" id="Layer_1" xmlns="http://www.w3.org/2000/svg" xmlns:xlink="http://www.w3.org/1999/xlink" x="0px" y="0px"
	 viewBox="0 0 63 63" style="enable-background:new 0 0 63 63;" xml:space="preserve">
<style type="text/css">
	.st0{fill:#FCB019;}
	.st1{fill:#EE2B2F;}
</style>
<g id="Softball_x2F_Baseball">
	<path class="st0" d="M49.2,28c-1.1,0-2,0.9-2,2s0.9,2,2,2s2-0.9,2-2S50.3,28,49.2,28z M49.2,31c-0.6,0-1-0.4-1-1s0.4-1,1-1
		s1,0.4,1,1S49.8,31,49.2,31z"/>
	<path class="st1" d="M29.6,12.2l2.1-2.1c0.2-0.2,0.5-0.2,0.7,0l0.7,0.7c0.2,0.2,0.2,0.5,0,0.7L31,13.6c-0.4,0.4-0.9,0.9-1.3,1.3
		c0.4,0,0.8,0.1,1.2,0.2c0.3-0.3,0.6-0.5,0.8-0.8l2.1-2.1c0.6-0.6,0.6-1.5,0-2.1l-0.7-0.7c-0.6-0.6-1.5-0.6-2.1,0l-2.1,2.1
		c-3.7,3.7-7.3,7.7-10.7,11.8c0.3,0.1,0.6,0.2,0.9,0.5C22.4,19.7,25.9,15.8,29.6,12.2z"/>
	<path class="st1" d="M26,18.3c-2.1,2-4.3,3.9-6.6,5.7l0.7,0.7c2.1-1.7,4.1-3.5,6.1-5.3C26.1,19.1,26,18.7,26,18.3
		C26,18.3,26,18.3,26,18.3z"/>
	<path d="M41.2,44.5v-7.9c0.5-0.5,0.7-1.1,0.7-1.7c0-0.7-0.3-1.3-0.7-1.8l-0.9-0.9l-0.5-0.5c0,0,0,0,0,0L32,23.9
		c-1.3-1.3-3.6-1.3-4.9,0l-3.9,3.9l-3-3L19.4,24l-0.2-0.2c-0.1-0.1-0.1-0.1-0.2-0.2c-0.3-0.2-0.6-0.4-0.9-0.5
		c-0.8-0.2-1.8,0-2.4,0.6C15.3,24.3,15,25,15,25.6s0.3,1.3,0.7,1.8l5.7,5.7c0.5,0.5,1.1,0.7,1.8,0.7s1.3-0.2,1.8-0.7l3.2-3.2
		l6.4,6.4L19.9,50.8c-0.7,0.7-0.9,1.8-0.5,2.7c0.4,1,1.3,1.5,2.3,1.5c0.7,0,1.3-0.3,1.8-0.7l12.8-12.8v4c0,0.7,0.3,1.3,0.7,1.8
		l7.1,7.1c0.5,0.5,1.1,0.7,1.8,0.7s1.3-0.2,1.8-0.7c1-1,1-2.6,0-3.5L41.2,44.5z M44.7,53.7l-7.1-7.1c-0.3-0.3-0.4-0.7-0.4-1.1v-5
		v-0.7v-0.7v-1.4c0-0.1-0.1-0.3-0.1-0.4L37,37.3l-0.1-0.1l-1-1l0.4-0.4l0.5-0.5l1.8-1.8l0.5-0.5l0.4-0.4l0.2,0.2l0.9,0.9
		c0,0,0,0,0,0c0,0,0,0,0,0c0.1,0.1,0.2,0.2,0.3,0.4c0,0,0,0.1,0,0.1c0.1,0.1,0.1,0.3,0.1,0.4c0,0,0,0.1,0,0.1c0,0.2,0,0.3-0.1,0.5
		c0,0,0,0.1,0,0.1c0,0-0.1,0.1-0.1,0.1c-0.1,0.1-0.1,0.2-0.2,0.3c0,0,0,0,0,0L40.4,36c-0.1,0.1-0.1,0.2-0.1,0.4v0.5v0v0.7v0v7.1
		c0,0.1,0.1,0.3,0.1,0.4l6.5,6.5c0.6,0.6,0.6,1.5,0,2.1C46.3,54.3,45.3,54.3,44.7,53.7z M20.3,53.2c-0.2-0.4-0.2-1.1,0.3-1.6
		l14.6-14.6l1,1v2.2L22.7,53.7c-0.3,0.3-0.7,0.4-1.1,0.4C20.9,54.1,20.5,53.6,20.3,53.2z M29.9,28.1c0.2-0.2,0.2-0.5,0-0.7
		c-0.2-0.2-0.4-0.2-0.6-0.1c0,0-0.1,0-0.1,0.1l-1.1,1.1l-0.4,0.4l-0.4,0.4l-3.2,3.2c-0.6,0.6-1.5,0.6-2.1,0l-5.7-5.7
		C16.2,26.4,16,26,16,25.6s0.2-0.8,0.4-1.1c0.3-0.3,0.6-0.4,1-0.4c0.4,0,0.7,0.1,1,0.3c0,0,0.1,0,0.1,0.1l0.1,0.1l0.7,0.7l3.4,3.4
		c0.2,0.2,0.5,0.2,0.7,0l2.5-2.5l0.6-0.6l1.1-1.1l0,0c0,0,0.1-0.1,0.1-0.1c0.5-0.5,1.1-0.7,1.8-0.7c0.7,0,1.3,0.3,1.8,0.7l7.4,7.4
		l-3.5,3.5l-6.4-6.4L29.9,28.1z"/>
	<path d="M29.5,14.8c-1.9,0-3.5,1.5-3.5,3.5c0,0,0,0,0,0c0,0.4,0.1,0.8,0.2,1.1c0.5,1.4,1.8,2.4,3.3,2.4c1.9,0,3.5-1.6,3.5-3.5
		c0-1.5-0.9-2.7-2.2-3.2c-0.4-0.1-0.8-0.2-1.2-0.2C29.6,14.9,29.6,14.8,29.5,14.8z M29.5,20.8c-1.3,0-2.3-0.9-2.5-2.1
		c0-0.1,0-0.2,0-0.4c0-0.5,0.1-0.9,0.4-1.3c0.2-0.4,0.5-0.7,0.9-0.9c0.4-0.2,0.8-0.3,1.2-0.3c0.2,0,0.3,0,0.5,0.1
		c1.1,0.2,2,1.2,2,2.4C32,19.7,30.9,20.8,29.5,20.8z"/>
</g>
</svg>
