<?xml version="1.0" encoding="utf-8"?>
<!-- Generator: Adobe Illustrator 25.2.1, SVG Export Plug-In . SVG Version: 6.00 Build 0)  -->
<svg version="1.1" id="Layer_1" xmlns="http://www.w3.org/2000/svg" xmlns:xlink="http://www.w3.org/1999/xlink" x="0px" y="0px"
	 viewBox="0 0 63 63" style="enable-background:new 0 0 63 63;" xml:space="preserve">
<style type="text/css">
	.st0{fill:none;}
	.st1{fill:#EE2B2F;}
</style>
<g id="Breaking">
	<path class="st0" d="M35.1,40l16.4-16.4c0.6-0.6,0.6-1.5,0-2.1c-0.6-0.6-1.6-0.6-2.1,0L38.1,32.8c-0.2,0.2-0.5,0.2-0.7,0l-6.7-6.7
		l-2.5,2.5l-2.5,2.5l6.1,6.1c0.1,0.1,0.1,0.2,0.1,0.4V55h3V40.4C35,40.2,35.1,40.1,35.1,40z"/>
	<path class="st0" d="M31,37.7l-6.3-6.3L9.1,15.9c-0.5-0.5-0.7-1.1-0.7-1.8s0.3-1.3,0.7-1.8c1-1,2.6-1,3.5,0L25,24.7l0.3-0.3v-19
		c0-1.4,1.1-2.5,2.5-2.5s2.5,1.1,2.5,2.5v19L31,25l6.7,6.7l11-11c0.9-0.9,2.6-0.9,3.5,0c0.5,0.5,0.7,1.1,0.7,1.8
		c0,0.7-0.3,1.3-0.7,1.8L36,40.6V55h27V3.5C63,1.6,61.4,0,59.5,0h-56C1.6,0,0,1.6,0,3.5V55h31V37.7z M43.8,44.1
		c-0.7,0.7-1.6,1-2.5,1c-0.9,0-1.8-0.3-2.5-1c-0.7-0.7-1-1.5-1-2.5c0-0.9,0.4-1.8,1-2.5c1.4-1.4,3.6-1.4,5,0
		C45.1,40.6,45.1,42.8,43.8,44.1z"/>
	<path class="st0" d="M41.3,39.2c-0.6,0-1.3,0.2-1.8,0.7c-0.5,0.5-0.7,1.1-0.7,1.8c0,0.7,0.3,1.3,0.7,1.8c1,1,2.6,1,3.5,0
		c1-1,1-2.6,0-3.5C42.6,39.4,41.9,39.2,41.3,39.2z"/>
	<path class="st0" d="M31.5,56H0v3.5C0,61.5,1.6,63,3.5,63h56c1.9,0,3.5-1.6,3.5-3.5V56H35.5H31.5z"/>
	<path class="st0" d="M27.5,27.9l2.5-2.5l-0.5-0.5c-0.1-0.1-0.1-0.2-0.1-0.4V5.4c0-0.8-0.7-1.5-1.5-1.5s-1.5,0.7-1.5,1.5v19.2
		c0,0.1-0.1,0.3-0.1,0.4l-0.8,0.8c-0.2,0.2-0.5,0.2-0.7,0L11.9,13c-0.6-0.6-1.5-0.6-2.1,0c-0.3,0.3-0.4,0.7-0.4,1.1
		c0,0.4,0.2,0.8,0.4,1.1L25,30.3L27.5,27.9z"/>
	<path d="M38.8,39.2c-0.7,0.7-1,1.5-1,2.5c0,0.9,0.4,1.8,1,2.5c0.7,0.7,1.6,1,2.5,1c0.9,0,1.8-0.3,2.5-1c1.4-1.4,1.4-3.6,0-4.9
		C42.4,37.8,40.2,37.8,38.8,39.2z M43,43.4c-1,1-2.6,1-3.5,0c-0.5-0.5-0.7-1.1-0.7-1.8c0-0.7,0.3-1.3,0.7-1.8
		c0.5-0.5,1.1-0.7,1.8-0.7c0.6,0,1.3,0.2,1.8,0.7C44,40.9,44,42.5,43,43.4z"/>
	<path d="M52.2,24.3c0.5-0.5,0.7-1.1,0.7-1.8c0-0.7-0.3-1.3-0.7-1.8c-0.9-0.9-2.6-0.9-3.5,0l-11,11L31,25l-0.7-0.7v-19
		c0-1.4-1.1-2.5-2.5-2.5S25.3,4,25.3,5.4v19L25,24.7L12.6,12.3c-1-1-2.6-1-3.5,0c-0.5,0.5-0.7,1.1-0.7,1.8s0.3,1.3,0.7,1.8
		l15.6,15.6l6.3,6.3V55h1V37.5c0-0.1-0.1-0.3-0.1-0.4l-6.1-6.1l2.5-2.5l2.5-2.5l6.7,6.7c0.2,0.2,0.5,0.2,0.7,0l11.3-11.3
		c0.6-0.6,1.6-0.6,2.1,0c0.6,0.6,0.6,1.5,0,2.1L35.1,40c-0.1,0.1-0.1,0.2-0.1,0.4V55h1V40.6L52.2,24.3z M9.4,14.1
		c0-0.4,0.2-0.8,0.4-1.1c0.6-0.6,1.5-0.6,2.1,0l12.7,12.7c0.2,0.2,0.5,0.2,0.7,0l0.8-0.8c0.1-0.1,0.1-0.2,0.1-0.4V5.4
		c0-0.8,0.7-1.5,1.5-1.5s1.5,0.7,1.5,1.5v19.2c0,0.1,0.1,0.3,0.1,0.4l0.5,0.5l-2.5,2.5L25,30.3L9.8,15.1C9.5,14.9,9.4,14.5,9.4,14.1
		z"/>
	<polygon class="st1" points="-1,55.5 -1,55.5 -1,55.5 	"/>
	<polygon class="st1" points="36,55 35,55 32,55 31,55 0,55 0,56 31.5,56 35.5,56 63,56 63,55 	"/>
</g>
</svg>
