<?xml version="1.0" encoding="utf-8"?>
<!-- Generator: Adobe Illustrator 25.2.1, SVG Export Plug-In . SVG Version: 6.00 Build 0)  -->
<svg version="1.1" id="Layer_1" xmlns="http://www.w3.org/2000/svg" xmlns:xlink="http://www.w3.org/1999/xlink" x="0px" y="0px"
	 viewBox="0 0 63 63" style="enable-background:new 0 0 63 63;" xml:space="preserve">
<style type="text/css">
	.st0{fill:none;}
	.st1{fill:#FCB019;}
	.st2{fill:#00A64F;}
</style>
<g id="Canoe_sprint">
	<polygon class="st0" points="23.8,42.8 22,47 32.2,47 30.5,42.8 	"/>
	<path class="st0" d="M32.1,38.8l-6.4,0l-0.5,0l-0.5,0l-0.5,0l-4,0l-0.5,0h0l0,1V40l0,0.3c0,0.2,0,0.4,0.1,0.5
		c0.1,0.2,0.2,0.4,0.3,0.5c0,0,0,0,0,0c0.3,0.3,0.7,0.4,1.1,0.4h0.9h0.1h1h1.1h6.6c0.2,0,0.4,0.1,0.5,0.3l2,4.9h3.2l-3-7.3
		C33.3,39.2,32.7,38.8,32.1,38.8z"/>
	<path class="st0" d="M29,30.9l-2.9,6.9l6,0c1,0,1.9,0.6,2.3,1.5l3.2,7.7h1.4c0.2-1,1-1.7,1.9-1.9v-9.3c-0.2,0-0.3-0.1-0.5-0.1
		L29,30.9z"/>
	<path class="st0" d="M21.1,42.8c-0.5,0-1-0.2-1.5-0.5l-2,4.7H21l1.8-4.2H21.1z"/>
	<path class="st0" d="M25.1,21.9c0.6,0.3,1.3,0.3,1.9,0c0.6-0.3,1.1-0.7,1.4-1.4s0.3-1.3,0-1.9c-0.3-0.6-0.7-1.1-1.4-1.4
		c-0.3-0.1-0.6-0.2-1-0.2c-0.3,0-0.6,0.1-1,0.2c-0.6,0.3-1.1,0.7-1.4,1.4s-0.3,1.3,0,1.9C24,21.2,24.5,21.7,25.1,21.9z"/>
	<path class="st0" d="M43,47.5c0-0.2,0-0.3-0.1-0.5c-0.1-0.2-0.2-0.4-0.3-0.6c-0.3-0.3-0.7-0.4-1.1-0.4c0,0,0,0,0,0c0,0,0,0,0,0
		c-0.7,0-1.2,0.4-1.4,1C40,47.2,40,47.4,40,47.5l0,0.5l0,5.3l0.7,0.6c0.6,0.6,1.5,0.9,2.3,1l0-6.9L43,47.5z"/>
	<polygon class="st0" points="32.9,27.1 41,30.4 41,23.7 	"/>
	<path class="st0" d="M63,48H44l0,6.9c0.9-0.1,1.7-0.4,2.3-1l0.8-0.8c0.2-0.2,0.5-0.2,0.7,0l0.8,0.8c1.6,1.5,4.1,1.5,5.7,0l0.8-0.8
		c0.2-0.2,0.5-0.2,0.7,0l0.8,0.8c1.5,1.4,4.2,1.4,5.7,0l0.7-0.6"/>
	<path class="st0" d="M27.7,24.9l3.9,1.6l7.9-3.3C39,23,38.6,22.6,38.4,22c-0.2-0.5-0.2-1.1-0.1-1.6L27.7,24.9
		C27.6,24.9,27.6,24.9,27.7,24.9C27.7,24.9,27.7,24.9,27.7,24.9z"/>
	<path class="st0" d="M28.1,30.5l-1.4-0.6c-0.1,0-0.2-0.1-0.3-0.2c-0.1-0.1-0.1-0.3,0-0.4c0,0,0.1-0.1,0.1-0.1
		c0.1-0.1,0.3-0.2,0.4-0.2c0,0,0,0,0,0c0,0,0.1,0,0.1,0l0.6,0.2l0.8,0.3l0.5,0.2l0.5,0.2l11.5,4.8c0,0,0.1,0,0.1,0
		c0.3,0.1,0.7,0.1,1,0c0.4-0.1,0.7-0.4,0.9-0.8c0.3-0.8,0-1.6-0.8-2l-0.1,0l-1-0.4l-9.5-3.9l-0.7-0.3l-0.7-0.3l-0.7-0.3l-0.7-0.3
		l-1.4-0.6l0,0c0,0-0.1,0-0.1-0.1c-0.6-0.3-1.3-0.3-1.9,0c-0.6,0.3-1.1,0.7-1.4,1.4L24,27.3l-0.3,0.8l-3.8,9.1c0,0,0,0.1,0,0.1
		c-0.1,0.1-0.1,0.3-0.1,0.5l5.3,0L28.1,30.5z"/>
	<path class="st0" d="M41,22.6c0.1,0,0.2,0,0.3-0.1c0.3-0.1,0.5-0.4,0.7-0.7c0-0.1,0.1-0.1,0.1-0.2c0.2-0.4,0.2-0.8,0-1.1
		c-0.1-0.2-0.2-0.3-0.3-0.5c0,0,0,0,0,0c-0.1-0.1-0.3-0.2-0.4-0.3c-0.2-0.1-0.4-0.1-0.6-0.1c0,0,0,0,0,0c-0.2,0-0.4,0-0.6,0.1
		c-0.8,0.3-1.1,1.2-0.8,2C39.6,22.3,40.3,22.7,41,22.6z"/>
	<path d="M19.7,42.3c0.4,0.3,0.9,0.5,1.5,0.5h1.6L21,47H22l1.8-4.2h6.7l1.8,4.2h0.5h0.5l-2-4.9c-0.1-0.2-0.3-0.3-0.5-0.3h-6.6h-1.1
		h-1h-0.1h-0.9c-0.4,0-0.8-0.2-1.1-0.4c0,0,0,0,0,0c-0.1-0.1-0.3-0.3-0.3-0.5c-0.1-0.2-0.1-0.4-0.1-0.5l0-0.3v-0.1l0-1h0l0.5,0l4,0
		l0.5,0l0.5,0l0.5,0l6.4,0c0.6,0,1.2,0.4,1.4,0.9l3,7.3h0.5h0.5l-3.2-7.7c-0.4-0.9-1.3-1.5-2.3-1.5l-6,0l2.9-6.9l11.5,4.8
		c0.2,0.1,0.3,0.1,0.5,0.1c0.2,0,0.3,0,0.5,0c0.2,0,0.3,0,0.5-0.1c0.8-0.2,1.5-0.7,1.8-1.5c0.5-1.3-0.1-2.7-1.4-3.3L42,30.8l-1-0.4
		l-8.1-3.4l8.1-3.4v-0.1c0.2,0,0.5-0.1,0.7-0.2c0.1,0,0.2-0.1,0.3-0.2v0c0.5-0.3,0.8-0.7,1-1.2c0.3-0.6,0.3-1.3,0-1.9
		c-0.2-0.5-0.5-0.8-0.9-1.1c0,0,0,0,0,0c-0.1-0.1-0.3-0.2-0.4-0.2c-0.2-0.1-0.3-0.1-0.5-0.1c-0.1,0-0.2,0-0.3,0c-0.1,0-0.1,0-0.2,0
		c-0.3,0-0.6,0.1-1,0.2L25,24.9c-0.9,0.4-1.5,1-1.9,1.9L18.9,37c0,0,0,0.1,0,0.1c-0.2,0.4-0.2,0.8-0.2,1.2c0,0,0,0,0,0l0,2
		c0,0.4,0.1,0.8,0.3,1.2L16.6,47h1.1L19.7,42.3z M40.1,19.7c0.2-0.1,0.4-0.1,0.6-0.1c0,0,0,0,0,0c0.2,0,0.4,0,0.6,0.1
		c0.2,0.1,0.3,0.2,0.4,0.3c0,0,0,0,0,0c0.1,0.1,0.2,0.3,0.3,0.5c0.2,0.4,0.2,0.8,0,1.1c0,0.1-0.1,0.1-0.1,0.2
		c-0.2,0.3-0.4,0.5-0.7,0.7c-0.1,0-0.2,0.1-0.3,0.1c-0.7,0.1-1.4-0.2-1.7-0.9C39,20.9,39.4,20,40.1,19.7z M38.3,20.5
		c-0.1,0.5-0.1,1.1,0.1,1.6c0.2,0.5,0.6,0.9,1.1,1.2l-7.9,3.3l-3.9-1.6c0,0,0,0,0,0c0,0,0,0,0,0L38.3,20.5z M19.8,37.3
		C19.8,37.3,19.8,37.3,19.8,37.3l3.8-9.2l0.3-0.8l0.1-0.1c0.3-0.6,0.7-1.1,1.4-1.4c0.6-0.3,1.3-0.3,1.9,0c0,0,0.1,0,0.1,0.1l0,0
		l1.4,0.6l0.7,0.3l0.7,0.3l0.7,0.3l0.7,0.3l9.5,3.9l1,0.4l0.1,0c0.8,0.3,1.1,1.2,0.8,2c-0.2,0.4-0.5,0.7-0.9,0.8
		c-0.3,0.1-0.7,0.1-1,0c0,0-0.1,0-0.1,0l-11.5-4.8l-0.5-0.2l-0.5-0.2l-0.8-0.3L27.1,29c0,0-0.1,0-0.1,0c0,0,0,0,0,0
		c-0.2,0-0.3,0-0.4,0.2c0,0-0.1,0.1-0.1,0.1c-0.1,0.1,0,0.3,0,0.4c0.1,0.1,0.1,0.2,0.3,0.2l1.4,0.6l-3,7.3l-5.3,0
		C19.7,37.7,19.7,37.5,19.8,37.3z"/>
	<path class="st1" d="M39.1,47h-1.4h-0.5h-0.5h-3.2h-0.5h-0.5H22H21h-3.2h-1.1H0v1h21.3h16H39l0-0.5C39,47.4,39,47.2,39.1,47z"/>
	<path class="st1" d="M44,48h19v-1H43.9c0,0.2,0,0.3,0,0.5L44,48z"/>
	<polygon class="st2" points="43.5,56 43.5,56 43.5,56 	"/>
	<path class="st2" d="M39.5,53c0.1,0,0.2,0,0.3,0.1l0.2,0.1l0-5.3l0-0.5c0-0.2,0-0.3,0.1-0.5c0.2-0.6,0.8-1,1.4-1c0,0,0,0,0,0
		c0,0,0,0,0,0c0.4,0,0.8,0.2,1.1,0.4c0.2,0.2,0.3,0.4,0.3,0.6c0.1,0.2,0.1,0.3,0.1,0.5l0,0.5l0,6.9c0.2,0,0.3,0,0.5,0
		c0.2,0,0.3,0,0.5,0l0-6.9l0-0.5c0-0.2,0-0.3,0-0.5c-0.1-0.5-0.3-0.9-0.7-1.3c-0.4-0.4-0.8-0.6-1.3-0.7v-9.3c-0.2,0-0.3,0.1-0.5,0.1
		c-0.2,0-0.3,0-0.5,0v9.3c-1,0.2-1.8,1-1.9,1.9c0,0.2,0,0.3,0,0.5l0,0.5l0,5.3l0.2-0.1C39.3,53.1,39.4,53,39.5,53z"/>
	<path class="st2" d="M41.7,23.4c-0.2,0.1-0.5,0.1-0.7,0.2v0.1v6.7l1,0.4v-7.6v0C41.9,23.3,41.8,23.4,41.7,23.4z"/>
	<path d="M24.7,22.8c0.4,0.2,0.9,0.3,1.3,0.3c0.5,0,0.9-0.1,1.3-0.3c0.9-0.4,1.5-1,1.9-1.9c0.4-0.9,0.4-1.8,0-2.7
		c-0.4-0.9-1-1.5-1.9-1.9s-1.8-0.4-2.7,0c-0.9,0.4-1.5,1-1.9,1.9c-0.4,0.9-0.4,1.8,0,2.7C23.2,21.8,23.8,22.5,24.7,22.8z M23.7,18.6
		c0.3-0.6,0.7-1.1,1.4-1.4c0.3-0.1,0.6-0.2,1-0.2c0.3,0,0.6,0.1,1,0.2c0.6,0.3,1.1,0.7,1.4,1.4c0.3,0.6,0.3,1.3,0,1.9
		s-0.7,1.1-1.4,1.4c-0.6,0.3-1.3,0.3-1.9,0c-0.6-0.3-1.1-0.7-1.4-1.4C23.5,19.9,23.5,19.3,23.7,18.6z"/>
	<path d="M63,53.3l-0.7,0.6c-1.5,1.4-4.2,1.4-5.7,0l-0.8-0.8c-0.2-0.2-0.5-0.2-0.7,0l-0.8,0.8c-1.6,1.5-4.1,1.5-5.7,0l-0.8-0.8
		c-0.2-0.2-0.5-0.2-0.7,0l-0.8,0.8c-0.6,0.6-1.5,0.9-2.3,1c-0.2,0-0.3,0-0.5,0c-0.2,0-0.3,0-0.5,0c-0.9-0.1-1.7-0.4-2.3-1L40,53.3
		l-0.2-0.1c-0.1-0.1-0.2-0.1-0.3-0.1c-0.1,0-0.2,0-0.3,0.1L39,53.3l-0.7,0.6c-1.6,1.5-4.1,1.5-5.7,0l-0.8-0.8
		c-0.2-0.2-0.5-0.2-0.7,0l-0.8,0.8c-1.6,1.5-4.1,1.5-5.7,0l-0.8-0.8c-0.2-0.2-0.5-0.2-0.7,0l-0.8,0.8c-1.6,1.5-4.1,1.5-5.7,0
		l-0.8-0.8c-0.2-0.2-0.5-0.2-0.7,0l-0.8,0.8c-1.6,1.5-4.1,1.5-5.7,0l-0.8-0.8c-0.2-0.2-0.5-0.2-0.7,0l-0.8,0.8
		c-1.6,1.5-4.1,1.5-5.7,0L0,53.3v1.4c1.9,1.8,5.1,1.8,7,0l0.5-0.4L8,54.7c1.9,1.8,5.1,1.8,7,0l0.5-0.4l0.5,0.4c1.9,1.8,5.1,1.8,7,0
		l0.5-0.4l0.5,0.4c1.9,1.8,5.1,1.8,7,0l0.5-0.4l0.5,0.4c1.9,1.8,5.1,1.8,7,0l0.5-0.4l0.5,0.4c0.9,0.9,2.2,1.4,3.5,1.4c0,0,0,0,0,0
		c1.3,0,2.6-0.5,3.5-1.4l0.5-0.4l0.5,0.4c1.9,1.8,5.1,1.8,7,0l0.5-0.4l0.5,0.4c0.9,0.9,2.2,1.4,3.5,1.4c1.3,0,2.6-0.5,3.5-1.4"/>
</g>
</svg>
