<?xml version="1.0" encoding="utf-8"?>
<!-- Generator: Adobe Illustrator 25.2.1, SVG Export Plug-In . SVG Version: 6.00 Build 0)  -->
<svg version="1.1" id="Layer_1" xmlns="http://www.w3.org/2000/svg" xmlns:xlink="http://www.w3.org/1999/xlink" x="0px" y="0px"
	 viewBox="0 0 63 63" style="enable-background:new 0 0 63 63;" xml:space="preserve">
<style type="text/css">
	.st0{fill:#EE2B2F;}
</style>
<g id="BMX_freestyle">
	<path d="M15.6,45.1V31.5c0-0.3-0.2-0.5-0.5-0.5H0c0,0,0,0,0,0v1c0,0,0,0,0,0h14.6v13.1c0,8.3,5.4,15.4,12.9,17.9h6
		C23.7,63,15.6,55,15.6,45.1z"/>
	<path d="M46.6,17.3C46.6,17.3,46.6,17.3,46.6,17.3h-6.3l-2.4-5.8c-0.5-1.3-2-1.9-3.3-1.4c-0.6,0.3-1.1,0.7-1.4,1.4
		c-0.2,0.6-0.2,1.3,0,1.9l3.1,7.4c0.4,0.9,1.3,1.5,2.3,1.5l4.5,0l0,7.5l-5.6-2.3c-0.6-0.3-1.3-0.3-1.9,0l-9.2,3.8
		c-0.7,0.3-1.2,0.8-1.4,1.5c-0.2,0.7-0.1,1.5,0.3,2.1c0.6,1,2,1.4,3.2,1l8.2-3.4l2.7,1.1l-3.7,1.5c-0.6,0.3-1.1,0.7-1.4,1.4
		l-0.1,0.2c0.2,0,0.3,0,0.5,0.1c0.2,0,0.3,0.1,0.5,0.1c0.2-0.4,0.4-0.7,0.8-0.8l4.6-1.9l3.9,1.6l-6.1,2.5c0.2,0.1,0.3,0.2,0.5,0.4
		c0.1,0.1,0.3,0.2,0.4,0.4l6.6-2.7c0.3,0.1,0.6,0.2,0.9,0.2c1,0,1.9-0.6,2.3-1.5l0.8-1.9c0,0,0,0,0,0c0,0,0,0,0,0
		c0.2-0.4,0.3-0.9,0.3-1.3l0-11C50.1,18.8,48.6,17.3,46.6,17.3z M48.3,34.3l-0.1,0.3c0,0,0,0.1-0.1,0.1C48,34.8,48,34.9,47.9,35
		c-0.3,0.3-0.8,0.5-1.3,0.4c-0.1,0-0.3,0-0.4-0.1l-0.3-0.1L45.3,35l-0.1,0L42,33.6l-0.7-0.3l-0.7-0.3l-3.8-1.6c-0.1,0-0.1,0-0.2,0
		s-0.1,0-0.2,0L28.1,35c-0.7,0.3-1.6,0.1-1.9-0.6c-0.2-0.4-0.3-0.8-0.2-1.3c0.1-0.4,0.4-0.8,0.9-0.9l9.2-3.8c0.4-0.2,0.8-0.2,1.1,0
		l5.9,2.5l0.5,0.2l0.5,0.2l0.4,0.2l0.7,0.3l2.4,1l0.6,0.3l0.4,0.2l0,0L48.3,34.3z M49.1,31.8c0,0.2,0,0.3,0,0.5l-5-2.1v-7.9l1.5,0
		c0.3,0,0.5-0.2,0.5-0.5c0-0.2-0.2-0.4-0.4-0.5c0,0-0.1,0-0.1,0l-1.5,0l-0.5,0l-0.5,0l-4.5,0c-0.6,0-1.1-0.4-1.4-0.9L34.2,13
		c-0.2-0.4-0.2-0.8,0-1.1c0.2-0.4,0.5-0.7,0.8-0.8c0.8-0.3,1.6,0,2,0.8l2.5,6.2c0.1,0.2,0.3,0.3,0.5,0.3l4.2,0l0.8,0l1.5,0l0,0
		c0,0,0.1,0,0.1,0h0c0,0,0,0,0,0c1.4,0,2.5,1.1,2.5,2.5L49.1,31.8z"/>
	<path d="M30.6,47.8c0.3,0.6,0.9,1.1,1.7,1.3c0.2,0,0.4,0.1,0.5,0.1c1,0,2-0.6,2.4-1.6l3.3-8c-0.1-0.1-0.3-0.2-0.4-0.3
		c-0.1-0.1-0.3-0.2-0.4-0.3l-3.4,8.2c-0.3,0.7-1.1,1.2-1.8,1c-0.4-0.1-0.8-0.4-1-0.8c-0.2-0.4-0.2-0.9-0.1-1.3l3.4-8.3
		c-0.2,0-0.3-0.1-0.5-0.1c-0.2,0-0.3,0-0.5,0l-3.3,8C30.2,46.4,30.2,47.2,30.6,47.8z"/>
	<path class="st0" d="M20.2,29c1,0.4,2.2,0.7,3.3,0.7s2.2-0.2,3.3-0.7c2.1-0.9,3.7-2.5,4.6-4.6c0.9-2.1,0.9-4.4,0-6.5
		c-1.8-4.3-6.8-6.4-11.1-4.6c-2.1,0.9-3.7,2.5-4.6,4.6c-0.9,2.1-0.9,4.4,0,6.5S18.2,28.1,20.2,29z M16.6,18.3
		c0.8-1.9,2.2-3.3,4.1-4.1c0.9-0.4,1.9-0.6,2.9-0.6c2.9,0,5.7,1.7,6.9,4.6c0.8,1.9,0.8,3.9,0,5.7s-2.2,3.3-4.1,4.1
		c-1.9,0.8-3.9,0.8-5.7,0c-1.9-0.8-3.3-2.2-4.1-4.1C15.8,22.2,15.8,20.1,16.6,18.3z"/>
	<path class="st0" d="M38.5,38.3c-0.5-0.4-1.1-0.7-1.7-1c-0.5-0.2-1-0.3-1.5-0.5c-0.2,0-0.3-0.1-0.5-0.1c-0.2,0-0.3-0.1-0.5-0.1
		c-1.4-0.1-2.7,0.1-4,0.6c-2.1,0.9-3.7,2.5-4.6,4.6c-0.9,2.1-0.9,4.4,0,6.5c1.4,3.3,4.5,5.2,7.9,5.2c1.1,0,2.2-0.2,3.2-0.6
		c2.1-0.9,3.7-2.5,4.6-4.6c0.9-2.1,0.9-4.4,0-6.5c-0.5-1.1-1.1-2.1-2-2.9c-0.1-0.1-0.3-0.3-0.4-0.4C38.8,38.5,38.6,38.4,38.5,38.3z
		 M40.4,42.3c0.8,1.9,0.8,3.9,0,5.7c-0.8,1.9-2.2,3.3-4.1,4.1c-3.8,1.6-8.2-0.2-9.8-4.1c-0.8-1.9-0.8-3.9,0-5.7
		c0.8-1.9,2.2-3.3,4.1-4.1c0.9-0.4,1.9-0.6,2.9-0.6c0.1,0,0.2,0,0.4,0c0.2,0,0.3,0,0.5,0c0.2,0,0.3,0,0.5,0.1c0.5,0.1,1,0.2,1.5,0.4
		c0.5,0.2,0.9,0.4,1.3,0.7c0.1,0.1,0.3,0.2,0.4,0.3c0.1,0.1,0.3,0.2,0.4,0.3C39.3,40.3,39.9,41.2,40.4,42.3z"/>
	<path class="st0" d="M45.4,12.3l-2.8,0c0,0,0,0,0,0c-0.3,0-0.5,0.2-0.5,0.5l0,1.4c0,0.2,0.1,0.4,0.3,0.5l4,1.7c0.1,0,0.1,0,0.2,0
		c0,0,0,0,0,0c0.9,0,1.8-0.4,2.5-1c0.7-0.7,1-1.5,1-2.5c0-0.9-0.4-1.8-1-2.5c-0.4-0.4-1-0.7-1.6-0.9l-5-1.3c-0.2-0.1-0.4,0-0.6,0.2
		S41.9,8.7,42,8.9L45.4,12.3z M47.3,10.4c0.4,0.1,0.8,0.3,1.1,0.7c0.5,0.5,0.7,1.1,0.7,1.8c0,0.7-0.3,1.3-0.7,1.8
		c-0.4,0.4-1,0.7-1.7,0.7l-3.6-1.5l0-0.5l3.5,0c0,0,0,0,0,0c0.2,0,0.4-0.1,0.5-0.3c0.1-0.2,0-0.4-0.1-0.5l-2.9-2.9L47.3,10.4z"/>
</g>
</svg>
