<?xml version="1.0" encoding="utf-8"?>
<!-- Generator: Adobe Illustrator 25.2.1, SVG Export Plug-In . SVG Version: 6.00 Build 0)  -->
<svg version="1.1" id="Layer_1" xmlns="http://www.w3.org/2000/svg" xmlns:xlink="http://www.w3.org/1999/xlink" x="0px" y="0px"
	 viewBox="0 0 63 63" style="enable-background:new 0 0 63 63;" xml:space="preserve">
<style type="text/css">
	.st0{fill:#EE2B2F;}
</style>
<g id="BMX_racing">
	<path d="M63,39c-10.4,0.1-20.8,2.6-30,7.2l-12.6,6.3C17.1,54.2,13.5,55,9.8,55H0v1h9.8c3.8,0,7.6-0.9,11-2.6l12.6-6.3
		c9.1-4.6,19.4-7,29.6-7.1"/>
	<path d="M17.6,43.8c0.4,0.3,0.9,0.4,1.3,0.4c0.3,0,0.5,0,0.8-0.1c0.7-0.2,1.3-0.7,1.6-1.4l3.3-8c-0.1-0.1-0.3-0.2-0.4-0.3
		c-0.1-0.1-0.3-0.2-0.4-0.3l-3.4,8.3c-0.2,0.4-0.5,0.7-0.9,0.9c-0.4,0.1-0.9,0.1-1.3-0.2c-0.6-0.4-0.8-1.2-0.5-1.9l3.4-8.2
		c-0.2,0-0.3-0.1-0.5-0.1c-0.2,0-0.3,0-0.5,0l-3.3,7.9C16.1,41.8,16.5,43.2,17.6,43.8z"/>
	<path d="M20.8,31.8l-2.5-6.1l3.9,1.6l1.9,4.6c0.2,0.4,0.2,0.8,0,1.1l0,0c0.1,0.1,0.3,0.2,0.4,0.3c0.1,0.1,0.3,0.2,0.4,0.3l0.1-0.2
		c0.3-0.6,0.3-1.3,0-1.9l-1.5-3.7l2.7,1.1l3.4,8.2c0.4,1,1.4,1.6,2.4,1.6c0.2,0,0.4,0,0.5-0.1c0.7-0.2,1.3-0.6,1.7-1.3
		c0.3-0.7,0.4-1.4,0.1-2.1l-3.8-9.2c-0.3-0.6-0.7-1.1-1.4-1.4l-5.6-2.3l5.3-5.3l3.2,3.2c0.5,0.5,1.1,0.7,1.8,0.7
		c0.3,0,0.6-0.1,1-0.2l7.4-3.1c0.6-0.3,1.1-0.7,1.4-1.4c0.2-0.6,0.2-1.3,0-1.9c-0.5-1.3-2-1.9-3.3-1.4l-5.8,2.4l-4.5-4.5
		c0,0,0,0,0,0c-0.7-0.7-1.5-1-2.5-1c0,0,0,0,0,0c-0.9,0-1.8,0.4-2.5,1l-7.8,7.8c-0.3,0.3-0.6,0.7-0.8,1.1c0,0,0,0,0,0c0,0,0,0,0,0
		l-0.8,1.9c-0.5,1.3,0.1,2.7,1.3,3.2l2.7,6.6c0.2,0,0.4,0,0.6,0C20.4,31.7,20.6,31.7,20.8,31.8z M17.9,19.6l7.8-7.8
		c0.5-0.5,1.1-0.7,1.8-0.7c0,0,0,0,0,0c0.7,0,1.3,0.3,1.8,0.7c0,0,0,0,0,0l0,0c0,0,0,0.1,0.1,0.1l0,0l1.1,1.1l0.6,0.6l3,3
		c0.1,0.1,0.4,0.2,0.5,0.1l6.2-2.5c0.8-0.3,1.6,0,2,0.8c0.2,0.4,0.2,0.8,0,1.1c-0.2,0.4-0.5,0.7-0.8,0.8l-7.4,3.1
		c-0.6,0.2-1.2,0.1-1.6-0.3l-3.2-3.2L29.2,16l-0.4-0.4l-1.1-1.1c0,0-0.1,0-0.1-0.1c-0.2-0.1-0.4-0.1-0.6,0.1c-0.2,0.2-0.2,0.5,0,0.7
		l1.1,1.1L22.5,22l-5-2.1C17.7,19.8,17.8,19.7,17.9,19.6z M17.7,24.3l-0.3-0.1c-0.1-0.1-0.2-0.1-0.3-0.2c-0.4-0.3-0.6-0.7-0.6-1.2
		c0-0.1,0-0.3,0.1-0.4c0,0,0-0.1,0-0.1l0.1-0.3l0.4-1.1l0,0l0.4,0.2l0.6,0.3l2.4,1l0.7,0.3l0.4,0.2l0.5,0.2l0.5,0.2l5.9,2.5
		c0.4,0.2,0.7,0.4,0.8,0.8l3.8,9.2c0.2,0.4,0.2,0.9,0,1.3c-0.2,0.4-0.6,0.7-1,0.8c-0.7,0.2-1.5-0.3-1.8-1l-3.5-8.4
		c-0.1-0.1-0.1-0.2-0.3-0.3L23,26.5l-0.7-0.3L21.7,26l-3.3-1.4l-0.1,0L17.7,24.3z"/>
	<path class="st0" d="M40.3,22.3c-2.1,0.9-3.7,2.5-4.6,4.6c-0.9,2.1-0.9,4.4,0,6.5c0.9,2.1,2.5,3.7,4.6,4.6c1,0.4,2.2,0.7,3.3,0.7
		s2.2-0.2,3.3-0.7c2.1-0.9,3.7-2.5,4.6-4.6c0.9-2.1,0.9-4.4,0-6.5c-0.9-2.1-2.5-3.7-4.6-4.6C44.7,21.5,42.4,21.5,40.3,22.3z
		 M50.4,27.3c0.8,1.9,0.8,3.9,0,5.7c-0.8,1.9-2.2,3.3-4.1,4.1c-1.9,0.8-3.9,0.8-5.7,0c-1.9-0.8-3.3-2.2-4.1-4.1
		c-0.8-1.9-0.8-3.9,0-5.7c0.8-1.9,2.2-3.3,4.1-4.1c0.9-0.4,1.9-0.6,2.9-0.6c1,0,1.9,0.2,2.9,0.6C48.2,24,49.7,25.5,50.4,27.3z"/>
	<path class="st0" d="M16.2,48c1,0.4,2.2,0.7,3.3,0.7s2.2-0.2,3.3-0.7c4.3-1.8,6.4-6.8,4.6-11.1c-0.5-1.3-1.4-2.4-2.4-3.3
		c-0.1-0.1-0.3-0.2-0.4-0.3c-0.1-0.1-0.3-0.2-0.4-0.3c-1-0.6-2.1-1.1-3.3-1.3c-0.2,0-0.4-0.1-0.6-0.1c-0.2,0-0.4,0-0.6,0
		c-1.1,0-2.3,0.2-3.4,0.6c-2.1,0.9-3.7,2.5-4.6,4.6c-0.9,2.1-0.9,4.4,0,6.5S14.1,47.1,16.2,48z M12.6,37.3c0.8-1.9,2.2-3.3,4.1-4.1
		c0.9-0.4,1.9-0.6,2.9-0.6c0.1,0,0.3,0,0.4,0c0.2,0,0.4,0,0.5,0c0.2,0,0.3,0.1,0.5,0.1c1,0.2,1.9,0.6,2.8,1.2
		c0.1,0.1,0.3,0.2,0.4,0.3c0.1,0.1,0.3,0.2,0.4,0.3c0.8,0.7,1.5,1.6,1.9,2.7c1.6,3.8-0.2,8.2-4.1,9.8c-1.9,0.8-3.9,0.8-5.7,0
		c-1.9-0.8-3.3-2.2-4.1-4.1C11.8,41.2,11.8,39.1,12.6,37.3z"/>
	<path class="st0" d="M30.8,10.5l4,1.7c0.1,0,0.1,0,0.2,0c0.1,0,0.3-0.1,0.4-0.1l1-1c0.2-0.2,0.2-0.5,0-0.7l-2-2h4.8
		c0.2,0,0.4-0.2,0.5-0.4c0.1-0.2,0-0.4-0.2-0.6l-4.5-2.6c-0.6-0.3-1.1-0.5-1.7-0.5c-1.9,0-3.5,1.6-3.5,3.5c0,0.9,0.4,1.8,1,2.5
		C30.7,10.4,30.7,10.5,30.8,10.5z M33.1,5.4c0.4,0,0.9,0.1,1.2,0.3l2.9,1.7h-4.1c-0.2,0-0.4,0.1-0.5,0.3c-0.1,0.2,0,0.4,0.1,0.5
		l2.5,2.5l-0.4,0.4l-3.6-1.5c-0.4-0.5-0.7-1.1-0.7-1.7C30.6,6.5,31.7,5.4,33.1,5.4z"/>
</g>
</svg>
