<?xml version="1.0" encoding="utf-8"?>
<!-- Generator: Adobe Illustrator 25.2.1, SVG Export Plug-In . SVG Version: 6.00 Build 0)  -->
<svg version="1.1" id="Layer_1" xmlns="http://www.w3.org/2000/svg" xmlns:xlink="http://www.w3.org/1999/xlink" x="0px" y="0px"
	 viewBox="0 0 63 63" style="enable-background:new 0 0 63 63;" xml:space="preserve">
<style type="text/css">
	.st0{fill:#EE2B2F;}
</style>
<g id="Fencing">
	<path d="M28.7,19c1.9,0,3.5-1.6,3.5-3.5S30.7,12,28.7,12s-3.5,1.6-3.5,3.5S26.8,19,28.7,19z M28.7,13c1.4,0,2.5,1.1,2.5,2.5
		S30.1,18,28.7,18s-2.5-1.1-2.5-2.5S27.3,13,28.7,13z"/>
	<path d="M41.9,23.7L41.9,23.7C41.9,23.7,42,23.7,41.9,23.7C42,23.7,41.9,23.7,41.9,23.7z"/>
	<path d="M41.9,26.5C41.9,26.5,42,26.5,41.9,26.5C42,26.5,41.9,26.5,41.9,26.5L41.9,26.5z"/>
	<path d="M40.9,27.1v-0.5l-7.5,0c-0.2,0-0.4,0-0.6-0.1l-5.5-2.3c-0.3-0.1-0.5,0-0.7,0.3c-0.1,0.3,0,0.5,0.3,0.7l0.5,0.2L24,33.6
		L20.1,32l-0.7-0.3l3.1-7.5c0,0,0,0,0,0l0.9-2.1c0.1-0.3,0.3-0.6,0.5-0.8c0.2-0.2,0.5-0.4,0.8-0.5c0.6-0.3,1.3-0.3,1.9,0
		c0,0,0,0,0,0l7,2.9c0.1,0,0.1,0,0.2,0h7.1v-0.5c0-0.3,0.2-0.5,0.5-0.5h-7.5L27,19.7c0,0,0,0,0,0c-0.4-0.2-0.9-0.3-1.3-0.3
		c0,0,0,0,0,0l-14.9,0c-1.4,0-2.5,1.1-2.5,2.5s1.1,2.5,2.5,2.5l10.5,0l-3,7.3l-0.8,1.8c-0.2,0.4-0.2,0.8-0.2,1.1L4.5,47
		c-1,1-1,2.5-0.1,3.5c0.5,0.5,1.1,0.8,1.8,0.8c0.6,0,1.2-0.2,1.7-0.7l13.3-12.7l6.2,2.6v8.3c0,1.4,1.1,2.5,2.5,2.5s2.5-1.1,2.5-2.5
		l0-10c0-1-0.6-1.9-1.5-2.3l-6-2.5l3.4-8.3l4.2,1.7c0.3,0.1,0.6,0.2,1,0.2h8C41.2,27.6,40.9,27.3,40.9,27.1z M10.7,23.4
		c-0.8,0-1.5-0.7-1.5-1.5s0.7-1.5,1.5-1.5l12.5,0c0,0,0,0,0,0c-0.3,0.3-0.6,0.7-0.8,1.1l-0.8,1.8L10.7,23.4z M7.3,49.9
		c-0.6,0.6-1.5,0.6-2.1,0c-0.6-0.6-0.6-1.5,0-2.1l12.4-11.9c0.3,0.5,0.7,0.8,1.2,1.1l1.4,0.6L7.3,49.9z M30.5,37.4
		c0.6,0.2,0.9,0.8,0.9,1.4v10c0,0.8-0.7,1.5-1.5,1.5s-1.5-0.7-1.5-1.5v-8.7c0-0.2-0.1-0.4-0.3-0.5l-6.8-2.8l0,0l-2.1-0.9
		c-0.8-0.3-1.1-1.2-0.8-2l0.6-1.4L30.5,37.4z"/>
	<path class="st0" d="M59.8,24.6H43.9c-0.2-1.1-1.2-2-2.4-2c-0.3,0-0.5,0.2-0.5,0.5v0.5v3v0.5c0,0.3,0.2,0.5,0.5,0.5
		c1.2,0,2.2-0.9,2.4-2h15.9c0.3,0,0.5-0.2,0.5-0.5S60.1,24.6,59.8,24.6z M42.9,25.5C42.9,25.5,42.9,25.5,42.9,25.5
		c-0.1,0.2-0.1,0.3-0.2,0.4c0,0,0,0,0,0c-0.1,0.1-0.2,0.2-0.3,0.3c0,0,0,0-0.1,0.1c-0.1,0.1-0.2,0.1-0.3,0.2c0,0,0,0,0,0v0v-2.8v0
		c0,0,0,0,0,0c0.1,0,0.2,0.1,0.3,0.2c0,0,0,0,0.1,0.1c0.1,0.1,0.2,0.2,0.3,0.3c0,0,0,0,0,0c0.1,0.1,0.1,0.2,0.2,0.4c0,0,0,0.1,0,0.1
		c0,0.1,0.1,0.3,0.1,0.4C42.9,25.2,42.9,25.4,42.9,25.5z"/>
</g>
</svg>
