<?xml version="1.0" encoding="utf-8"?>
<!-- Generator: Adobe Illustrator 25.2.1, SVG Export Plug-In . SVG Version: 6.00 Build 0)  -->
<svg version="1.1" id="Layer_1" xmlns="http://www.w3.org/2000/svg" xmlns:xlink="http://www.w3.org/1999/xlink" x="0px" y="0px"
	 viewBox="0 0 63 63" style="enable-background:new 0 0 63 63;" xml:space="preserve">
<style type="text/css">
	.st0{fill:#FCB019;}
</style>
<g id="Handball">
	<path d="M31.7,16c1.9,0,3.5-1.6,3.5-3.5S33.7,9,31.7,9s-3.5,1.6-3.5,3.5S29.8,16,31.7,16z M31.7,10c1.4,0,2.5,1.1,2.5,2.5
		S33.1,15,31.7,15s-2.5-1.1-2.5-2.5S30.3,10,31.7,10z"/>
	<path d="M51.7,17H22.2v-5.5c0-0.2,0-0.3-0.1-0.5c-0.3,0.3-0.6,0.5-0.9,0.7v5.9c0,0.3,0.2,0.5,0.5,0.5h30c0.8,0,1.5,0.7,1.5,1.5
		S52.5,21,51.7,21h-16c-0.3,0-0.5,0.2-0.5,0.5V31h-7v-9.5c0-0.3-0.2-0.5-0.5-0.5h-8c-0.8,0-1.5-0.7-1.5-1.5v-7.9
		c-0.4-0.2-0.7-0.4-0.9-0.7c0,0.2-0.1,0.3-0.1,0.5v8c0,1.4,1.1,2.5,2.5,2.5h7.5v9.5v1L13.8,45.9c-0.5,0.5-0.7,1.1-0.7,1.8
		s0.3,1.3,0.7,1.8c0.5,0.5,1.1,0.7,1.8,0.7s1.3-0.2,1.8-0.7L30.8,36h1.3l2.2,5.4l-6.9,2.9c-1.3,0.5-1.9,2-1.4,3.3
		c0.5,1.3,2,1.9,3.3,1.4l9.2-3.8c0.6-0.3,1.1-0.7,1.4-1.4c0.3-0.6,0.3-1.3,0-1.9L36.2,33v-1.5V22h15.5c1.4,0,2.5-1.1,2.5-2.5
		S53.1,17,51.7,17z M38.9,42.2c0.2,0.4,0.2,0.8,0,1.1s-0.4,0.7-0.8,0.8L28.9,48c-0.8,0.3-1.6,0-2-0.8c-0.3-0.8,0-1.6,0.8-2l7.4-3.1
		c0.1-0.1,0.2-0.1,0.3-0.3s0.1-0.3,0-0.4l-2.6-6.2c-0.1-0.2-0.3-0.3-0.5-0.3h-1.8c-0.1,0-0.3,0.1-0.4,0.1L16.6,48.7
		c-0.6,0.6-1.5,0.6-2.1,0c-0.3-0.3-0.4-0.7-0.4-1.1c0-0.4,0.2-0.8,0.4-1.1l13.6-13.6c0.1-0.1,0.1-0.2,0.1-0.4V32h7v1.1
		c0,0.1,0,0.1,0,0.2L38.9,42.2z"/>
	<path class="st0" d="M19.7,12c0.5,0,1-0.1,1.5-0.4c0.4-0.2,0.7-0.4,0.9-0.7c0.6-0.6,1.1-1.5,1.1-2.5c0-1.9-1.6-3.5-3.5-3.5
		s-3.5,1.6-3.5,3.5c0,1,0.4,1.9,1.1,2.5c0.3,0.3,0.6,0.5,0.9,0.7C18.7,11.9,19.2,12,19.7,12z M19.7,6c1.4,0,2.5,1.1,2.5,2.5
		c0,0.6-0.2,1.1-0.5,1.5c-0.2,0.3-0.5,0.5-0.7,0.7c-0.4,0.2-0.8,0.3-1.2,0.3s-0.9-0.1-1.2-0.3c-0.3-0.2-0.5-0.4-0.7-0.7
		c-0.3-0.4-0.5-0.9-0.5-1.5C17.2,7.2,18.3,6,19.7,6z"/>
</g>
</svg>
