<?xml version="1.0" encoding="utf-8"?>
<!-- Generator: Adobe Illustrator 25.2.1, SVG Export Plug-In . SVG Version: 6.00 Build 0)  -->
<svg version="1.1" id="Layer_1" xmlns="http://www.w3.org/2000/svg" xmlns:xlink="http://www.w3.org/1999/xlink" x="0px" y="0px"
	 viewBox="0 0 63 63" style="enable-background:new 0 0 63 63;" xml:space="preserve">
<style type="text/css">
	.st0{fill:#EE2B2F;}
</style>
<g id="Judo">
	<path d="M37.9,43.8c-0.7,0.7-1,1.5-1,2.5c0,0.9,0.4,1.8,1,2.5s1.5,1,2.5,1c0.9,0,1.8-0.4,2.5-1c0.7-0.7,1-1.5,1-2.5
		c0-0.9-0.4-1.8-1-2.5C41.6,42.5,39.2,42.5,37.9,43.8z M42.2,48.1c-0.9,0.9-2.6,0.9-3.5,0c-0.5-0.5-0.7-1.1-0.7-1.8
		c0-0.7,0.3-1.3,0.7-1.8s1.1-0.7,1.8-0.7c0.7,0,1.3,0.3,1.8,0.7c0.5,0.5,0.7,1.1,0.7,1.8C42.9,47,42.6,47.6,42.2,48.1z"/>
	<path d="M30.5,20.1c0.9,0,1.8-0.4,2.5-1s1-1.5,1-2.5c0-0.9-0.4-1.8-1-2.5c-1.3-1.3-3.6-1.3-4.9,0c-0.7,0.7-1,1.5-1,2.5
		c0,0.9,0.4,1.8,1,2.5S29.6,20.1,30.5,20.1z M28.7,14.9c0.5-0.5,1.1-0.7,1.8-0.7c0.7,0,1.3,0.3,1.8,0.7S33,16,33,16.6
		c0,0.7-0.3,1.3-0.7,1.8c-0.9,0.9-2.6,0.9-3.5,0c-0.5-0.5-0.7-1.1-0.7-1.8C28,16,28.3,15.3,28.7,14.9z"/>
	<polygon points="17.1,26.5 16.4,27.2 17.1,26.5 	"/>
	<polygon class="st0" points="55.3,35 53.6,33.4 52.2,33.4 54.5,35.7 53.8,36.4 50.8,33.4 49.8,33.4 49.4,33.4 49.6,33.6 53.1,37.1 
		53.5,37.5 53.8,37.8 56,35.7 55.6,35.4 	"/>
	<path d="M19.5,31.8l-2.1-2.1l-1.8-1.8l0,0l-0.3-0.3l0,0l-0.4-0.4l-0.4,0.4c0,0,0,0,0,0s0,0,0,0L13.2,29c-1,1-1,2.5,0,3.5v7.9
		l-6.3,6.3C6,47.6,5.8,49,6.6,50c0.4,0.6,1.1,1,1.8,1c0.1,0,0.1,0,0.2,0c0.7,0,1.3-0.3,1.8-0.7l7.1-7.1c0.5-0.5,0.7-1.1,0.7-1.8v-4
		l2.1,2.1v8.9c0,1.3,0.9,2.4,2.1,2.6c0.1,0,0.3,0,0.4,0c0.6,0,1.2-0.2,1.6-0.6c0.6-0.5,0.9-1.2,0.9-1.9v-10c0-0.7-0.3-1.3-0.7-1.8
		l-4.6-4.6l0,0L19.5,31.8z M24.2,48.5c0,0.4-0.2,0.9-0.5,1.1c-0.3,0.3-0.8,0.4-1.2,0.3c-0.7-0.1-1.3-0.8-1.3-1.6v-9.1
		c0-0.1-0.1-0.3-0.1-0.4l-2.9-2.9l-0.5-0.5l-0.5-0.5l-3-3l-0.3-0.3c-0.1-0.1-0.2-0.2-0.2-0.4c-0.3-0.5-0.2-1.2,0.2-1.7
		c0,0,0,0,0-0.1l1.1-1.1l0.4,0.4l0.5,0.5l1.8,1.8l0.5,0.5l0.1,0.1l0.6,0.6l5,5c0.3,0.3,0.4,0.7,0.4,1.1V48.5z M17.2,41.5
		c0,0.4-0.2,0.8-0.4,1.1l-7.1,7.1c-0.3,0.3-0.8,0.5-1.2,0.4c-0.4,0-0.8-0.3-1.1-0.6c-0.4-0.6-0.3-1.4,0.2-2L14,41
		c0.1-0.1,0.1-0.2,0.1-0.4v-7.1l3,3V41.5z"/>
	<path class="st0" d="M21.7,29.7l-0.4-0.4l-3.5-3.5l-0.4-0.4l-0.4-0.4l0,0l-2.1,2.1l0.4,0.4l0,0l0.3,0.3l0,0l1.8,1.8l2.1,2.1
		l0.4,0.4l0,0l2.1-2.1L21.7,29.7z M17.1,26.5L17.1,26.5l3.5,3.5l-0.7,0.7l-3.5-3.5L17.1,26.5z"/>
	<path d="M54.9,28.4l-5.6-5.6v-8.9c0-1.3-0.9-2.4-2.1-2.6c-0.7-0.1-1.5,0.1-2,0.6c-0.6,0.5-0.9,1.2-0.9,1.9v10
		c0,0.7,0.3,1.3,0.7,1.8l2.8,2.8l-2.9,0l-6.3-6.3c-0.9-0.9-2.3-1-3.3-0.3c-0.6,0.4-1,1.1-1,1.8c-0.1,0.7,0.2,1.4,0.7,2l7.1,7.1
		c0.5,0.5,1.1,0.7,1.8,0.7l4.5,0l-3.7,3.7l-7.4-7.4c0,0,0,0,0,0l-9.9-9.9c0,0,0,0,0,0c0,0,0,0,0,0c-1.4-1.4-3.6-1.4-5,0l-5.3,5.3
		l0.4,0.4l0.4,0.4l5.3-5.3c1-1,2.6-1,3.5,0c0,0,0.1,0.1,0.1,0.1l0,0l1.1,1.1l0.6,0.6l6.8,6.8l0.5,0.5l0.9,0.9l0,0
		c0.3,0.3,0.4,0.7,0.4,1.1c0,0.4-0.2,0.8-0.4,1.1c-0.6,0.6-1.6,0.6-2.1,0c0,0,0,0,0,0l-0.9-0.9L33,31.1l-6-6l-0.4-0.4l-0.4-0.4
		l-1.1-1.1c0,0-0.1,0-0.1-0.1c-0.2-0.1-0.4-0.1-0.6,0.1c-0.2,0.2-0.2,0.5,0,0.7l1.1,1.1l-4.2,4.2l0.4,0.4l0.4,0.4l-2.1,2.1l6.4-6.4
		l7.4,7.4c0,0,0,0,0,0l9.8,9.8c0,0,0,0.1,0.1,0.1c0.7,0.7,1.6,1,2.5,1c0.9,0,1.8-0.3,2.5-1l7.8-7.8c0,0,0,0,0,0
		c0.2-0.2,0.3-0.3,0.4-0.5c0.1-0.2,0.2-0.4,0.3-0.6c0,0,0-0.1,0-0.1c0-0.1,0.1-0.2,0.1-0.3c0-0.1,0.1-0.2,0.1-0.4c0-0.1,0-0.1,0-0.2
		c0-0.2,0-0.3,0-0.5c0,0,0,0,0,0l0-1.9C57.3,29.5,56.2,28.4,54.9,28.4z M45.3,13.8c0-0.4,0.2-0.9,0.5-1.2c0.3-0.2,0.6-0.4,1-0.4
		c0.1,0,0.2,0,0.3,0c0.7,0.1,1.2,0.8,1.2,1.6V23c0,0.1,0.1,0.3,0.1,0.4l5.1,5.1l-4.2,0l-3.5-3.5c-0.3-0.3-0.4-0.7-0.4-1.1V13.8z
		 M53.8,37.8l-0.4-0.4l-0.4-0.4l-5.3,5.3c-1,1-2.5,1-3.5,0c0,0,0,0,0,0l-0.1-0.1c0,0,0,0,0,0l0,0l-1.1-1.1l-0.6-0.6l-6.8-6.8
		c0.5-0.1,1-0.3,1.4-0.7c0.4-0.4,0.6-0.9,0.7-1.4l6,6l0.4,0.4l0.4,0.4l1.1,1.1c0,0,0.1,0,0.1,0.1c0.2,0.1,0.4,0.1,0.6-0.1
		c0.2-0.2,0.2-0.5,0-0.7l-1.1-1.1l4.2-4.2l-0.2-0.2l0.4,0l1,0l1.4,0l1.4,0h0.2c0.1,0,0.1,0,0.2,0c0.1,0,0.1-0.1,0.1-0.1
		c0.1-0.1,0.1-0.2,0.1-0.4c0,0,0,0,0-0.1c0-0.2-0.2-0.4-0.5-0.4l-1.2,0h-0.1l-0.7,0l-0.6,0l-0.4,0h0l-0.7,0l-0.7,0h0l-5.5,0
		c-0.4,0-0.8-0.2-1.1-0.4l-7.1-7.1c-0.3-0.3-0.5-0.7-0.4-1.2c0-0.4,0.3-0.8,0.6-1.1c0.6-0.4,1.4-0.3,2,0.2l6.4,6.4
		c0.1,0.1,0.2,0.1,0.4,0.1l4.1,0l0.7,0h0.7l3.5,0h0.2l0.5,0h0.4c0.1,0,0.3,0,0.4,0.1c0.4,0.1,0.8,0.4,1,0.9c0.1,0.1,0.1,0.3,0.1,0.4
		c0,0.1,0,0.1,0,0.2l0,0.3l0,1.6c0,0,0,0,0,0c0,0.2,0,0.3,0,0.5c0,0,0,0,0,0c0,0.1-0.1,0.3-0.1,0.4c0,0,0,0,0,0.1
		c0,0.1-0.1,0.2-0.2,0.4c0,0,0,0.1,0,0.1c-0.1,0.1-0.2,0.3-0.3,0.4c0,0,0,0,0,0c0,0,0,0,0,0L55.3,35l0.4,0.4l0.4,0.4L53.8,37.8z"/>
</g>
</svg>
