<?xml version="1.0" encoding="utf-8"?>
<!-- Generator: Adobe Illustrator 25.2.1, SVG Export Plug-In . SVG Version: 6.00 Build 0)  -->
<svg version="1.1" id="Layer_1" xmlns="http://www.w3.org/2000/svg" xmlns:xlink="http://www.w3.org/1999/xlink" x="0px" y="0px"
	 viewBox="0 0 63 63" style="enable-background:new 0 0 63 63;" xml:space="preserve">
<style type="text/css">
	.st0{fill:#FCB019;}
	.st1{fill:#2A76BC;}
</style>
<g id="Surfing">
	<path d="M27.5,23c1.9,0,3.5-1.6,3.5-3.5S29.4,16,27.5,16S24,17.6,24,19.5S25.6,23,27.5,23z M27.5,17c1.4,0,2.5,1.1,2.5,2.5
		S28.9,22,27.5,22S25,20.9,25,19.5S26.1,17,27.5,17z"/>
	<path d="M39.5,38H32v-7.5l3.4,3.4c0.9,0.9,2.6,0.9,3.5,0l5.7-5.7c0.5-0.5,0.8-1.2,0.7-2c-0.1-0.7-0.4-1.4-1-1.8
		c-1-0.7-2.4-0.6-3.3,0.3l-3.8,3.8l-3.9-3.9c-0.5-0.5-1.1-0.7-1.8-0.7h-8c-0.7,0-1.3,0.3-1.8,0.7l-4.9,4.9h-7
		c-1.4,0-2.5,1.1-2.5,2.5c0,1.4,1.1,2.5,2.5,2.5h8c0.7,0,1.3-0.3,1.8-0.7l3.4-3.4v6v2v2v1.6c0.2,0.1,0.3,0.1,0.5,0.2
		c0.1,0,0.2,0.1,0.3,0.1c0.1,0,0.1,0,0.2,0.1v-0.6v-1.3V39v-0.5V38v-1.5c0-0.8,0.7-1.5,1.5-1.5s1.5,0.7,1.5,1.5V38v0.5V39v3v0.5V43
		v0.5c0.2,0.1,0.3,0.1,0.5,0.2c0.2,0.1,0.3,0.1,0.5,0.2V43h9v5.3c0.2,0.1,0.3,0.2,0.5,0.3c0.2,0.1,0.3,0.2,0.5,0.3v-6.4
		c0-0.3-0.2-0.5-0.5-0.5H28v-3h3.5h8c0.8,0,1.5,0.7,1.5,1.5v10c0,0.1,0,0.1,0,0.2c0,0,0,0,0,0c0.1,0.1,0.3,0.2,0.4,0.3
		c0.1,0.1,0.3,0.2,0.4,0.3c0.1-0.2,0.1-0.5,0.1-0.8V50v-9.5C42,39.2,40.9,38,39.5,38z M18.9,33.3c-0.3,0.3-0.7,0.4-1.1,0.4h-8
		c-0.8,0-1.5-0.7-1.5-1.5c0-0.8,0.7-1.5,1.5-1.5H17c0.1,0,0.3-0.1,0.4-0.1l5.1-5.1c0.3-0.3,0.7-0.4,1.1-0.4h8c0.4,0,0.8,0.2,1.1,0.4
		l4.2,4.2c0.2,0.2,0.5,0.2,0.7,0l4.2-4.2c0.6-0.6,1.4-0.7,2-0.2c0.4,0.3,0.6,0.7,0.6,1.1c0,0.4-0.1,0.9-0.4,1.2l-5.7,5.7
		c-0.6,0.6-1.5,0.6-2.1,0L31.9,29c-0.1-0.1-0.4-0.2-0.5-0.1C31.1,29,31,29.2,31,29.4V38h-3v-1.5c0-1.4-1.1-2.5-2.5-2.5
		c-0.6,0-1.1,0.2-1.5,0.5v-5.2c0-0.2-0.1-0.4-0.3-0.5c-0.2-0.1-0.4,0-0.5,0.1L18.9,33.3z"/>
	<path class="st0" d="M41,50.8C41,50.8,41,50.8,41,50.8c-1-0.6-2-1.2-3-1.8c-0.2-0.1-0.3-0.2-0.5-0.3c-0.2-0.1-0.3-0.2-0.5-0.3
		c-2.6-1.5-5.3-2.9-8.1-4.1c-0.3-0.1-0.6-0.2-0.9-0.3c-0.2-0.1-0.3-0.1-0.5-0.2c-0.2-0.1-0.3-0.1-0.5-0.2c-0.4-0.2-0.9-0.3-1.3-0.5
		c-0.6-0.2-1.2-0.4-1.7-0.6c-0.1,0-0.1,0-0.2-0.1c-0.1,0-0.2-0.1-0.3-0.1c-0.2-0.1-0.3-0.1-0.5-0.2c-11.7-3.8-17.4-2.1-17.6-2
		c-0.1,0-0.3,0.1-0.3,0.3s0,0.3,0,0.4c0.2,0.3,3.9,7.2,19.6,13.7c0.5,0.2,1,0.4,1.6,0.6h1.3h0.2h1.5c-0.1,0-0.1,0-0.2-0.1
		c-1.4-0.5-2.7-0.9-4-1.5C12.3,48.2,7.6,42.6,6.3,40.9c1.8-0.3,7.3-0.8,16.7,2.3c0.2,0.1,0.3,0.1,0.5,0.2c0.2,0.1,0.3,0.1,0.5,0.2
		c1,0.3,2,0.7,3,1.1c0.2,0.1,0.3,0.1,0.5,0.2c0.2,0.1,0.3,0.1,0.5,0.2c0.2,0.1,0.3,0.1,0.5,0.2c2.9,1.2,5.8,2.7,8.5,4.3
		c0.2,0.1,0.3,0.2,0.5,0.3c0.2,0.1,0.3,0.2,0.5,0.3c0.7,0.4,1.4,0.9,2.1,1.3c0.1,0.1,0.3,0.2,0.4,0.3c0.1,0.1,0.3,0.2,0.4,0.3
		c0,0,0,0,0.1,0c0.1,0.1,0.2,0.2,0.3,0.2c1.2,0.8,2.3,1.6,3.3,2.3c0.2,0,0.4-0.1,0.7-0.2c0.2-0.1,0.4-0.1,0.6-0.2
		c-1.2-0.8-2.6-1.8-4.1-2.8c0,0,0,0,0,0c-0.1-0.1-0.3-0.2-0.4-0.3C41.3,50.9,41.1,50.9,41,50.8z"/>
	<path class="st1" d="M46.4,8h1.1C52.8,8,58,8.9,63,10.6V9.6C58,7.9,52.8,7,47.5,7h-8h-12C21,7,14.8,9.6,10.2,14.2
		c-0.2,0.2-0.2,0.5,0,0.7c0.1,0.1,0.2,0.1,0.4,0.1s0.3,0,0.4-0.1C15.3,10.5,21.2,8,27.5,8C40.5,8,51,18.6,51,31.5
		c0,7.5-3.5,14.2-9,18.5v0.5c0,0.3-0.1,0.5-0.1,0.8c0,0,0,0,0,0C48,46.9,52,39.7,52,31.5C52,20.4,44.6,11,34.4,8h5.1
		C52.5,8,63,18.6,63,31.5v-6.9C60.7,16.7,54.4,10.4,46.4,8z"/>
	<path class="st1" d="M46,54.1c-0.2,0.1-0.4,0.1-0.6,0.2c-0.2,0.1-0.4,0.1-0.7,0.2C43,54.8,41.3,55,39.5,55h-5.1h-5.2h-1.5h-0.2
		h-1.3H0v0.5V56h27.5H29h1.6h1.8h7c0.6,0,1.2,0,1.9-0.1c0.1,0,0.2,0,0.4,0c0.6-0.1,1.2-0.1,1.7-0.2c0.1,0,0.2,0,0.3-0.1
		c0.6-0.1,1.1-0.2,1.7-0.3c0,0,0.1,0,0.1,0c0.1,0,0.1,0,0.2-0.1c0.2-0.1,0.4-0.1,0.6-0.2c0.2-0.1,0.4-0.1,0.6-0.2
		c0.1,0,0.2-0.1,0.3-0.1c0.1,0,0.2-0.1,0.3-0.1c0.5-0.2,1.1-0.4,1.6-0.6c0.1,0,0.2-0.1,0.3-0.1c0.5-0.2,1-0.4,1.4-0.7
		c0.1,0,0.1-0.1,0.2-0.1c0.5-0.3,1-0.6,1.5-0.9c0.1-0.1,0.2-0.1,0.3-0.2c0.5-0.3,0.9-0.6,1.4-1c0.1,0,0.1-0.1,0.2-0.1
		c0.4-0.3,0.8-0.7,1.2-1c0.1-0.1,0.1-0.1,0.2-0.2c0.4-0.4,0.8-0.8,1.2-1.2c0.1-0.1,0.2-0.2,0.3-0.3c0.4-0.4,0.8-0.8,1.1-1.3
		c0,0,0.1-0.1,0.1-0.1c0.3-0.4,0.7-0.8,1-1.3c0.1-0.1,0.1-0.2,0.2-0.3c0.3-0.5,0.6-0.9,0.9-1.4c0.1-0.1,0.1-0.2,0.2-0.3
		c0.3-0.5,0.6-1,0.8-1.5c0,0,0,0,0,0c0.2-0.5,0.5-1,0.7-1.6c0-0.1,0.1-0.2,0.1-0.3c0.2-0.5,0.4-1.1,0.6-1.6c0,0,0-0.1,0-0.1v0v-2
		v-4.9C63,42.3,55.8,51.3,46,54.1z"/>
</g>
</svg>
