<?xml version="1.0" encoding="utf-8"?>
<!-- Generator: Adobe Illustrator 25.2.1, SVG Export Plug-In . SVG Version: 6.00 Build 0)  -->
<svg version="1.1" id="Layer_1" xmlns="http://www.w3.org/2000/svg" xmlns:xlink="http://www.w3.org/1999/xlink" x="0px" y="0px"
	 viewBox="0 0 63 63" style="enable-background:new 0 0 63 63;" xml:space="preserve">
<style type="text/css">
	.st0{fill:#00A64F;}
	.st1{fill:#FCB019;}
	.st2{fill:#EE2B2F;}
</style>
<g id="Table_tennis">
	<path d="M44,32h-0.3h-0.4l-0.1,0.1l-3,3l-0.5,0.5l-0.5,0.5l-2.9,2.9c-0.1,0.1-0.1,0.2-0.1,0.4v9.1c0,0.8-0.5,1.5-1.3,1.6
		c-0.5,0.1-0.9-0.1-1.2-0.3c-0.3-0.3-0.5-0.7-0.5-1.1v-10c0-0.4,0.2-0.8,0.4-1.1l4.9-4.9c0,0,0,0,0,0l0.6-0.6h0h-0.7h0H38h-0.3h-0.4
		l0.2,0.2l-4.6,4.6c-0.5,0.5-0.7,1.1-0.7,1.8v10c0,0.7,0.3,1.4,0.9,1.9c0.5,0.4,1,0.6,1.6,0.6c0.1,0,0.3,0,0.4,0
		c1.2-0.2,2.1-1.3,2.1-2.6v-8.9l2.1-2.1v4c0,0.7,0.3,1.3,0.7,1.8l7.1,7.1c0.5,0.5,1.1,0.7,1.8,0.7c0.1,0,0.1,0,0.2,0
		c0.7-0.1,1.4-0.4,1.8-1c0.7-1,0.6-2.4-0.3-3.3l-6.3-6.3v-7.9c0.2-0.2,0.3-0.3,0.4-0.5h-0.4H44z M48.9,50.1c-0.4,0-0.9-0.1-1.2-0.4
		l-7.1-7.1c-0.3-0.3-0.4-0.7-0.4-1.1v-5l3-3v7.1c0,0.1,0.1,0.3,0.1,0.4l6.4,6.4c0.6,0.6,0.7,1.4,0.2,2
		C49.7,49.8,49.4,50.1,48.9,50.1z"/>
	<path d="M30.5,17.8c1.9,0,3.5-1.6,3.5-3.5s-1.6-3.5-3.5-3.5S27,12.4,27,14.3S28.6,17.8,30.5,17.8z M30.5,11.8
		c1.4,0,2.5,1.1,2.5,2.5s-1.1,2.5-2.5,2.5S28,15.7,28,14.3S29.2,11.8,30.5,11.8z"/>
	<path d="M37.7,31l-5.9-5.9l1.1-1.1C33,24,33,23.9,33,23.8c0-0.1,0-0.3-0.1-0.4c-0.2-0.2-0.4-0.2-0.6-0.1c0,0-0.1,0-0.1,0.1
		l-0.4,0.4l-0.6,0.6l-0.4,0.4l-0.4,0.4l-3.2,3.2c-0.3,0.3-0.7,0.4-1.1,0.4l-8,0c-0.4,0-0.9-0.2-1.1-0.5c-0.3-0.3-0.4-0.8-0.3-1.2
		c0.1-0.7,0.8-1.2,1.6-1.2h7.1c0.1,0,0.3-0.1,0.4-0.1l1.8-1.8l1-1l0.5-0.5l0.6-0.6l1.1-1.1l0,0c0,0,0.1-0.1,0.1-0.1
		c0.6-0.6,1.4-0.8,2.2-0.7c0.5,0.1,1,0.3,1.4,0.7l0.7,0.7l6.7,6.7l-3,3h0.6h0.1h0h0.4h0.3h0l1.5-1.5l0.5-0.5l0.4-0.4l1.1,1.1
		c0,0,0,0,0,0.1c0.3,0.3,0.4,0.8,0.4,1.2h0.3h0.2h0.5c0.1-0.7-0.2-1.4-0.7-2l-1.4-1.4c0,0,0,0,0,0L35,19.9c-0.5-0.5-1.2-0.8-1.8-0.9
		c-0.2-0.1-0.4-0.1-0.6-0.1h-7L21,14.3l0,0c-0.1-0.1-0.2-0.2-0.3-0.4c0,0,0,0,0,0c-0.1-0.1-0.3-0.2-0.4-0.3c-0.6-0.4-1.3-0.5-2-0.3
		c0,0-0.1,0-0.1,0c-0.1,0-0.2,0.1-0.3,0.1c-0.1,0-0.2,0.1-0.3,0.1c0,0-0.1,0.1-0.1,0.1c0,0,0,0,0,0c0,0-0.1,0.1-0.1,0.1
		c-0.1,0.1-0.1,0.1-0.2,0.2c0,0,0,0,0,0.1c0,0.1-0.1,0.1-0.1,0.2c-0.1,0.1-0.1,0.2-0.2,0.3c0,0.1-0.1,0.1-0.1,0.2
		c0,0.1-0.1,0.2-0.1,0.3c0,0.1,0,0.1-0.1,0.2c0,0.1,0,0.2-0.1,0.3c0,0,0,0.1,0,0.1c0,0,0,0.1,0,0.1c0,0.1,0,0.2,0,0.3
		c0,0.1,0,0.1,0,0.2c0,0.1,0,0.2,0.1,0.3c0,0.1,0,0.1,0.1,0.2c0,0.1,0.1,0.2,0.2,0.3c0,0,0,0.1,0.1,0.1c0.1,0.1,0.2,0.3,0.3,0.4
		c0,0,0,0,0,0l5.7,5.7c0.5,0.5,1.1,0.7,1.8,0.7h1.5l-0.9,0.9h-6.9c-1.3,0-2.4,0.9-2.6,2.1c-0.1,0.7,0.1,1.5,0.6,2
		c0.5,0.6,1.2,0.9,1.9,0.9l8,0c0.7,0,1.3-0.3,1.8-0.7l3.2-3.2l5.2,5.2H37H37.7z M17.8,16.8C17.8,16.8,17.8,16.8,17.8,16.8
		C17.8,16.8,17.8,16.8,17.8,16.8c-0.1-0.1-0.2-0.3-0.3-0.5c0,0,0,0,0-0.1c-0.1-0.2-0.1-0.3-0.1-0.5c0,0,0-0.1,0-0.1
		c0-0.2,0-0.3,0.1-0.5c0,0,0,0,0-0.1c0.1-0.2,0.2-0.3,0.3-0.4c0,0,0,0,0,0c0,0,0.1-0.1,0.1-0.1c0,0,0.1-0.1,0.1-0.1
		c0.1-0.1,0.2-0.1,0.4-0.2c0,0,0,0,0,0c0.1,0,0.3-0.1,0.5-0.1c0.2,0,0.4,0.1,0.6,0.1c0.2,0.1,0.3,0.2,0.4,0.3c0,0,0,0,0,0
		c0.1,0.1,0.2,0.3,0.3,0.4c0.3,0.6,0.2,1.2-0.3,1.7C19.4,17.3,18.4,17.3,17.8,16.8z M24.5,22.8c-0.4,0-0.8-0.2-1.1-0.4l-4.3-4.3
		c0.5-0.1,1-0.3,1.4-0.7c0.4-0.4,0.6-0.9,0.7-1.4l3.7,3.7c0.1,0.1,0.2,0.1,0.4,0.1h4.7c0,0,0,0,0,0l-3,3H24.5z"/>
	<path class="st0" d="M55.7,31H44.9h-0.5h-0.2h-0.3h-0.2h-0.5h-2.8h-0.2h0h-0.3h-0.4h0h-0.1h-0.6h0h-1H37h-0.7H7.7
		c-0.3,0-0.5,0.2-0.5,0.5S7.4,32,7.7,32h29.6h0.4H38h0.4h0h0.7h0h0.1h0.5h0.5h3h0.1h0.4H44h0.2h0.4h11.1c0.3,0,0.5-0.2,0.5-0.5
		S56,31,55.7,31z"/>
	<path class="st1" d="M19.7,22.3c0-0.8-0.7-1.5-1.5-1.5s-1.5,0.7-1.5,1.5s0.7,1.5,1.5,1.5S19.7,23.1,19.7,22.3z M17.7,22.3
		c0-0.3,0.2-0.5,0.5-0.5s0.5,0.2,0.5,0.5s-0.2,0.5-0.5,0.5S17.7,22.6,17.7,22.3z"/>
	<path class="st2" d="M20.7,14c0.1,0.1,0.2,0.2,0.3,0.4l0,0l0.7-0.7c0.6,0.5,1.3,0.7,2.1,0.7c0.9,0,1.8-0.3,2.5-1
		c0.7-0.7,1-1.5,1-2.5c0-0.9-0.4-1.8-1-2.5c-1.4-1.4-3.6-1.4-4.9,0c-0.7,0.7-1,1.5-1,2.5c0,0.8,0.3,1.5,0.7,2.1l-0.8,0.8
		C20.4,13.7,20.5,13.8,20.7,14C20.7,13.9,20.7,13.9,20.7,14z M22.1,9c0.5-0.5,1.1-0.7,1.8-0.7s1.3,0.2,1.8,0.7
		c0.5,0.5,0.7,1.1,0.7,1.8c0,0.7-0.3,1.3-0.7,1.8c-1,1-2.6,1-3.5,0c-0.5-0.5-0.7-1.1-0.7-1.8C21.3,10.1,21.6,9.4,22.1,9z"/>
</g>
</svg>
