<?xml version="1.0" encoding="utf-8"?>
<!-- Generator: Adobe Illustrator 25.2.1, SVG Export Plug-In . SVG Version: 6.00 Build 0)  -->
<svg version="1.1" id="Layer_1" xmlns="http://www.w3.org/2000/svg" xmlns:xlink="http://www.w3.org/1999/xlink" x="0px" y="0px"
	 viewBox="0 0 63 63" style="enable-background:new 0 0 63 63;" xml:space="preserve">
<style type="text/css">
	.st0{fill:#00A64F;}
</style>
<g id="Trampoline">
	<path class="st0" d="M8,52.7l-8-1.6v1l7.8,1.6c7.9,1.6,15.8,2.3,23.7,2.3c7.9,0,15.8-0.8,23.7-2.3l7.8-1.6v-1l-8,1.6
		C39.4,55.8,23.6,55.8,8,52.7z"/>
	<path d="M40.5,7h-21C18.1,7,17,8.2,17,9.5c0,1.4,1.1,2.5,2.5,2.5H25c0,0.6,0.3,1.2,0.7,1.7L37,25c0.1,0.1,0.2,0.2,0.3,0.3
		c0,0,0.1,0.1,0.1,0.1c0.2,0.1,0.4,0.3,0.7,0.4c0,0,0,0,0,0c0.2,0.1,0.4,0.1,0.6,0.2c0,0,0.1,0,0.1,0c0.2,0,0.5,0.1,0.7,0.1
		c1.9,0,3.5-1.6,3.5-3.5v-11c0,0,0,0,0,0s0,0,0,0v-2C43,8.2,41.9,7,40.5,7z M42,22.5c0,1.4-1.1,2.5-2.5,2.5c0,0-0.1,0-0.1,0l0,0
		c-0.1,0-0.3,0-0.4,0c0,0,0,0-0.1,0c-0.1,0-0.3-0.1-0.4-0.1c0,0,0,0,0,0c-0.1-0.1-0.2-0.1-0.4-0.2c0,0-0.1-0.1-0.1-0.1
		c-0.1-0.1-0.1-0.1-0.2-0.2c0,0-0.1,0-0.1-0.1l-1.2-1.2L36,22.6L26.4,13c-0.3-0.3-0.4-0.6-0.4-1c0-0.2,0-0.3,0.1-0.5
		c0-0.2,0.1-0.3,0.3-0.5c0-0.1,0.1-0.1,0.1-0.2c0.6-0.6,1.5-0.6,2.1,0l0.2,0.2l0.5,0.5l0.5,0.5l6.3,6.3l0.5,0.5l0.5,0.5l0.7,0.7
		c0.1,0.1,0.3,0.2,0.5,0.1c0.1,0,0.2-0.1,0.2-0.1c0.2-0.2,0.2-0.5,0-0.7L37,17.9V12v0h2.3H42V22.5z M31.1,12H36v4.9L31.1,12z M42,11
		l-11.9,0l-0.9-0.9c-1-1-2.6-1-3.5,0c-0.3,0.3-0.4,0.6-0.6,0.9l-5.7,0c-0.8,0-1.5-0.7-1.5-1.5C18,8.7,18.7,8,19.5,8h21
		C41.3,8,42,8.7,42,9.5V11z"/>
	<path d="M31.4,25.7c-0.7,0.7-1,1.5-1,2.5c0,0.9,0.4,1.8,1,2.5s1.5,1,2.5,1c0.9,0,1.8-0.4,2.5-1s1-1.5,1-2.5c0-0.9-0.4-1.8-1-2.5
		C35,24.4,32.7,24.4,31.4,25.7z M35.6,30c-0.9,0.9-2.6,0.9-3.5,0c-0.5-0.5-0.7-1.1-0.7-1.8c0-0.7,0.3-1.3,0.7-1.8
		c0.5-0.5,1.1-0.7,1.8-0.7s1.3,0.2,1.8,0.7c0.5,0.5,0.7,1.1,0.7,1.8C36.3,28.9,36.1,29.5,35.6,30z"/>
</g>
</svg>
