<?xml version="1.0" encoding="utf-8"?>
<!-- Generator: Adobe Illustrator 25.2.1, SVG Export Plug-In . SVG Version: 6.00 Build 0)  -->
<svg version="1.1" id="Layer_1" xmlns="http://www.w3.org/2000/svg" xmlns:xlink="http://www.w3.org/1999/xlink" x="0px" y="0px"
	 viewBox="0 0 63 63" style="enable-background:new 0 0 63 63;" xml:space="preserve">
<style type="text/css">
	.st0{fill:#FCB019;}
	.st1{fill:#2A76BC;}
</style>
<g id="Triathlon">
	<path d="M11.3,42.5c0,0.7,0.3,1.3,0.7,1.8c0.5,0.5,1.1,0.7,1.8,0.7c0.7,0,1.3-0.3,1.8-0.7l8.9-8.9c-0.1-0.2-0.1-0.3-0.2-0.5
		c-0.1-0.2-0.1-0.3-0.2-0.5l-9.2,9.2c-0.6,0.6-1.6,0.6-2.1,0c-0.3-0.3-0.4-0.7-0.4-1.1c0-0.4,0.2-0.8,0.4-1.1l9.5-9.5
		c-0.1-0.1-0.2-0.2-0.4-0.3s-0.2-0.2-0.4-0.3l-9.5,9.5C11.6,41.2,11.3,41.9,11.3,42.5z"/>
	<path d="M23,31.2l2.2-2.2c0.1,0.1,0.2,0.3,0.3,0.4l1.8,1.8l-2.5,2.5c0.1,0.2,0.2,0.3,0.2,0.5c0.1,0.2,0.1,0.3,0.2,0.5l2.7-2.7
		l3.5,3.5l-5.3,5.3c-0.5,0.5-0.7,1.1-0.7,1.8s0.3,1.3,0.7,1.8c0.5,0.5,1.1,0.7,1.8,0.7c0.7,0,1.3-0.3,1.8-0.7L35,39l1-1l0.8-0.8
		c0.9-0.9,1-2.2,0.3-3.2c-0.1-0.1-0.2-0.3-0.3-0.4l-0.4-0.4l-4.2-4.2l6.4-6.4l3.2,3.2c0.5,0.5,1.1,0.7,1.8,0.7c0,0,0,0,0,0
		c0.7,0,1.3-0.3,1.8-0.7l5.7-5.7c1-1,1-2.6,0-3.5c-1-1-2.6-1-3.5,0l-3.9,3.9l-3.9-3.9c0,0,0,0,0,0L34,11.1c-0.9-0.9-2.6-0.9-3.5,0
		l-5.7,5.7c-1,1-1,2.6,0,3.5c0.5,0.5,1.1,0.7,1.8,0.7c0,0,0,0,0,0c0.7,0,1.3-0.3,1.8-0.7l3.9-3.9l1.4,1.4l-6.7,6.7l-1.4,1.4
		c-0.6,0.6-0.8,1.4-0.7,2.1l-2.5,2.5c0.1,0.1,0.2,0.2,0.4,0.3S22.9,31.1,23,31.2z M31.9,15.3l-4.3,4.2C27.3,19.8,27,20,26.6,20h0
		c-0.4,0-0.8-0.2-1.1-0.4c-0.6-0.6-0.6-1.5,0-2.1l5.7-5.7c0.6-0.6,1.6-0.6,2.1,0l4,4c-0.9,0-1.9,0.3-2.6,1l-0.3,0.3l-1.8-1.8
		C32.4,15.1,32.1,15.1,31.9,15.3z M34.7,18.1l0.4-0.4l0.3-0.3c0.9-0.9,2.6-0.9,3.5,0l0,0c0,0,0.1,0.1,0.1,0.1l0,0l1.1,1.1l0.6,0.6
		l2.5,2.5c0.2,0.2,0.5,0.2,0.7,0l4.2-4.2c0.6-0.6,1.5-0.6,2.1,0c0.6,0.6,0.6,1.5,0,2.1l-5.7,5.7c-0.3,0.3-0.7,0.4-1.1,0.4
		c0,0,0,0,0,0c-0.4,0-0.8-0.2-1.1-0.4L39.3,22l-0.4-0.4l-0.4-0.4l-1.1-1.1c0,0-0.1,0-0.1-0.1c-0.2-0.1-0.4-0.1-0.6,0.1
		c-0.2,0.2-0.2,0.5,0,0.7l1.1,1.1l-6.4,6.4l-1.8-1.8L28,24.9l6.4-6.4L34.7,18.1z M26.2,26.6l1.1-1.1l0.4,0.4l0.5,0.5l0.9,0.9
		l0.9,0.9l0.5,0.5l0.7,0.7l4.8,4.8l0.2,0.2c0.3,0.3,0.4,0.7,0.4,1c0,0.3-0.1,0.5-0.2,0.8c-0.1,0.1-0.1,0.2-0.2,0.3l-1,1l-6,6
		c-0.6,0.6-1.6,0.6-2.1,0c-0.3-0.3-0.4-0.7-0.4-1.1c0-0.4,0.2-0.8,0.4-1.1l5.7-5.7c0.2-0.2,0.2-0.5,0-0.7l-3.9-3.9l-0.4-0.4L28,30.5
		l-1.8-1.8c-0.1-0.1-0.2-0.3-0.3-0.4c-0.1-0.2-0.1-0.4-0.1-0.6C25.8,27.3,25.9,26.9,26.2,26.6C26.2,26.6,26.2,26.6,26.2,26.6z"/>
	<path class="st0" d="M37.1,34.1c1.6-3,4.8-5,8.4-5c5.2,0,9.5,4.3,9.5,9.5S50.7,48,45.5,48S36,43.8,36,38.5c0-0.2,0-0.4,0-0.5l-1,1
		c0.2,5.6,4.8,10,10.5,10C51.3,49,56,44.3,56,38.5S51.3,28,45.5,28c-3.9,0-7.3,2.1-9.1,5.3l0.4,0.4C36.9,33.8,37,33.9,37.1,34.1z"/>
	<path class="st1" d="M62.3,53.9c-1.5,1.4-4.2,1.4-5.7,0l-0.8-0.8c-0.2-0.2-0.5-0.2-0.7,0l-0.8,0.8c-1.6,1.5-4.1,1.5-5.7,0l-0.8-0.8
		c-0.2-0.2-0.5-0.2-0.7,0l-0.8,0.8c-1.6,1.5-4.1,1.5-5.7,0l-0.8-0.8c-0.2-0.2-0.5-0.2-0.7,0l-0.8,0.8c-1.6,1.5-4.1,1.5-5.7,0
		l-0.8-0.8c-0.2-0.2-0.5-0.2-0.7,0l-0.8,0.8c-1.6,1.5-4.1,1.5-5.7,0l-0.8-0.8c-0.2-0.2-0.5-0.2-0.7,0l-0.8,0.8
		c-1.6,1.5-4.1,1.5-5.7,0l-0.8-0.8c-0.2-0.2-0.5-0.2-0.7,0l-0.8,0.8c-1.6,1.5-4.1,1.5-5.7,0l-0.8-0.8c-0.2-0.2-0.5-0.2-0.7,0
		l-0.8,0.8c-1.6,1.5-4.1,1.5-5.7,0L0,53.3v1.4c1.9,1.8,5.1,1.8,7,0l0.5-0.4L8,54.7c1.9,1.8,5.1,1.8,7,0l0.5-0.4l0.5,0.4
		c1.9,1.8,5.1,1.8,7,0l0.5-0.4l0.5,0.4c1.9,1.8,5.1,1.8,7,0l0.5-0.4l0.5,0.4c1.9,1.8,5.1,1.8,7,0l0.5-0.4l0.5,0.4
		c1.9,1.8,5.1,1.8,7,0l0.5-0.4l0.5,0.4c1.9,1.8,5.1,1.8,7,0l0.5-0.4l0.5,0.4c0.9,0.9,2.2,1.4,3.5,1.4c1.3,0,2.6-0.5,3.5-1.4v-1.4
		L62.3,53.9z"/>
	<path class="st0" d="M15.5,49C21.3,49,26,44.3,26,38.5c0-1.4-0.3-2.7-0.8-3.9c-0.1-0.2-0.1-0.3-0.2-0.5c-0.1-0.2-0.1-0.3-0.2-0.5
		c-0.5-0.9-1.1-1.7-1.8-2.5c-0.1-0.1-0.2-0.2-0.4-0.3s-0.2-0.2-0.4-0.3C20.5,29,18.1,28,15.5,28C9.7,28,5,32.7,5,38.5
		S9.7,49,15.5,49z M15.5,29c2.3,0,4.4,0.8,6.1,2.2c0.1,0.1,0.2,0.2,0.4,0.3s0.2,0.2,0.4,0.3c0.7,0.7,1.3,1.6,1.7,2.5
		c0.1,0.2,0.2,0.3,0.2,0.5c0.1,0.2,0.1,0.3,0.2,0.5c0.3,1,0.5,2,0.5,3.1c0,5.2-4.3,9.5-9.5,9.5S6,43.8,6,38.5S10.3,29,15.5,29z"/>
	<path d="M42.8,17c0.9,0,1.8-0.3,2.5-1c1.4-1.4,1.4-3.6,0-4.9s-3.6-1.4-5,0c-0.7,0.7-1,1.5-1,2.5c0,0.9,0.4,1.8,1,2.5
		C41,16.7,41.9,17,42.8,17z M42.8,11c0.6,0,1.3,0.2,1.8,0.7c1,1,1,2.6,0,3.5c-1,1-2.6,1-3.5,0c-0.5-0.5-0.7-1.1-0.7-1.8
		c0-0.7,0.3-1.3,0.7-1.8C41.5,11.3,42.2,11,42.8,11z"/>
</g>
</svg>
