<?xml version="1.0" encoding="utf-8"?>
<!-- Generator: Adobe Illustrator 25.2.1, SVG Export Plug-In . SVG Version: 6.00 Build 0)  -->
<svg version="1.1" id="Layer_1" xmlns="http://www.w3.org/2000/svg" xmlns:xlink="http://www.w3.org/1999/xlink" x="0px" y="0px"
	 viewBox="0 0 63 63" style="enable-background:new 0 0 63 63;" xml:space="preserve">
<style type="text/css">
	.st0{fill:none;}
	.st1{fill:#FCB019;}
	.st2{fill:#00A64F;}
</style>
<g id="Canoe_slalom">
	<path class="st0" d="M53.4,33.9l3.9-3.9l-2.1-2.1l-3.9,3.9c-0.3,0.3-0.4,0.7-0.4,1.1s0.2,0.8,0.4,1.1
		C51.9,34.5,52.8,34.5,53.4,33.9z"/>
	<path class="st0" d="M43.8,37.9l-5.2,0h0c-0.1,0-0.3-0.1-0.4-0.1l-3.4-3.4c0,0,0,0,0,0l0,4.2l1.8,1.8c0.3,0.3,0.7,0.4,1.1,0.4
		l5.8,0l0.1-0.1C43.1,39.9,43.2,38.7,43.8,37.9z"/>
	<path class="st0" d="M37.8,41.9c-0.7,0-1.3-0.3-1.8-0.7l-1.1-1.1l0,1.4l4.1,4.1l3.6-3.6L37.8,41.9z"/>
	<path class="st0" d="M38.9,30.5c0.5-0.5,0.7-1.1,0.7-1.8c0-0.7-0.3-1.3-0.7-1.8s-1.1-0.7-1.8-0.7c-0.7,0-1.3,0.3-1.8,0.7
		c-1,1-1,2.6,0,3.5C36.3,31.5,37.9,31.5,38.9,30.5z"/>
	<path class="st0" d="M30.7,44.2c-0.5-0.5-0.7-1.1-0.7-1.8l0-1.6l-2.4,2.4l3.8,1.6L30.7,44.2z"/>
	<path class="st0" d="M39,46.9l-0.7-0.7L34.1,42c-0.1-0.1-0.1-0.2-0.1-0.4l0-2.6l0-0.7l0-0.7l0-0.8l0-0.8l0-1.7
		c0-0.6-0.2-1.2-0.7-1.7c0,0,0,0,0-0.1c0,0,0,0,0,0c-0.5-0.5-1.2-0.7-1.9-0.7c-0.4,0-0.8,0.2-1.2,0.4c-0.1,0.1-0.3,0.2-0.4,0.3
		l-7.8,7.8c-0.1,0.1-0.2,0.2-0.3,0.4l5,2.1l3.4-3.4l0-3c0-0.3,0.2-0.5,0.5-0.5h0c0.1,0,0.2,0,0.3,0.1c0.1,0.1,0.2,0.2,0.2,0.4l0,2
		l0,0.7l0,0.7l0,2.5c0,0.4,0.2,0.8,0.4,1.1l2.3,2.3l1.8,1.8l0.6,0.6l0.7,0.7l0.2,0.2c0.6,0.6,1.5,0.6,2.1,0c0,0,0,0,0,0
		c0.2-0.2,0.4-0.6,0.4-0.9c0-0.1,0-0.1,0-0.2c0-0.4-0.2-0.8-0.4-1.1L39,46.9z"/>
	<path class="st0" d="M44.7,40.4c0.1,0.1,0.3,0.2,0.4,0.3c0.4,0.2,0.8,0.2,1.2,0c0,0,0,0,0,0c0.4-0.2,0.7-0.4,0.8-0.8c0,0,0,0,0,0
		c0.1-0.4,0.1-0.8,0-1.1c0,0,0,0,0,0c0,0,0,0,0-0.1c0,0,0-0.1,0-0.1c-0.1-0.2-0.3-0.4-0.6-0.6c0,0-0.1,0-0.1,0c0,0,0,0-0.1,0
		c0,0,0,0,0,0c-0.2-0.1-0.4-0.1-0.6-0.1c-0.4,0-0.8,0.1-1.1,0.4c-0.5,0.5-0.5,1.1-0.3,1.7C44.5,40.2,44.6,40.3,44.7,40.4z"/>
	<path d="M37.1,32.3c0.9,0,1.8-0.3,2.5-1c0.7-0.7,1-1.5,1-2.5c0-0.9-0.4-1.8-1-2.5c-1.3-1.3-3.6-1.3-4.9,0c-1.4,1.4-1.4,3.6,0,4.9
		C35.3,31.9,36.2,32.3,37.1,32.3z M35.3,27c0.5-0.5,1.1-0.7,1.8-0.7c0.7,0,1.3,0.3,1.8,0.7s0.7,1.1,0.7,1.8c0,0.7-0.3,1.3-0.7,1.8
		c-1,1-2.6,1-3.5,0C34.4,29.6,34.4,28,35.3,27z"/>
	<path class="st1" d="M40.5,48.7c-0.1,0.3-0.2,0.6-0.4,0.9L63,59V58L40.5,48.7z"/>
	<polygon class="st1" points="27.6,43.3 27.1,43.1 21.1,40.6 20.7,40.4 0,31.9 0,33 33.1,46.7 31.3,44.8 	"/>
	<path class="st2" d="M47.6,37.6C47.6,37.6,47.6,37.6,47.6,37.6C47.6,37.6,47.6,37.6,47.6,37.6c0.1,0.1,0.2,0.3,0.3,0.4c0,0,0,0,0,0
		l3.1-3.1c0.4,0.3,0.9,0.4,1.4,0.4c0.7,0,1.3-0.3,1.8-0.7l4.2-4.2c0.2-0.2,0.2-0.5,0-0.7l-2.8-2.8c-0.2-0.2-0.5-0.2-0.7,0l-4.2,4.2
		c-0.5,0.5-0.7,1.1-0.7,1.8c0,0.5,0.1,1,0.4,1.4l-3.1,3.1c0,0,0,0,0,0C47.3,37.4,47.4,37.5,47.6,37.6z M51.3,31.8l3.9-3.9l2.1,2.1
		l-3.9,3.9c-0.6,0.6-1.6,0.6-2.1,0c-0.3-0.3-0.4-0.7-0.4-1.1S51,32.1,51.3,31.8z"/>
	<path class="st2" d="M31.1,53.4c0.1,0,0.2,0.1,0.3,0.2c0.2,0.1,0.5,0.2,0.7,0.2l4-4L35.5,49L31.1,53.4z"/>
	<path class="st2" d="M44.3,41.4c-0.1-0.1-0.2-0.1-0.3-0.2c-0.1-0.1-0.1-0.2-0.2-0.3c0,0-0.1-0.1-0.1-0.1l-0.1,0.1l-0.5,0.5
		l-0.5,0.5L39,45.5l0.7,0.7l4.3-4.3l0.4-0.4C44.4,41.4,44.4,41.4,44.3,41.4z"/>
	<path d="M40.6,48.1c0-0.7-0.3-1.3-0.7-1.8l-0.2-0.2L39,45.5l-4.1-4.1l0-1.4l1.1,1.1c0.5,0.5,1.1,0.7,1.8,0.7l4.8,0l0.5-0.5l0.5-0.5
		l-5.8,0c-0.4,0-0.8-0.2-1.1-0.4l-1.8-1.8l0-4.2c0,0,0,0,0,0l3.4,3.4c0.1,0.1,0.2,0.1,0.4,0.1h0l5.2,0c-0.6,0.8-0.7,2-0.1,2.9
		c0,0,0.1,0.1,0.1,0.1c0.1,0.1,0.1,0.2,0.2,0.3c0.1,0.1,0.2,0.2,0.3,0.2c0,0,0.1,0.1,0.1,0.1L44,41.9l1.8,0c0.2,0,0.3,0,0.4,0
		c0,0,0,0,0,0c0.1,0,0.2-0.1,0.3-0.1c0,0,0.1,0,0.1,0c0.1,0,0.2-0.1,0.3-0.2c0,0,0.1,0,0.1-0.1c0.1-0.1,0.3-0.2,0.4-0.3
		s0.2-0.2,0.3-0.4c0,0,0.1-0.1,0.1-0.1c0.1-0.1,0.1-0.2,0.2-0.3c0,0,0-0.1,0-0.1c0-0.1,0.1-0.2,0.1-0.3c0,0,0,0,0,0
		c0-0.1,0-0.3,0-0.4c0-0.1,0-0.3,0-0.4c0,0,0,0,0,0c0-0.1-0.1-0.2-0.1-0.3c0,0,0-0.1,0-0.1c0-0.1-0.1-0.2-0.1-0.3c0,0,0-0.1-0.1-0.1
		c0,0,0,0,0,0c-0.1-0.1-0.2-0.3-0.3-0.4c0,0,0,0,0,0s0,0,0,0c-0.1-0.1-0.2-0.2-0.4-0.3c0,0,0,0,0,0c0,0-0.1-0.1-0.1-0.1
		c-0.1-0.1-0.2-0.1-0.3-0.1c0,0-0.1,0-0.1,0c-0.1,0-0.2-0.1-0.3-0.1c0,0,0,0,0,0c-0.1,0-0.3,0-0.4,0l-7,0L33.9,32
		c-0.1-0.1-0.3-0.2-0.4-0.3c-1.4-1-3.3-0.9-4.6,0.3l-7.8,7.8c-0.2,0.2-0.4,0.4-0.5,0.7l0.5,0.2l5.9,2.5l0.5,0.2l2.4-2.4l0,1.6
		c0,0.7,0.3,1.3,0.7,1.8l0.6,0.6l1.8,1.8l2.3,2.3l0.7,0.7l0.2,0.2c0.5,0.5,1.1,0.7,1.8,0.7s1.3-0.2,1.8-0.7c0.1-0.1,0.2-0.2,0.2-0.3
		c0.2-0.3,0.3-0.6,0.4-0.9C40.6,48.5,40.6,48.3,40.6,48.1z M44.7,38.3c0.3-0.3,0.7-0.4,1.1-0.4c0.2,0,0.4,0,0.6,0.1c0,0,0,0,0,0
		c0,0,0,0,0.1,0c0,0,0.1,0,0.1,0c0.2,0.1,0.4,0.3,0.6,0.6c0,0,0,0.1,0,0.1c0,0,0,0,0,0.1c0,0,0,0,0,0c0.1,0.4,0.1,0.8,0,1.1
		c0,0,0,0,0,0c-0.2,0.4-0.5,0.7-0.8,0.8c0,0,0,0,0,0c-0.4,0.2-0.8,0.1-1.2,0c-0.2-0.1-0.3-0.2-0.4-0.3c-0.1-0.1-0.2-0.3-0.3-0.4
		C44.2,39.5,44.3,38.8,44.7,38.3z M39.6,48.3c0,0.3-0.2,0.7-0.4,0.9c0,0,0,0,0,0c-0.6,0.6-1.5,0.6-2.1,0L36.9,49l-0.7-0.7l-0.6-0.6
		l-1.8-1.8l-2.3-2.3c-0.3-0.3-0.4-0.7-0.4-1.1l0-2.5l0-0.7l0-0.7l0-2c0-0.2-0.1-0.3-0.2-0.4c-0.1-0.1-0.2-0.1-0.3-0.1h0
		c-0.3,0-0.5,0.2-0.5,0.5l0,3l-3.4,3.4l-5-2.1c0.1-0.1,0.2-0.3,0.3-0.4l7.8-7.8c0.1-0.1,0.3-0.2,0.4-0.3c0.4-0.2,0.8-0.4,1.2-0.4
		c0.7-0.1,1.4,0.2,1.9,0.7c0,0,0,0,0,0c0,0,0,0,0,0.1c0.4,0.5,0.7,1.1,0.7,1.7l0,1.7l0,0.8l0,0.8l0,0.7l0,0.7l0,2.6
		c0,0.1,0.1,0.3,0.1,0.4l4.2,4.2l0.7,0.7l0.2,0.2c0.3,0.3,0.4,0.7,0.4,1.1C39.6,48.2,39.6,48.2,39.6,48.3z"/>
	<path d="M31.1,53.4c-0.9-0.4-1.5-1.1-1.9-2l-0.5-1c-0.1-0.2-0.4-0.4-0.6-0.3l-1,0.4c-2,0.8-4.4-0.2-5.2-2.2l-0.5-1
		c-0.1-0.2-0.4-0.4-0.6-0.3l-1,0.4c-2,0.8-4.4-0.2-5.2-2.2l-0.5-1c-0.1-0.2-0.4-0.4-0.6-0.3l-1,0.4c-2,0.8-4.4-0.2-5.2-2.2l-0.5-1
		C6.4,41,6.2,40.9,5.9,41l-1,0.4c-1.7,0.7-3.8,0-4.9-1.6v1.5c1.4,1.2,3.4,1.7,5.2,1l0.6-0.2l0.3,0.6c1.1,2.4,4,3.6,6.5,2.7l0.6-0.2
		l0.3,0.6c1.1,2.4,4,3.6,6.5,2.7l0.6-0.2l0.3,0.6c1.1,2.4,4,3.6,6.5,2.7l0.6-0.2l0.3,0.6c0.5,1.2,1.5,2.1,2.7,2.6c0,0,0,0,0,0
		c0,0,0,0,0,0c1.2,0.5,2.6,0.5,3.8,0.1l0.6-0.2l0.3,0.6c0.5,1.2,1.5,2.1,2.7,2.6c1.2,0.5,2.6,0.5,3.8,0.1l0.6-0.2l0.3,0.6
		c1.1,2.4,4,3.6,6.5,2.7l0.6-0.2l0.3,0.6c0.3,0.6,0.6,1.1,1.1,1.6c0.2,0.2,0.4,0.3,0.6,0.4h2.9c-0.5,0-1-0.1-1.5-0.3
		s-0.9-0.5-1.3-0.8c-0.4-0.4-0.7-0.8-0.9-1.3l-0.5-1c-0.1-0.2-0.4-0.4-0.6-0.3l-1,0.4c-2,0.8-4.4-0.2-5.2-2.2l-0.5-1
		c-0.1-0.2-0.4-0.4-0.6-0.3l-1,0.4c-1,0.4-2.1,0.3-3-0.1c-1-0.4-1.8-1.2-2.2-2.1l-0.5-1c-0.1-0.2-0.4-0.4-0.6-0.3l-1,0.4
		c-0.7,0.3-1.5,0.3-2.3,0.2c-0.3-0.1-0.5-0.1-0.7-0.2C31.3,53.5,31.2,53.4,31.1,53.4z"/>
</g>
</svg>
