<?xml version="1.0" encoding="utf-8"?>
<!-- Generator: Adobe Illustrator 25.2.1, SVG Export Plug-In . SVG Version: 6.00 Build 0)  -->
<svg version="1.1" id="Layer_1" xmlns="http://www.w3.org/2000/svg" xmlns:xlink="http://www.w3.org/1999/xlink" x="0px" y="0px"
	 viewBox="0 0 63 63" style="enable-background:new 0 0 63 63;" xml:space="preserve">
<style type="text/css">
	.st0{fill:#2A76BC;}
	.st1{fill:#FCB019;}
	.st2{fill:#00A64F;}
	.st3{fill:#EE2B2F;}
</style>
<g id="Modern_pentathlon">
	<path d="M15.9,11.5c0.3,0.1,0.5,0.1,0.8,0.1L15.1,10c-0.2-0.2-0.3-0.5-0.3-0.8c0-0.3,0.2-0.6,0.4-0.7c0.2-0.1,0.3-0.2,0.5-0.2
		c0.3,0,0.6,0.1,0.8,0.3l2.1,2.1l0.4-0.3l0.2-0.2c0.1-0.1,0.2-0.1,0.3-0.1l-2.2-2.2c-0.7-0.7-1.9-0.8-2.6-0.3
		c-0.5,0.3-0.8,0.9-0.8,1.5c0,0.6,0.2,1.2,0.6,1.6l0.1,0.1l0,0C14.9,11.1,15.4,11.4,15.9,11.5z"/>
	<path d="M41.6,8.6c0.7,0,1.4-0.3,1.9-0.8c1.1-1.1,1.1-2.8,0-3.9c-1-1-2.9-1-3.9,0c-0.5,0.5-0.8,1.2-0.8,1.9s0.3,1.4,0.8,1.9
		C40.1,8.4,40.8,8.6,41.6,8.6z M40.3,4.7c0.3-0.3,0.8-0.5,1.2-0.5s0.9,0.2,1.2,0.5c0.7,0.7,0.7,1.8,0,2.5s-1.8,0.7-2.5,0
		c-0.3-0.3-0.5-0.8-0.5-1.2S40,5,40.3,4.7z"/>
	<path d="M28.4,11.5c0.2,0,0.4,0,0.5,0h0c0.2,0,0.3-0.1,0.5-0.1c0.4-0.1,0.8-0.3,1.1-0.6l0.5-0.4l0.2-0.1c0.1-0.1,0.3-0.2,0.5-0.1
		c0.1,0,0.2,0.1,0.2,0.1l0.3,0.2l2.6-1.1l0.5-0.2l0.5-0.2l1-0.4c0.5-0.2,1.1-0.2,1.6,0.1c0.2,0.1,0.3,0.2,0.4,0.3l0,0l0.9,0.9l0,0
		l0.4,0.4l0.1,0.1l1,1c0.2,0,0.4-0.1,0.6-0.2c0.2-0.1,0.3-0.1,0.5-0.2l-2.8-2.9c0,0,0,0,0,0c-0.1-0.1-0.3-0.3-0.4-0.4l-3.6-3.6
		c-0.4-0.4-0.9-0.6-1.4-0.6h-6c-0.6,0-1.1,0.3-1.5,0.7c-0.4,0.4-0.5,1-0.5,1.6c0.1,1,1,1.7,2.1,1.7h5.1l1,1l-5.3,2.2l-1.3,0.5
		c0.3,0.1,0.5,0.2,0.8,0.2C28.2,11.5,28.3,11.5,28.4,11.5z M33.5,6.8c-0.1-0.1-0.2-0.1-0.4-0.1h-5.3c-0.5,0-1-0.4-1.1-0.8
		c0-0.3,0-0.6,0.2-0.8c0.2-0.2,0.5-0.4,0.8-0.4h6c0.3,0,0.5,0.1,0.7,0.3L37,7.4c-0.2,0-0.5,0.1-0.7,0.2l-1.4,0.6L33.5,6.8z"/>
	<path class="st0" d="M7.8,11.5c1.5,1.4,4,1.4,5.5,0l0.3-0.3l0.3,0.3c1.5,1.4,4,1.4,5.5,0l0.3-0.3l0.3,0.3c1.5,1.4,4,1.4,5.5,0
		l0.3-0.3l0.3,0.3c1.5,1.4,4,1.4,5.5,0l0.3-0.3l0.3,0.3c1.5,1.4,4,1.4,5.5,0l0.3-0.3l0.3,0.3c1.5,1.4,4,1.4,5.5,0l0.3-0.3l0.3,0.3
		c1.5,1.4,4,1.4,5.5,0l0.3-0.3l0.3,0.3c0.7,0.7,1.7,1.1,2.7,1.1s2-0.4,2.7-1.1l0.6-0.6c0.2-0.2,0.2-0.5,0-0.7
		c-0.1-0.1-0.2-0.2-0.4-0.2c-0.1,0-0.2,0-0.3,0.1l-0.6,0.6c-1.1,1-3,1-4.1,0l-0.6-0.6c-0.2-0.2-0.5-0.2-0.7,0l-0.6,0.6
		c-1.1,1.1-3,1.1-4.1,0l-0.6-0.6c-0.2-0.2-0.5-0.2-0.7,0l-0.6,0.6c-0.1,0.1-0.3,0.2-0.4,0.3c-0.2,0.1-0.3,0.2-0.5,0.2
		c-0.2,0.1-0.4,0.1-0.6,0.2c-0.4,0.1-0.9,0.1-1.3-0.1c-0.1,0-0.2-0.1-0.4-0.1c0,0-0.1,0-0.1-0.1c-0.1-0.1-0.3-0.1-0.4-0.2
		c0,0,0,0,0,0c-0.1-0.1-0.3-0.2-0.4-0.3l0,0l-0.6-0.6c0,0,0,0-0.1,0c-0.2-0.1-0.5-0.1-0.6,0L37,10.3l-0.4,0.3l-0.1,0.1
		c-0.1,0.1-0.2,0.1-0.3,0.2c-1.1,0.8-2.8,0.8-3.8-0.2l-0.4-0.3l-0.3-0.2c-0.1-0.1-0.1-0.1-0.2-0.1c-0.2,0-0.3,0-0.5,0.1L31,10.3
		l-0.5,0.4c-0.3,0.3-0.7,0.5-1.1,0.6c-0.2,0.1-0.3,0.1-0.5,0.1h0c-0.2,0-0.4,0-0.5,0c-0.1,0-0.2,0-0.3,0c-0.3,0-0.5-0.1-0.8-0.2
		c-0.3-0.1-0.6-0.3-0.9-0.6l-0.6-0.6c-0.2-0.2-0.5-0.2-0.7,0l-0.6,0.6c-1.1,1.1-3,1.1-4.1,0l-0.6-0.6c-0.1-0.1-0.3-0.1-0.4-0.1
		c-0.1,0-0.2,0.1-0.3,0.1L19,10.3l-0.4,0.3l-0.1,0.1c-0.5,0.5-1.2,0.7-1.9,0.8c-0.3,0-0.5,0-0.8-0.1c-0.5-0.1-1-0.3-1.4-0.7l0,0
		l-0.6-0.6c-0.2-0.2-0.5-0.2-0.7,0l-0.6,0.6c-1.1,1.1-3,1.1-4.1,0l-0.6-0.6C7.7,10.1,7.6,10,7.5,10c-0.1,0-0.3,0.1-0.4,0.2
		c-0.2,0.2-0.2,0.5,0,0.7L7.8,11.5z"/>
	<path class="st1" d="M45.3,28.6h1.4l4.7-4.7c1.6-1.6,3.7-2.5,6-2.5h1v10.1c0,0.5-0.4,0.9-0.9,0.9c-0.3,0-0.6-0.2-0.8-0.5l-1.8-3.1
		c-0.1-0.2-0.5-0.3-0.7-0.2c-0.2,0.1-0.3,0.4-0.2,0.7l1.8,3.1c0.3,0.6,1,0.9,1.7,0.9c1.1,0,1.9-0.9,1.9-1.9V21.4h1
		c0.3,0,0.5-0.2,0.5-0.5s-0.2-0.5-0.5-0.5H59h-1.5c-2.5,0-4.9,1-6.7,2.8L45.3,28.6z"/>
	<path class="st1" d="M26.7,33.9c-2.5,0-4.9,1-6.7,2.8L19.6,37c-0.2,0.2-0.2,0.5,0,0.7c0.1,0.1,0.2,0.1,0.4,0.1s0.3,0,0.4-0.1
		l0.4-0.4c1.6-1.6,3.7-2.5,6-2.5h8.4l-1-1H26.7z"/>
	<path class="st1" d="M41.5,32.3c-0.7,0.5-1.4,0.8-2.2,1.1l0.8,0.8c0.9-0.4,1.8-0.9,2.6-1.6h-0.2C42.1,32.6,41.8,32.5,41.5,32.3z"/>
	<path d="M46.2,23.6c1.5,0,2.8-1.2,2.8-2.8s-1.2-2.8-2.8-2.8s-2.8,1.2-2.8,2.8S44.7,23.6,46.2,23.6z M46.2,19.1c1,0,1.8,0.8,1.8,1.8
		s-0.8,1.8-1.8,1.8s-1.8-0.8-1.8-1.8S45.3,19.1,46.2,19.1z"/>
	<path d="M44.5,28.6v-4c0-0.5-0.2-1-0.6-1.4c-1-1-2.8-1-3.9,0L34.2,29c0,0,0,0,0,0l-1.1,1.1c-0.8,0.8-0.8,2,0,2.8l1,1l1,1l2.4,2.4
		l-3.9,3.9c-0.8,0.8-0.8,2,0,2.8c0.4,0.4,0.9,0.6,1.4,0.6c0.5,0,1-0.2,1.4-0.6l5.3-5.3c0,0,0,0,0,0c0.4-0.4,0.6-0.9,0.6-1.4
		c0-0.5-0.2-1-0.6-1.4l-1.7-1.7l-0.8-0.8l-0.8-0.8l2.1-2.1v0.1c0,0.7,0.4,1.3,0.9,1.7c0.3,0.2,0.7,0.3,1.1,0.3h0.2h5.8
		c1.1,0,2-0.9,2-2s-0.9-2-2-2h-1.8h-1.4H44.5z M39,34.5l2.1,2.1c0.2,0.2,0.3,0.4,0.3,0.7c0,0.3-0.1,0.5-0.3,0.7l-5.3,5.3
		c-0.4,0.4-1,0.4-1.4,0c-0.4-0.4-0.4-1,0-1.4l4.2-4.2c0.2-0.2,0.2-0.5,0-0.7l-2.1-2.1l-1-1l-1.7-1.7c-0.4-0.4-0.4-1,0-1.4l0.7-0.7
		l0,0l1.2,1.2l2.5,2.5L39,34.5z M48.5,29.6c0.6,0,1,0.4,1,1s-0.4,1-1,1h-4.8h-1.2c-0.1,0-0.1,0-0.2,0c-0.5-0.1-0.8-0.5-0.8-1v-1.1
		v-1.4v-1.2c0-0.2-0.1-0.3-0.2-0.4c-0.1-0.1-0.2-0.1-0.3-0.1c-0.3,0-0.5,0.2-0.5,0.5v2.2l-2.8,2.8l-1.2-1.2l-1.3-1.3l5.5-5.5
		c0.7-0.7,1.8-0.7,2.5,0c0,0,0,0,0,0.1c0.2,0.2,0.3,0.4,0.3,0.7v1.6v1.3v1.6c0,0.3,0.2,0.5,0.5,0.5h0.3h1.4H48.5z"/>
	<path d="M52.3,41.8c-0.5,0.5-0.8,1.2-0.8,1.9s0.3,1.4,0.8,1.9c0.5,0.5,1.2,0.8,1.9,0.8s1.4-0.3,1.9-0.8c1.1-1.1,1.1-2.8,0-3.9
		C55.1,40.7,53.3,40.7,52.3,41.8z M55.5,44.9c-0.7,0.7-1.8,0.7-2.5,0c-0.3-0.3-0.5-0.8-0.5-1.2s0.2-0.9,0.5-1.2
		c0.3-0.3,0.8-0.5,1.2-0.5s0.9,0.2,1.2,0.5C56.1,43.1,56.1,44.3,55.5,44.9z"/>
	<path class="st2" d="M29.5,49h3.8h0.2v0.5h-4c0.7,0,1.4,0.4,1.7,1H34c0.3,0,0.5-0.2,0.5-0.5v-1.5c0-0.3-0.2-0.5-0.5-0.5h-0.2v-0.2
		c0-0.3-0.2-0.5-0.5-0.5s-0.5,0.2-0.5,0.5V48h-3.2c-0.9,0-1.7,0.6-1.9,1.5h1.1C28.8,49.2,29.1,49,29.5,49z"/>
	<path d="M17.5,43.5c-1.5,0-2.8,1.2-2.8,2.8S16,49,17.5,49s2.8-1.2,2.8-2.8S19,43.5,17.5,43.5z M17.5,48c-1,0-1.8-0.8-1.8-1.8
		s0.8-1.8,1.8-1.8s1.8,0.8,1.8,1.8S18.5,48,17.5,48z"/>
	<path d="M10.5,14.9c-1.5,0-2.8,1.2-2.8,2.7s1.2,2.8,2.8,2.8s2.8-1.2,2.8-2.8S12,14.9,10.5,14.9z M10.5,19.4c-1,0-1.8-0.8-1.8-1.8
		s0.8-1.7,1.8-1.7s1.8,0.8,1.8,1.7S11.5,19.4,10.5,19.4z"/>
	<path d="M20.5,25.7L20.5,25.7c0.1,0,0.1-0.1,0.2-0.1C20.7,25.6,20.6,25.6,20.5,25.7z"/>
	<path d="M20.5,24L20.5,24c0.1,0.1,0.1,0.1,0.2,0.2C20.7,24.1,20.6,24,20.5,24z"/>
	<path class="st3" d="M19.5,23.3v0.5v2v0.5c0,0.3,0.2,0.5,0.5,0.5c0.9,0,1.7-0.6,1.9-1.5h11.8c0.3,0,0.5-0.2,0.5-0.5
		s-0.2-0.5-0.5-0.5H22c-0.2-0.9-1-1.5-1.9-1.5C19.8,22.8,19.5,23.1,19.5,23.3z M20.5,25.7V24v0c0.1,0,0.1,0.1,0.2,0.2c0,0,0,0,0,0
		c0.1,0.1,0.1,0.2,0.2,0.3c0,0,0,0.1,0,0.1c0,0.1,0.1,0.2,0.1,0.3s0,0.2-0.1,0.3c0,0,0,0.1,0,0.1c0,0.1-0.1,0.2-0.2,0.3c0,0,0,0,0,0
		C20.7,25.6,20.6,25.7,20.5,25.7L20.5,25.7z"/>
	<path d="M60.4,46c-0.8-0.8-2-0.8-2.8,0l-2.8,2.8L51.9,46c0,0,0,0,0,0l-4.2-4.2c-0.8-0.8-2-0.8-2.8,0L40.6,46c-0.8,0.8-0.8,2,0,2.8
		c0.4,0.4,0.9,0.6,1.4,0.6c0.5,0,1-0.2,1.4-0.6l2.8-2.8l0.9,0.9l-5,5c0,0,0,0,0,0l-1.1,1.1c-0.4,0.4-0.6,1-0.6,1.6L32.1,63h1.4
		l7.5-7.5c0.1,0.1,0.1,0.1,0.2,0.2l1.2,1.2L36.3,63h1.4l5.4-5.4l2.5,2.5L42.7,63h1.4l2.5-2.5c0.1-0.1,0.1-0.2,0.1-0.4
		s-0.1-0.3-0.1-0.4L43.8,57l-0.4-0.4l-0.4-0.4L41.9,55c-0.1-0.1-0.1-0.1-0.1-0.2c-0.1-0.2-0.2-0.4-0.1-0.6c0-0.2,0.1-0.5,0.3-0.6
		l0.7-0.7l0.1-0.1l0,0l0,0l0.4,0.4l0.8,0.8l0,0l0.8,0.8l0.3,0.3l0.2,0.2l4.1,4.1c0.2,0.2,0.3,0.4,0.3,0.7c0,0.3-0.1,0.5-0.3,0.7
		L46.9,63h1.4l1.5-1.5c0.8-0.8,0.8-2,0-2.8l-3.4-3.4l4.6-4.6l2.3,2.3c0.4,0.4,0.9,0.6,1.4,0.6c0,0,0,0,0,0c0.5,0,1-0.2,1.4-0.6
		l4.2-4.2C61.2,48.1,61.2,46.8,60.4,46z M46.6,44.9c-0.2-0.2-0.5-0.2-0.7,0l-3.2,3.2c-0.4,0.4-1,0.4-1.4,0c-0.4-0.4-0.4-1,0-1.4
		l4.2-4.2c0.4-0.4,1-0.4,1.4,0l2.8,2.8c-0.6,0-1.3,0.3-1.7,0.8l-0.2,0.2L46.6,44.9z M59.7,48.1l-4.2,4.2c-0.2,0.2-0.4,0.3-0.7,0.3
		c0,0,0,0,0,0c-0.3,0-0.5-0.1-0.7-0.3l-2.3-2.3l-0.4-0.4l-0.4-0.4l-0.7-0.7c0,0-0.1,0-0.1-0.1c-0.1-0.1-0.2-0.1-0.3-0.1
		c-0.1,0-0.2,0.1-0.3,0.1c-0.1,0.1-0.1,0.2-0.1,0.3c0,0.1,0,0.3,0.1,0.4l0.7,0.7l-4.6,4.6l-0.4-0.4l-0.8-0.8v0c0,0,0,0,0,0l-1.2-1.2
		l4.6-4.6l0.4-0.4l0.4-0.4l0.2-0.2c0.7-0.7,1.8-0.7,2.5,0c0,0,0,0,0,0c0,0,0.1,0.1,0.1,0.1l0,0l0.9,0.9l0.5,0.5l1.7,1.7
		c0.2,0.2,0.5,0.2,0.7,0l3.2-3.2c0.4-0.4,1-0.4,1.4,0C60.1,47.1,60.1,47.7,59.7,48.1z"/>
	<path d="M29.5,49.5h-0.9h-1.1H17.5c0,0,0,0,0,0s0,0,0,0c-1.5,0-2.8,1.2-2.8,2.8v8.2V63h1v-2h3.5v2h1v-2.5v-7h9.3c1.1,0,2-0.9,2-2
		c0-0.4-0.1-0.7-0.3-1C30.9,49.9,30.2,49.5,29.5,49.5z M29.5,52.5h-9.8h-1.5c-0.3,0-0.5,0.2-0.5,0.5s0.2,0.5,0.5,0.5h1V60h-3.5v-7.8
		c0-1,0.8-1.8,1.8-1.8c0,0,0,0,0,0s0,0,0,0H28h1.5c0.6,0,1,0.4,1,1S30.1,52.5,29.5,52.5z"/>
	<path d="M13.3,26.7c0.2,0.1,0.5,0.2,0.8,0.2h6c-0.3,0-0.5-0.2-0.5-0.5v-0.5l-5.5,0c-0.1,0-0.3,0-0.4-0.1L9.5,24
		c-0.3-0.1-0.5,0-0.7,0.3c-0.1,0.3,0,0.5,0.3,0.7l0.2,0.1l-2.5,6l0,0l-3.2-1.3l2.3-5.5l0,0l0.7-1.6C6.7,22.3,6.8,22.2,7,22
		c0.2-0.2,0.4-0.3,0.6-0.4c0.4-0.2,0.9-0.2,1.3,0c0,0,0,0,0,0l5.3,2.2c0.1,0,0.1,0,0.2,0h5.2v-0.5c0-0.3,0.2-0.5,0.5-0.5h-5.6
		l-5.2-2.1c0,0,0,0,0,0c-0.3-0.1-0.7-0.2-1-0.2c0,0,0,0,0,0l-8.2,0v1l6.1,0c-0.2,0.2-0.3,0.4-0.4,0.7l-0.5,1.3l-5.1,0v1l4.7,0
		l-2.2,5.3c0,0,0,0,0,0l-0.6,1.4c-0.1,0.3-0.2,0.6-0.1,0.9L0,33.8v1.4l2.1-2.1c0.2,0.3,0.5,0.6,0.9,0.7l0.9,0.4L0,37.9v1.4l4.9-4.7
		l4.5,1.9v6.2c0,1.1,0.9,2,2,2s2-0.9,2-2v-7.5c0-0.8-0.5-1.5-1.2-1.8l-4.4-1.8l2.5-6L13.3,26.7z M11.8,34.2c0.4,0.2,0.6,0.5,0.6,0.9
		v7.5c0,0.6-0.4,1-1,1s-1-0.4-1-1v-6.5c0-0.2-0.1-0.4-0.3-0.5l-6.7-2.8c-0.5-0.2-0.8-0.8-0.5-1.3l0.4-0.9l3.7,1.5c0,0,0,0,0,0
		L11.8,34.2z"/>
</g>
</svg>
