<?xml version="1.0" encoding="utf-8"?>
<!-- Generator: Adobe Illustrator 25.2.1, SVG Export Plug-In . SVG Version: 6.00 Build 0)  -->
<svg version="1.1" id="Layer_1" xmlns="http://www.w3.org/2000/svg" xmlns:xlink="http://www.w3.org/1999/xlink" x="0px" y="0px"
	 viewBox="0 0 63 63" style="enable-background:new 0 0 63 63;" xml:space="preserve">
<style type="text/css">
	.st0{fill:#FCB019;}
	.st1{fill:#00A64F;}
</style>
<g id="Rowing">
	<path d="M37.3,29.4c0.4-1,1.4-1.6,2.4-1.5l0,0h2.3h13.6c0.8,0,1.5,0.7,1.5,1.5s-0.7,1.5-1.5,1.5h-0.8h-1.4H43.1h-1h-1.4
		c0,0-0.1,0-0.1,0c-0.2,0.1-0.4,0.2-0.4,0.5c0,0.3,0.2,0.5,0.5,0.5h1.1l-3,7.2h1.1l3-7.2h9.6h1.4h1.8c1.4,0,2.5-1.1,2.5-2.5
		s-1.1-2.5-2.5-2.5h-16c0,0,0,0,0,0c-1.4,0-2.7,0.8-3.2,2.2l-4.1,10h1.1L37.3,29.4z"/>
	<path d="M47.9,35.4l0.5,0.5l0.7-0.7l-0.5-0.5c0,0,0,0,0,0c-0.9-0.9-2.6-0.9-3.5,0L40.7,39h1.4l3.6-3.6
		C46.4,34.8,47.4,34.8,47.9,35.4z"/>
	<polygon points="51.6,39 53,39 49.8,35.9 49.1,36.6 	"/>
	<path d="M24.6,34.7c-0.9-0.9-2.6-0.9-3.5,0L16.7,39h1.4l3.6-3.6c0.6-0.6,1.6-0.6,2.1,0l0.5,0.5l0.7-0.7L24.6,34.7
		C24.6,34.7,24.6,34.7,24.6,34.7z"/>
	<polygon points="27.6,39 29,39 25.8,35.9 25.1,36.6 	"/>
	<polygon class="st0" points="18.1,39 16.7,39 15.9,39 14.8,39 9.4,39 8.3,39 0,39 0,40 8.6,40 15.1,40 16.9,40 20.3,40 21.3,39 	
		"/>
	<polygon class="st0" points="46.7,39 45.7,40 52.8,40 63,40 63,39 53,39 51.6,39 	"/>
	<polygon class="st0" points="22.7,39 21.7,40 28.8,40 32.6,40 39.1,40 40.9,40 44.3,40 45.3,39 42.1,39 40.7,39 39.9,39 38.8,39 
		33.4,39 32.3,39 29,39 27.6,39 	"/>
	<path d="M63,45.3l-0.7,0.6c-1.5,1.4-4.2,1.4-5.7,0l-0.8-0.8c-0.2-0.2-0.5-0.2-0.7,0l-0.8,0.8c-1.6,1.5-4.1,1.5-5.7,0l-0.8-0.8
		c-0.2-0.2-0.5-0.2-0.7,0l-0.8,0.8c-1.5,1.4-4.2,1.4-5.7,0l-0.4-0.4l-0.4-0.4c-0.2-0.2-0.5-0.2-0.7,0l-0.8,0.8
		c-1.6,1.5-4.1,1.5-5.7,0l-0.8-0.8c-0.2-0.2-0.5-0.2-0.7,0l-0.8,0.8c-1.6,1.5-4.1,1.5-5.7,0l-0.8-0.8c-0.2-0.2-0.5-0.2-0.7,0
		l-0.8,0.8c-1.6,1.5-4.1,1.5-5.7,0l-0.4-0.4l-0.4-0.4c-0.2-0.2-0.5-0.2-0.7,0l-0.8,0.8c-1.6,1.5-4.1,1.5-5.7,0l-0.8-0.8
		c-0.2-0.2-0.5-0.2-0.7,0l-0.8,0.8c-1.6,1.5-4.1,1.5-5.7,0L0,45.3v1.4c1.9,1.8,5.1,1.8,7,0l0.5-0.4L8,46.7c1.9,1.8,5.1,1.8,7,0
		l0.5-0.4l0.5,0.4c1.9,1.8,5.1,1.8,7,0l0.5-0.4l0.5,0.4c1.9,1.8,5.1,1.8,7,0l0.5-0.4l0.5,0.4c1.9,1.8,5.1,1.8,7,0l0.5-0.4l0.5,0.4
		c0.9,0.9,2.2,1.4,3.5,1.4c1.3,0,2.6-0.5,3.5-1.4l0.5-0.4l0.5,0.4c1.9,1.8,5.1,1.8,7,0l0.5-0.4l0.5,0.4c0.9,0.9,2.2,1.4,3.5,1.4
		c1.3,0,2.6-0.5,3.5-1.4"/>
	<line x1="63" y1="39" x2="63" y2="40"/>
	<path class="st1" d="M49.1,35.2l-0.7,0.7L45.3,39l-1,1l-5.1,5.1c0.2-0.2,0.5-0.2,0.7,0l0.4,0.4l5.5-5.5l1-1l2.4-2.4l0.7-0.7l4-4
		h-1.4L49.1,35.2z"/>
	<path class="st1" d="M15.8,45.2l0.4,0.4l5.5-5.5l1-1l2.4-2.4l0.7-0.7l4-4h-1.4l-3.3,3.3l-0.7,0.7L21.3,39l-1,1l-5.1,5.1
		C15.4,45,15.7,45,15.8,45.2z"/>
	<path d="M13.3,29.4c0.3-0.6,0.7-1.1,1.4-1.3c0.4-0.1,0.7-0.2,1.1-0.2l0,0h2.3h13.6c0.8,0,1.5,0.7,1.5,1.5s-0.7,1.5-1.5,1.5h-0.8
		h-1.4H19.1h-1h-1.4c0,0-0.1,0-0.1,0c-0.2,0.1-0.4,0.2-0.4,0.5c0,0.3,0.2,0.5,0.5,0.5h1.1l-3,7.2h1.1l3-7.2h9.6h1.4h1.8
		c1.4,0,2.5-1.1,2.5-2.5s-1.1-2.5-2.5-2.5h-16c0,0,0,0,0,0c-0.5,0-0.9,0.1-1.3,0.3c-0.9,0.4-1.5,1-1.9,1.9L8.3,39h1.1L13.3,29.4z"/>
	<path d="M42.7,25.9c1.9,0,3.5-1.6,3.5-3.5s-1.6-3.5-3.5-3.5c-1.9,0-3.5,1.6-3.5,3.5S40.7,25.9,42.7,25.9z M42.7,19.9
		c1.4,0,2.5,1.1,2.5,2.5s-1.1,2.5-2.5,2.5s-2.5-1.1-2.5-2.5S41.3,19.9,42.7,19.9z"/>
	<path d="M18.7,25.9c1.9,0,3.5-1.6,3.5-3.5s-1.6-3.5-3.5-3.5c-1.9,0-3.5,1.6-3.5,3.5S16.7,25.9,18.7,25.9z M18.7,19.9
		c1.4,0,2.5,1.1,2.5,2.5s-1.1,2.5-2.5,2.5s-2.5-1.1-2.5-2.5S17.3,19.9,18.7,19.9z"/>
</g>
</svg>
