<?xml version="1.0" encoding="utf-8"?>
<!-- Generator: Adobe Illustrator 25.2.1, SVG Export Plug-In . SVG Version: 6.00 Build 0)  -->
<svg version="1.1" id="Layer_1" xmlns="http://www.w3.org/2000/svg" xmlns:xlink="http://www.w3.org/1999/xlink" x="0px" y="0px"
	 viewBox="0 0 63 63" style="enable-background:new 0 0 63 63;" xml:space="preserve">
<style type="text/css">
	.st0{fill:#EE2B2F;}
</style>
<g id="Rugby">
	<path d="M43.6,29.8c-0.4,0-0.8-0.2-1.1-0.4l-3.2-3.2l0.4-0.4c0.7-0.7,1-1.5,1-2.5c0,0,0,0,0,0l3.3,3.3c0,0,0.1,0.1,0.2,0.1
		c0.1-0.4,0.2-0.7,0.3-1l-4.9-4.9L34,15.2c-1-1-2.6-1-3.5,0l-5.7,5.7c-1,1-1,2.6,0,3.5c0.5,0.5,1.1,0.7,1.8,0.7
		c0.6,0,1.3-0.2,1.8-0.7l3.9-3.9l1.4,1.4l-6.7,6.7l-1.4,1.4c-0.4,0.4-0.6,0.9-0.7,1.5L12.1,44.3c-0.5,0.5-0.7,1.1-0.7,1.8
		c0,0.7,0.3,1.3,0.7,1.8c0.5,0.5,1.1,0.7,1.8,0.7c0.6,0,1.3-0.2,1.8-0.7l12-12.1l3.9,3.9l-5.3,5.3c-0.5,0.5-0.7,1.1-0.7,1.8
		c0,0.7,0.3,1.3,0.7,1.8c0.5,0.5,1.1,0.7,1.8,0.7s1.3-0.2,1.8-0.7l7.1-7.1c0,0,0,0,0,0c0.4-0.4,0.7-1,0.7-1.6c0,0,0,0,0,0
		c0,0,0-0.1,0-0.1c0,0,0,0,0-0.1c0,0,0,0,0,0c0-0.1,0-0.1,0-0.2c0,0,0-0.1,0-0.1c0,0,0,0,0,0c-0.1-0.6-0.3-1.1-0.7-1.5l-4.6-4.6
		l6.4-6.4l3.2,3.2c0.5,0.5,1.1,0.7,1.8,0.7h1c-0.1-0.3-0.3-0.7-0.4-1H43.6z M36.6,39.6L36.6,39.6c0,0.5-0.2,0.8-0.4,1.1l-7.1,7.1
		c-0.6,0.6-1.5,0.6-2.1,0c-0.3-0.3-0.4-0.7-0.4-1.1c0-0.4,0.2-0.8,0.4-1.1l5.7-5.6c0.1-0.1,0.1-0.2,0.1-0.4c0-0.1-0.1-0.3-0.1-0.4
		L28.4,35L28,34.7l-0.4-0.4l-1.4-1.4c-0.3-0.3-0.4-0.6-0.4-0.9c0-0.3,0.1-0.7,0.3-1c0.1-0.1,0.1-0.2,0.2-0.2l1.1-1.1l0.2,0.2
		l0.4,0.4l1.5,1.5l0.4,0.4l0.4,0.4l0.8,0.8c0,0,0,0,0,0l4.9,4.9c0.3,0.3,0.4,0.6,0.4,1c0,0,0,0,0,0C36.6,39.5,36.6,39.6,36.6,39.6z
		 M12.8,47.1c-0.3-0.3-0.4-0.7-0.4-1.1c0-0.4,0.2-0.8,0.4-1.1L25,32.8c0.1,0.3,0.3,0.6,0.5,0.8L27,35l-12,12.1
		C14.4,47.7,13.4,47.7,12.8,47.1z M31.5,32.5l-1.1-1.1l-2-2L28,29l0,0l6.4-6.4l1.1,1.1c0.1,0.1,0.2,0.1,0.3,0.1c0.1,0,0.3,0,0.4-0.1
		c0.2-0.2,0.2-0.4,0.1-0.6c0,0,0-0.1-0.1-0.1l-0.7-0.7l-0.4-0.4l-0.4-0.4l-0.4-0.4l-1.8-1.8c-0.2-0.2-0.5-0.2-0.7,0l-4.2,4.2
		c-0.6,0.6-1.5,0.6-2.1,0c-0.6-0.6-0.6-1.5,0-2.1l5.7-5.7c0.6-0.6,1.5-0.6,2.1,0l4,4l0.3,0.3l0.2,0.2l1.1,1.1l0,0l0,0
		c0,0,0.1,0.1,0.1,0.1c0.5,0.5,0.7,1.1,0.7,1.8s-0.3,1.3-0.7,1.8l-0.4,0.4l-0.7,0.7L31.5,32.5L31.5,32.5z"/>
	<path d="M42.9,21.2c0.9,0,1.8-0.4,2.5-1c1.4-1.4,1.4-3.6,0-4.9c-1.4-1.4-3.6-1.4-4.9,0c-0.7,0.7-1,1.5-1,2.5c0,0.9,0.4,1.8,1,2.5
		S41.9,21.2,42.9,21.2z M41.1,15.9c0.5-0.5,1.1-0.7,1.8-0.7s1.3,0.2,1.8,0.7c1,1,1,2.6,0,3.5c-0.9,0.9-2.6,0.9-3.5,0
		c-0.5-0.5-0.7-1.1-0.7-1.8C40.4,17,40.6,16.4,41.1,15.9z"/>
	<path class="st0" d="M48.9,30.7c-0.2,0-0.3-0.1-0.5-0.2c0,0.1-0.1,0.2-0.1,0.3c-0.2,0.4-0.5,0.8-0.7,1.1c-0.3,0.4-0.9,0.4-1.2,0
		c-0.2-0.3-0.5-0.7-0.7-1.1c-0.2-0.3-0.3-0.6-0.4-1c-0.2-0.5-0.3-1-0.3-1.6c0-0.5,0.1-1,0.2-1.4c0.1-0.4,0.2-0.7,0.4-1
		c0.2-0.5,0.5-0.9,0.8-1.3c0.1-0.2,0.4-0.3,0.6-0.3s0.4,0.1,0.6,0.3c0.3,0.4,0.5,0.8,0.8,1.3c0,0.1,0.1,0.2,0.1,0.3
		c0.1-0.1,0.3-0.1,0.5-0.2c0.2,0,0.3-0.1,0.5-0.1c0,0,0,0,0,0c-0.3-0.7-0.7-1.4-1.1-1.9c-0.7-0.9-2.1-0.9-2.8,0
		c-0.4,0.5-0.8,1.1-1.1,1.8c-0.1,0.3-0.3,0.7-0.3,1c-0.1,0.5-0.2,1-0.2,1.5c0,0.6,0.1,1.1,0.2,1.6c0.1,0.3,0.2,0.7,0.4,1
		c0.3,0.7,0.7,1.3,1,1.7c0.3,0.4,0.8,0.7,1.4,0.7s1.1-0.3,1.4-0.7c0.3-0.5,0.7-1.1,1-1.7c0,0,0,0,0,0C49.2,30.8,49.1,30.7,48.9,30.7
		z"/>
	<path d="M49.6,25.8h-0.1C49.5,25.8,49.5,25.8,49.6,25.8c-0.3,0-0.4,0-0.6,0.1c-0.2,0-0.3,0.1-0.5,0.2c-0.4,0.2-0.7,0.4-0.9,0.7
		c-0.3,0.4-0.5,0.9-0.5,1.5s0.2,1.1,0.5,1.5c0.2,0.3,0.5,0.5,0.8,0.7c0.1,0.1,0.3,0.1,0.5,0.2c0.2,0,0.3,0.1,0.5,0.1c0,0,0,0,0,0
		h0.2c1.4,0,2.5-1.1,2.5-2.5S50.9,25.8,49.6,25.8z M49.8,29.8c-0.1,0-0.1,0-0.2,0c-0.1,0-0.2,0-0.3,0c-0.2,0-0.3-0.1-0.5-0.2
		c-0.4-0.3-0.7-0.7-0.7-1.3c0-0.6,0.3-1,0.8-1.3c0.1-0.1,0.3-0.1,0.5-0.2c0.1,0,0.2,0,0.3,0c0.1,0,0.2,0,0.2,0
		c0.7,0.1,1.3,0.7,1.3,1.5C51.1,29.1,50.5,29.7,49.8,29.8z"/>
</g>
</svg>
