<?xml version="1.0" encoding="utf-8"?>
<!-- Generator: Adobe Illustrator 25.2.1, SVG Export Plug-In . SVG Version: 6.00 Build 0)  -->
<svg version="1.1" id="Layer_1" xmlns="http://www.w3.org/2000/svg" xmlns:xlink="http://www.w3.org/1999/xlink" x="0px" y="0px"
	 viewBox="0 0 63 63" style="enable-background:new 0 0 63 63;" xml:space="preserve">
<style type="text/css">
	.st0{fill:#2A76BC;}
	.st1{fill:#FCB019;}
</style>
<g id="Ski_mountaineering">
	<path class="st0" d="M24,19.7c0.1,0.1,0.2,0.1,0.4,0.1s0.3,0,0.4-0.1l6.1-6.1c0.1-0.1,0.1-0.2,0.1-0.4s-0.1-0.3-0.1-0.4l-2.5-2.5
		c-0.2-0.2-0.5-0.2-0.7,0l-6.1,6.1c-0.2,0.2-0.2,0.5,0,0.7L24,19.7z M27.9,11.4l1.8,1.8l-5.4,5.4l-1.8-1.8L27.9,11.4z"/>
	<path class="st1" d="M45,25.7v20.8c0,0.3,0.2,0.5,0.5,0.5s0.5-0.2,0.5-0.5V25.6c-0.2,0-0.4,0.1-0.6,0.1H45z"/>
	<path d="M45.5,20.7l-7,0l-4.9-4.9c-1.4-1.4-3.6-1.4-4.9,0l-7.8,7.8c-0.7,0.7-1,1.5-1,2.5c0,0,0,0,0,0v2v0v20c0,1.4,1.1,2.5,2.5,2.5
		s2.5-1.1,2.5-2.5V30.5h6l0,6.5c0,0.7,0.3,1.3,0.7,1.8c0.5,0.5,1.1,0.7,1.8,0.7c0,0,0,0,0,0c1.4,0,2.5-1.1,2.5-2.5l0-9.1v0
		c0-1.4-1.1-2.5-2.5-2.5l-4.6,0l3.7-3.7l3.2,3.2c0.5,0.5,1.1,0.7,1.8,0.7H45h0.4c0.2,0,0.4,0,0.6-0.1c1.1-0.2,1.9-1.1,2-2.2
		c0.1-0.7-0.2-1.5-0.7-2C46.8,21,46.2,20.7,45.5,20.7z M46,24.6c-0.2,0.1-0.4,0.1-0.6,0.1H45h-7.5c-0.4,0-0.8-0.2-1.1-0.4l-3.2-3.2
		l-0.4-0.4l-0.4-0.4l-1.1-1.1c0,0-0.1,0-0.1-0.1c-0.2-0.1-0.4-0.1-0.6,0.1c-0.2,0.2-0.2,0.5,0,0.7l1.1,1.1l-4.4,4.4l-4.9,0l-0.2,0
		l-1.4,0c0.1-0.5,0.3-0.9,0.7-1.3l7.8-7.8c0.5-0.5,1.1-0.7,1.8-0.7c0.6,0,1.3,0.2,1.8,0.7c0,0,0.1,0.1,0.1,0.1l0,0l1.1,1.1l0.6,0.6
		l3.3,3.3c0.1,0.1,0.2,0.1,0.4,0.1c0,0,0,0,0,0l7.2,0c0.4,0,0.8,0.2,1.1,0.4c0.3,0.3,0.5,0.7,0.4,1.2C47,23.9,46.6,24.4,46,24.6z
		 M34.9,37.1c0,0.8-0.7,1.5-1.5,1.5c-0.4,0-0.8-0.2-1.1-0.4c-0.3-0.3-0.4-0.7-0.4-1.1l0-7c0-0.1-0.1-0.3-0.1-0.4
		c-0.1-0.1-0.2-0.1-0.4-0.1h-6.5h-1h-0.5h-0.1h-1c-0.4,0-0.8-0.2-1.1-0.4c-0.1-0.1-0.3-0.3-0.3-0.5c-0.1-0.2-0.1-0.4-0.1-0.5v0v-0.3
		v-1.2h0.1l1.4,0l0.2,0l1.9,0l2,0l0.7,0l0.7,0l5.6,0c0.8,0,1.5,0.7,1.5,1.5L34.9,37.1z M23.9,48c0,0.8-0.7,1.5-1.5,1.5
		s-1.5-0.7-1.5-1.5V30c0.4,0.3,1,0.5,1.5,0.5h1.5V48z"/>
	<path d="M36.9,16.1c0.9,0,1.8-0.4,2.5-1s1-1.5,1-2.5c0-0.9-0.4-1.8-1-2.5c-1.4-1.4-3.6-1.4-4.9,0c-1.4,1.4-1.4,3.6,0,4.9
		C35,15.7,35.9,16.1,36.9,16.1z M35.1,10.8c0.5-0.5,1.1-0.7,1.8-0.7c0.6,0,1.3,0.2,1.8,0.7c0.5,0.5,0.7,1.1,0.7,1.8
		c0,0.7-0.3,1.3-0.7,1.8c-0.9,0.9-2.6,0.9-3.5,0C34.1,13.4,34.1,11.8,35.1,10.8z"/>
	<path class="st0" d="M39.8,32.7c-0.2,0.2-0.2,0.5,0,0.7c0.3,0.3,0.4,0.7,0.4,1.1c0,0.4-0.2,0.8-0.4,1.1L18.6,56.7
		c-0.2,0.2-0.2,0.5,0,0.7c0.1,0.1,0.2,0.1,0.4,0.1s0.3,0,0.4-0.1l21.2-21.2c0.5-0.5,0.7-1.1,0.7-1.8s-0.3-1.3-0.7-1.8
		C40.3,32.5,40,32.5,39.8,32.7z"/>
</g>
</svg>
