<?xml version="1.0" encoding="utf-8"?>
<!-- Generator: Adobe Illustrator 25.2.1, SVG Export Plug-In . SVG Version: 6.00 Build 0)  -->
<svg version="1.1" id="Layer_1" xmlns="http://www.w3.org/2000/svg" xmlns:xlink="http://www.w3.org/1999/xlink" x="0px" y="0px"
	 viewBox="0 0 63 63" style="enable-background:new 0 0 63 63;" xml:space="preserve">
<style type="text/css">
	.st0{fill:#EE2B2F;}
</style>
<g id="Sport_climbing">
	<path d="M23.6,21.3c0.9,0,1.8-0.3,2.5-1c0.7-0.7,1-1.5,1-2.5c0-0.9-0.4-1.8-1-2.5c-1.3-1.3-3.6-1.3-4.9,0c-1.4,1.4-1.4,3.6,0,4.9
		C21.8,20.9,22.7,21.3,23.6,21.3z M21.8,16c0.5-0.5,1.1-0.7,1.8-0.7c0.7,0,1.3,0.3,1.8,0.7c0.5,0.5,0.7,1.1,0.7,1.8
		c0,0.7-0.3,1.3-0.7,1.8c-1,1-2.6,1-3.5,0C20.9,18.6,20.9,17,21.8,16z"/>
	<path d="M32.4,10.8c0.3,0.3,0.4,0.7,0.4,1.1v10c0,0.1,0.1,0.3,0.1,0.4l6.1,6.1l-4.9,4.9l-6.1-6.1C28,27.1,27.9,27,27.7,27h-18
		c-0.8,0-1.5-0.7-1.5-1.5S8.9,24,9.7,24h15.2c0.1,0,0.3-0.1,0.4-0.1l4.5-4.5c0.1-0.1,0.1-0.2,0.1-0.4v-6.3c0-0.1-0.1-0.3-0.1-0.4
		l-5.1-5.1L24,8l4.9,4.9v5.9L24.7,23h-15c-0.6,0-1.1,0.2-1.5,0.5l0,4C8.6,27.8,9.2,28,9.7,28h17.8l6,6l-5.3,5.3
		c-0.5,0.5-0.7,1.1-0.7,1.8v10c0,1.4,1.1,2.5,2.5,2.5s2.5-1.1,2.5-2.5v-9l7.4-7.4l5.3,5.3c0.5,0.5,1.1,0.7,1.8,0.7h10
		c1.4,0,2.5-1.1,2.5-2.5s-1.1-2.5-2.5-2.5h-9L40.2,28l-6.3-6.3v-9.8c0-0.7-0.3-1.3-0.7-1.8l-5.6-5.6l-0.7,0.7L32.4,10.8z M47.8,36.8
		h9.2c0.8,0,1.5,0.7,1.5,1.5s-0.7,1.5-1.5,1.5h-10c-0.4,0-0.8-0.2-1.1-0.4l-5.7-5.7c-0.2-0.2-0.5-0.2-0.7,0l-7.9,7.9
		c-0.1,0.1-0.1,0.2-0.1,0.4v9.2c0,0.8-0.7,1.5-1.5,1.5s-1.5-0.7-1.5-1.5v-10c0-0.4,0.2-0.8,0.4-1.1l5.7-5.7l5.3-5.3l7.5,7.5
		C47.5,36.7,47.6,36.8,47.8,36.8z"/>
	<path class="st0" d="M9.2,54.7l4-4c0.9-0.9,1.3-2,1.3-3.2s-0.5-2.3-1.3-3.2l-4-4c-0.7-0.7-1-1.6-1-2.5l0-10.4l0-4l0-4
		c0-1.9,1.6-3.5,3.5-3.5h2.3c1.2,0,2.3-0.5,3.2-1.3L24,8l0.7-0.7l2.1-2.1l0.7-0.7L31.9,0h-0.7h-0.7l-3.9,3.9l-0.8,0.8l-1.6,1.6
		l-0.8,0.8L16.5,14c-0.7,0.7-1.5,1-2.5,1h-2.3c-2.5,0-4.5,2-4.5,4.5l0,18.3c0,1.2,0.5,2.3,1.3,3.2l4,4c1.4,1.4,1.4,3.6,0,5l-4,4
		c-0.8,0.8-1.3,2-1.3,3.2V63h0.5h0.5v-5.8C8.2,56.3,8.6,55.4,9.2,54.7z"/>
</g>
</svg>
