<?xml version="1.0" encoding="utf-8"?>
<!-- Generator: Adobe Illustrator 25.2.1, SVG Export Plug-In . SVG Version: 6.00 Build 0)  -->
<svg version="1.1" id="Layer_1" xmlns="http://www.w3.org/2000/svg" xmlns:xlink="http://www.w3.org/1999/xlink" x="0px" y="0px"
	 viewBox="0 0 63 63" style="enable-background:new 0 0 63 63;" xml:space="preserve">
<style type="text/css">
	.st0{fill:#2A76BC;}
	.st1{fill:#EE2B2F;}
</style>
<g id="_x33_x3_basketball">
	<path class="st0" d="M59.7,3h-10c-0.2,0-0.3,0.1-0.4,0.2c-0.1,0.1-0.1,0.3-0.1,0.4l2,8c0.1,0.2,0.3,0.4,0.5,0.4h6
		c0.2,0,0.4-0.2,0.5-0.4l2-8c0-0.1,0-0.3-0.1-0.4C60,3.1,59.9,3,59.7,3z M57.3,11h-5.2l-1.8-7h8.7L57.3,11z"/>
	<path d="M51.7,23h-23l-4.2-4.2v-7c0-0.2,0-0.3-0.1-0.5c-0.3,0.3-0.6,0.5-0.9,0.7v7c0,0.1,0.1,0.3,0.1,0.4l4.5,4.5
		c0.1,0.1,0.2,0.1,0.4,0.1h23.2c0.8,0,1.5,0.7,1.5,1.5S52.5,27,51.7,27h-16c-0.3,0-0.5,0.2-0.5,0.5V37h-7v-8.7
		c0-0.1-0.1-0.3-0.1-0.4L21,20.9c-0.3-0.3-0.4-0.7-0.4-1.1V12c-0.4-0.2-0.7-0.4-0.9-0.7c0,0.2-0.1,0.3-0.1,0.5v8
		c0,0.7,0.3,1.3,0.7,1.8l6.9,6.9v9V47h-3.5c-1.4,0-2.5,1.1-2.5,2.5c0,1.4,1.1,2.5,2.5,2.5l-2.8,2.8c-0.5,0.5-0.7,1.1-0.7,1.8
		s0.3,1.3,0.7,1.8c0.5,0.5,1.1,0.7,1.8,0.7s1.3-0.2,1.8-0.7l6.3-6.3h3c1.4,0,2.5-1.1,2.5-2.5v-12V28h15.5c1.4,0,2.5-1.1,2.5-2.5
		S53.1,23,51.7,23z M23.7,51c-0.8,0-1.5-0.7-1.5-1.5s0.7-1.5,1.5-1.5h3.5v0.5L24.7,51H23.7z M33.7,51h-2c0.3-0.4,0.5-0.9,0.5-1.5v0
		V48v-1v-5.5c0-0.3-0.2-0.5-0.5-0.5s-0.5,0.2-0.5,0.5V47v1v1.5c0,0.4-0.2,0.8-0.4,1.1L30.3,51l-1,1l-5.6,5.6c-0.6,0.6-1.5,0.6-2.1,0
		c-0.3-0.3-0.4-0.7-0.4-1.1c0-0.4,0.2-0.8,0.4-1.1l3.5-3.5l1-1l2-2c0.1-0.1,0.1-0.2,0.1-0.4V48v-1v-9h7v9.5v2v0
		C35.2,50.4,34.5,51,33.7,51z"/>
	<path d="M31.7,22c1.9,0,3.5-1.6,3.5-3.5S33.7,15,31.7,15s-3.5,1.6-3.5,3.5S29.8,22,31.7,22z M31.7,16c1.4,0,2.5,1.1,2.5,2.5
		S33.1,21,31.7,21s-2.5-1.1-2.5-2.5S30.3,16,31.7,16z"/>
	<path class="st1" d="M22.1,12.4c0.5,0,1-0.1,1.5-0.4c0.4-0.2,0.7-0.4,0.9-0.7c0.6-0.6,1.1-1.5,1.1-2.5c0-1.9-1.6-3.5-3.5-3.5
		s-3.5,1.6-3.5,3.5c0,1,0.4,1.9,1.1,2.5c0.3,0.3,0.6,0.5,0.9,0.7C21,12.2,21.5,12.4,22.1,12.4z M22.1,6.4c1.4,0,2.5,1.1,2.5,2.5
		c0,0.6-0.2,1.1-0.5,1.5c-0.2,0.3-0.5,0.5-0.7,0.7c-0.4,0.2-0.8,0.3-1.2,0.3s-0.9-0.1-1.2-0.3c-0.3-0.2-0.5-0.4-0.7-0.7
		c-0.3-0.4-0.5-0.9-0.5-1.5C19.6,7.5,20.7,6.4,22.1,6.4z"/>
	<path d="M45.5,55.4c0.9-0.3,1.4-1,1.4-1.8c0-1.3-1.1-2.1-2.6-2.1c-1.7,0-2.8,1-2.8,2.4h1.2c0-0.9,0.6-1.5,1.6-1.5
		c0.9,0,1.4,0.5,1.4,1.2c0,0.9-0.7,1.3-1.5,1.3h-0.5v1h0.5c0.9,0,1.7,0.5,1.7,1.4c0,0.9-0.7,1.4-1.7,1.4c-1,0-1.7-0.6-1.7-1.6h-1.2
		c0,1.6,1.1,2.6,2.8,2.6c1.7,0,2.9-1,2.9-2.3C47.1,56.4,46.5,55.7,45.5,55.4z"/>
	<polygon points="53.3,54.2 52.6,53.5 50.7,55.4 48.8,53.5 48.1,54.2 50,56.1 48.1,58 48.8,58.7 50.7,56.8 52.6,58.7 53.3,58 
		51.4,56.1 	"/>
	<path d="M58.3,55.4c0.9-0.3,1.4-1,1.4-1.8c0-1.3-1.1-2.1-2.6-2.1c-1.7,0-2.8,1-2.8,2.4h1.2c0-0.9,0.6-1.5,1.6-1.5
		c0.9,0,1.4,0.5,1.4,1.2c0,0.9-0.7,1.3-1.5,1.3h-0.5v1h0.5c0.9,0,1.7,0.5,1.7,1.4c0,0.9-0.7,1.4-1.7,1.4c-1,0-1.7-0.6-1.7-1.6h-1.2
		c0,1.6,1.1,2.6,2.8,2.6c1.7,0,2.9-1,2.9-2.3C59.9,56.4,59.3,55.7,58.3,55.4z"/>
</g>
</svg>
