<?xml version="1.0" encoding="utf-8"?>
<!-- Generator: Adobe Illustrator 25.2.1, SVG Export Plug-In . SVG Version: 6.00 Build 0)  -->
<svg version="1.1" id="Layer_1" xmlns="http://www.w3.org/2000/svg" xmlns:xlink="http://www.w3.org/1999/xlink" x="0px" y="0px"
	 viewBox="0 0 63 63" style="enable-background:new 0 0 63 63;" xml:space="preserve">
<g id="Gymnastics_acrobatic">
	<path d="M30.8,54h-1.3c-0.2,0-0.4,0.1-0.5,0.3L25.4,63h1.1l3.3-8h0.7l3.3,8h1.1l-3.6-8.7C31.2,54.2,31,54,30.8,54z"/>
	<path d="M53.3,21.8h-8.7v-7.3c0-0.1,0-0.2,0-0.3c0,0,0-0.1,0-0.1c0,0,0,0,0-0.1c0,0,0,0,0-0.1c0-0.1,0-0.1,0-0.2
		c0-0.1-0.1-0.3-0.1-0.4c0,0,0,0,0-0.1c0,0,0,0,0-0.1c0,0,0-0.1,0-0.1c-0.1-0.2-0.2-0.4-0.3-0.5c0,0,0,0,0,0c0,0,0,0,0,0
		c-0.1-0.2-0.2-0.3-0.4-0.5c0,0,0-0.1-0.1-0.1c-0.2-0.2-0.4-0.3-0.5-0.4c-1.4-0.9-3.2-0.7-4.4,0.4l-7.8,7.8c-0.7,0.7-1,1.5-1,2.5
		c0,0,0,0,0,0v0c0,0,0,0,0,0s0,0,0,0v2c0,1.4,1.1,2.5,2.5,2.5h7.3v3.7c0,0,0,0,0,0V36H10.1c-1.4,0-2.5,1.1-2.5,2.5S8.7,41,10.1,41
		h15.5v9.5V52l-4.6,11h1.1l4.4-10.7c0-0.1,0-0.1,0-0.2V51h7v1.1c0,0.1,0,0.1,0,0.2L38.1,63h1.1l-4.6-11v-1.5V41h7.5
		c1.4,0,2.5-1.1,2.5-2.5v-8c0,0,0,0,0,0v-3.7h8.7c1.4,0,2.5-1.1,2.5-2.5S54.7,21.8,53.3,21.8z M33.4,25.8L33.4,25.8h-1
		c-0.6,0-1.2-0.4-1.4-0.9c-0.1-0.2-0.1-0.4-0.1-0.6V24v-1.2h0h2.2h1.4h1.8h0h0.7h0.7h0h1.8v3H33.4z M38.8,21.8l0.8-0.8v0.8H38.8z
		 M43.6,38.5c0,0.8-0.7,1.5-1.5,1.5h-8c-0.3,0-0.5,0.2-0.5,0.5V50h-7v-9.5c0-0.3-0.2-0.5-0.5-0.5h-16c-0.8,0-1.5-0.7-1.5-1.5
		S9.3,37,10.1,37h30c0.3,0,0.5-0.2,0.5-0.5v-4c0.4,0.3,0.9,0.5,1.5,0.5c0.6,0,1.1-0.2,1.5-0.5V38.5z M43.6,30.6
		c0,0.8-0.7,1.5-1.5,1.5c-0.8,0-1.5-0.7-1.5-1.5v0c0-0.8,0.7-1.5,1.5-1.5C42.9,29,43.6,29.7,43.6,30.6L43.6,30.6z M43.6,16.2V17v0
		v4.8v0.5v0.5v3v0.5v0.5v1.7c-0.4-0.3-0.9-0.5-1.5-0.5c-0.6,0-1.1,0.2-1.5,0.5v-1.7v-0.5v-0.5v-3v-0.5v-0.5V20v0v-0.7v-0.7v0v-1
		c0-0.2-0.1-0.3-0.2-0.4c-0.1,0-0.2-0.1-0.3-0.1c-0.3,0-0.5,0.2-0.5,0.5v2l-2.2,2.2h-3.8h-1.4h-1.2c0.1-0.3,0.2-0.6,0.4-0.9
		c0.1-0.1,0.2-0.3,0.3-0.4l7.8-7.8c0.2-0.2,0.4-0.3,0.6-0.4c0,0,0.1,0,0.1-0.1c0.3-0.2,0.7-0.3,1.1-0.3c0.1,0,0.1,0,0.2,0
		c0,0,0.1,0,0.1,0c0.2,0,0.4,0.1,0.6,0.2c0.3,0.1,0.6,0.3,0.8,0.5c0,0,0.1,0.1,0.1,0.1l0,0l0,0c0.1,0.1,0.2,0.2,0.2,0.3
		c0,0,0,0.1,0.1,0.1c0,0,0,0,0,0c0.1,0.1,0.1,0.2,0.1,0.3c0,0,0,0,0,0c0,0,0,0.1,0,0.1c0,0.1,0.1,0.2,0.1,0.4c0,0,0,0,0,0
		c0,0,0,0,0,0c0,0,0,0,0,0c0,0.1,0,0.1,0,0.2c0,0.1,0,0.2,0,0.3c0,0,0,0,0,0V16.2z M53.3,25.8h-8.7v-3h8.7c0.8,0,1.5,0.7,1.5,1.5
		S54.2,25.8,53.3,25.8z"/>
	<path d="M46.8,12.4c0.9,0,1.8-0.4,2.5-1s1-1.5,1-2.5c0-0.9-0.4-1.8-1-2.5c-1.4-1.4-3.6-1.4-4.9,0c-0.7,0.7-1,1.5-1,2.5
		c0,0.9,0.4,1.8,1,2.5S45.8,12.4,46.8,12.4z M45,7.1c0.5-0.5,1.1-0.7,1.8-0.7s1.3,0.2,1.8,0.7c0.5,0.5,0.7,1.1,0.7,1.8
		c0,0.7-0.3,1.3-0.7,1.8c-0.9,0.9-2.6,0.9-3.5,0c-0.5-0.5-0.7-1.1-0.7-1.8C44.3,8.2,44.5,7.6,45,7.1z"/>
	<path d="M30.1,35c1.9,0,3.5-1.6,3.5-3.5S32,28,30.1,28s-3.5,1.6-3.5,3.5S28.2,35,30.1,35z M30.1,29c1.4,0,2.5,1.1,2.5,2.5
		c0,1.4-1.1,2.5-2.5,2.5s-2.5-1.1-2.5-2.5C27.6,30.2,28.7,29,30.1,29z"/>
</g>
</svg>
