<?xml version="1.0" encoding="utf-8"?>
<!-- Generator: Adobe Illustrator 25.2.1, SVG Export Plug-In . SVG Version: 6.00 Build 0)  -->
<svg version="1.1" id="Layer_1" xmlns="http://www.w3.org/2000/svg" xmlns:xlink="http://www.w3.org/1999/xlink" x="0px" y="0px"
	 viewBox="0 0 63 63" style="enable-background:new 0 0 63 63;" xml:space="preserve">
<style type="text/css">
	.st0{fill:#2A76BC;}
</style>
<g id="Diving">
	<path class="st0" d="M56.7,53.9l-0.8-0.8c-0.2-0.2-0.5-0.2-0.7,0l-0.8,0.8c-1.6,1.5-4.1,1.5-5.7,0l-0.8-0.8c-0.2-0.2-0.5-0.2-0.7,0
		l-0.8,0.8c-1.5,1.4-4.2,1.4-5.7,0l-0.8-0.8c-0.2-0.2-0.5-0.2-0.7,0l-0.8,0.8c-1.5,1.4-4.2,1.4-5.7,0l-0.8-0.8
		c-0.2-0.2-0.5-0.2-0.7,0l-0.8,0.8c-1.6,1.5-4.1,1.5-5.7,0l-0.8-0.8c-0.2-0.2-0.5-0.2-0.7,0l-0.8,0.8c-1.6,1.5-4.1,1.5-5.7,0
		l-0.8-0.8c-0.2-0.2-0.5-0.2-0.7,0l-0.8,0.8c-1.6,1.5-4.1,1.5-5.7,0l-0.8-0.8c-0.2-0.2-0.5-0.2-0.7,0l-0.8,0.8
		c-1.6,1.5-4.1,1.5-5.7,0L0,53.3v1.4c1.9,1.8,5.1,1.8,7,0l0.5-0.4L8,54.7c1.9,1.8,5.1,1.8,7,0l0.5-0.4l0.5,0.4c1.9,1.8,5.1,1.8,7,0
		l0.5-0.4l0.5,0.4c1.9,1.8,5.1,1.8,7,0l0.5-0.4l0.5,0.4c0.9,0.9,2.2,1.4,3.5,1.4c1.3,0,2.6-0.5,3.5-1.4l0.5-0.4l0.5,0.4
		c0.9,0.9,2.2,1.4,3.5,1.4c1.3,0,2.6-0.5,3.5-1.4l0.5-0.4l0.5,0.4c1.9,1.8,5.1,1.8,7,0l0.5-0.4l0.5,0.4c0.9,0.9,2.2,1.4,3.5,1.4
		c1.3,0,2.6-0.5,3.5-1.4v-1.4l-0.7,0.6C60.8,55.4,58.2,55.4,56.7,53.9z"/>
	<path d="M40,22.5c-1.9,0-3.5,1.6-3.5,3.5s1.6,3.5,3.5,3.5s3.5-1.6,3.5-3.5S41.9,22.5,40,22.5z M40,28.5c-1.4,0-2.5-1.1-2.5-2.5
		s1.1-2.5,2.5-2.5s2.5,1.1,2.5,2.5S41.4,28.5,40,28.5z"/>
	<path d="M41.7,20.8C41.7,20.8,41.7,20.8,41.7,20.8c1.4-1.4,1.4-3.6,0-5L34,8.1c-0.7-0.7-1.5-1-2.5-1h-2C28.1,7,27,8.2,27,9.5v10.9
		l-2.4,2.4c-1,1-1,2.6,0,3.5c0.5,0.5,1.1,0.7,1.8,0.7c0.2,0,0.5,0,0.7-0.1v3.5c0,1.4,1.1,2.5,2.5,2.5s2.5-1.1,2.5-2.5l0-8l1-1h7
		C40.6,21.5,41.3,21.3,41.7,20.8z M28,10.6L28,10.6v-1c0-0.6,0.4-1.2,1-1.4C29.1,8.1,29.3,8,29.5,8H31v0.1l0,5.5l0,1.4l0,1.7
		c-0.3,0.1-0.6,0.3-0.8,0.5L28,19.5V10.6z M29.5,32c-0.8,0-1.5-0.7-1.5-1.5v-4c0,0,0.1,0,0.1-0.1l2.9-2.9l0,7
		C31,31.4,30.3,32,29.5,32z M36.5,20.5h-3.7c-0.1,0-0.3,0.1-0.4,0.1L32,21.1l-0.5,0.5L31,22.1l-3,3l-0.5,0.5l-0.1,0.1
		c-0.1,0.1-0.2,0.2-0.4,0.3c-0.6,0.3-1.3,0.2-1.7-0.3c-0.6-0.6-0.6-1.5,0-2.1l1.7-1.7l0.5-0.5l0.5-0.5l2.9-2.9c0,0,0.1,0,0.1-0.1
		c0.1-0.1,0.3-0.2,0.5-0.3c0.2-0.1,0.3-0.1,0.5-0.1h0h1.5h1.4h2c0.2,0,0.3-0.1,0.4-0.2c0.1-0.1,0.1-0.2,0.1-0.3
		c0-0.3-0.2-0.5-0.5-0.5h-3L32,14.6l0-6.5c0.5,0.1,0.9,0.3,1.3,0.7l7.8,7.8c1,1,1,2.5,0,3.5c0,0,0,0,0,0c0,0,0,0-0.1,0
		c-0.3,0.3-0.6,0.4-1,0.4h-2.3H36.5z M32,16l0.5,0.5H32L32,16z"/>
</g>
</svg>
