<?xml version="1.0" encoding="utf-8"?>
<!-- Generator: Adobe Illustrator 25.2.1, SVG Export Plug-In . SVG Version: 6.00 Build 0)  -->
<svg version="1.1" id="Layer_1" xmlns="http://www.w3.org/2000/svg" xmlns:xlink="http://www.w3.org/1999/xlink" x="0px" y="0px"
	 viewBox="0 0 63 63" style="enable-background:new 0 0 63 63;" xml:space="preserve">
<style type="text/css">
	.st0{fill:#FCB019;}
</style>
<g id="Equestrian_x2F_Dressage">
	<path class="st0" d="M13.7,35c-3.3,0-6.5,1.3-8.8,3.7l-0.5,0.5c-0.2,0.2-0.2,0.5,0,0.7C4.5,40,4.6,40,4.7,40s0.3,0,0.4-0.1l0.5-0.5
		c2.1-2.1,5.1-3.4,8.1-3.4h13l-1-1H13.7z"/>
	<path class="st0" d="M34.9,31.7c-1,1-2,1.7-3.2,2.3l0.8,0.8c1.2-0.6,2.2-1.4,3.2-2.3L41,27h-1.4L34.9,31.7z"/>
	<path class="st0" d="M58.7,17h-2h-2c-3.3,0-6.5,1.3-8.8,3.7l-2.6,2.6c0.2,0.3,0.3,0.7,0.3,1.1l3-3c2.2-2.2,5.1-3.4,8.1-3.4h1.5
		v13.6c0,0.8-0.6,1.4-1.4,1.4c-0.5,0-1-0.3-1.2-0.7l-2.4-4.1C51,28,50.7,28,50.5,28.1c-0.2,0.1-0.3,0.4-0.2,0.7l2.4,4.1
		c0.4,0.7,1.2,1.2,2.1,1.2c1.3,0,2.4-1.1,2.4-2.4V18h1.5c0.3,0,0.5-0.2,0.5-0.5S59,17,58.7,17z"/>
	<path d="M26.7,15c1.9,0,3.5-1.6,3.5-3.5S28.7,8,26.7,8s-3.5,1.6-3.5,3.5S24.8,15,26.7,15z M26.7,9c1.4,0,2.5,1.1,2.5,2.5
		S28.1,14,26.7,14s-2.5-1.1-2.5-2.5S25.3,9,26.7,9z"/>
	<path d="M41.1,22h-7l-4.9-4.9c-0.1-0.1-0.2-0.2-0.3-0.3c0,0,0,0-0.1-0.1c-0.2-0.1-0.4-0.3-0.6-0.4c0,0,0,0-0.1,0
		c-0.2-0.1-0.3-0.1-0.5-0.2c0,0-0.1,0-0.1,0c-0.2,0-0.5-0.1-0.7-0.1c-1.9,0-3.5,1.6-3.5,3.5v11v2c0,1.4,1.1,2.5,2.5,2.5l0,0l1,1
		l4.6,4.6v9c0,1.4,1.1,2.5,2.5,2.5s2.5-1.1,2.5-2.5v-10c0-0.7-0.3-1.3-0.7-1.8l-3.2-3.2l-0.8-0.8l-1.4-1.4v-2v-5.4l1.1,1.1
		c0.5,0.5,1.1,0.7,1.8,0.7c0,0,0,0,0,0h6.5H41h0.1c1.4,0,2.5-1.1,2.5-2.5c0,0,0-0.1,0-0.1c0-0.4-0.1-0.8-0.3-1.1
		C42.8,22.5,42,22,41.1,22z M35.3,49.6c0,0.8-0.7,1.5-1.5,1.5s-1.5-0.7-1.5-1.5v-9.2c0-0.1-0.1-0.3-0.1-0.4L28,36L27.1,35l-0.8-0.8
		C26.2,34.1,26,34,25.9,34h-0.2c-0.8,0-1.5-0.7-1.5-1.5V31h5v1.7c0,0.1,0.1,0.3,0.1,0.4l1.3,1.3l0.8,0.8l3.4,3.4
		c0.3,0.3,0.4,0.7,0.4,1.1V49.6z M29.2,30h-5V19.5c0-1.4,1.1-2.5,2.5-2.5c0,0,0.1,0,0.1,0l0,0c0.1,0,0.3,0,0.4,0c0,0,0.1,0,0.1,0
		c0.1,0,0.3,0.1,0.4,0.1c0,0,0,0,0.1,0c0.1,0.1,0.2,0.1,0.4,0.2c0,0,0.1,0,0.1,0.1c0.1,0.1,0.2,0.1,0.3,0.2l1.7,1.7l3.3,3.3
		c0.1,0.1,0.2,0.1,0.4,0.1h7.2c0.7,0,1.2,0.4,1.4,1.1c0,0.1,0.1,0.3,0.1,0.4c0,0.8-0.7,1.5-1.5,1.5h-0.5h-7.5c0,0,0,0,0,0
		c-0.4,0-0.8-0.2-1.1-0.4l-1.8-1.8l-1-1L28.5,22c-0.1-0.1-0.3-0.2-0.5-0.1c-0.1,0-0.2,0.1-0.2,0.1c-0.2,0.2-0.2,0.5,0,0.7l1.4,1.4
		V30z"/>
</g>
</svg>
