<?xml version="1.0" encoding="utf-8"?>
<!-- Generator: Adobe Illustrator 25.2.1, SVG Export Plug-In . SVG Version: 6.00 Build 0)  -->
<svg version="1.1" id="Layer_1" xmlns="http://www.w3.org/2000/svg" xmlns:xlink="http://www.w3.org/1999/xlink" x="0px" y="0px"
	 viewBox="0 0 63 63" style="enable-background:new 0 0 63 63;" xml:space="preserve">
<style type="text/css">
	.st0{fill:#2A76BC;}
	.st1{fill:#EE2B2F;}
</style>
<g id="Futsal">
	<rect y="55.1" class="st0" width="63" height="1"/>
	<path d="M31.5,15.8c1.9,0,3.5-1.6,3.5-3.5s-1.6-3.5-3.5-3.5S28,10.4,28,12.3S29.6,15.8,31.5,15.8z M31.5,9.8c1.4,0,2.5,1.1,2.5,2.5
		s-1.1,2.5-2.5,2.5S29,13.7,29,12.3S30.1,9.8,31.5,9.8z"/>
	<path d="M51.4,16.8H27.5c-0.7,0-1.3,0.3-1.8,0.7L14.5,28.8c-0.9,0.9-1,2.3-0.3,3.3c0.4,0.6,1.1,1,1.8,1c0.1,0,0.1,0,0.2,0
		c0.7,0,1.3-0.3,1.8-0.7l9-9v8v1l-5.6,5.6h-8.9c-1.3,0-2.4,0.9-2.6,2.1c-0.1,0.7,0.1,1.5,0.6,2s1.2,0.9,1.9,0.9h10
		c0.7,0,1.3-0.3,1.8-0.7l6.3-6.3h1.3l3,7.2v9.4c0,1.3,0.9,2.4,2.1,2.6c0.1,0,0.3,0,0.4,0c0.6,0,1.2-0.2,1.6-0.6
		c0.6-0.5,0.9-1.2,0.9-1.9v-10c0-0.3-0.1-0.7-0.2-1l0,0c0,0,0,0,0,0l-1.4-3.4L36,32.8v-1.5v-9.5h15.5c0.7,0,1.4-0.3,1.9-0.9
		c0.5-0.6,0.7-1.3,0.6-2C53.8,17.7,52.7,16.8,51.4,16.8z M38.8,52.6c0,0.4-0.2,0.9-0.5,1.1c-0.3,0.3-0.8,0.4-1.2,0.3
		c-0.7-0.1-1.2-0.8-1.2-1.6v-9.5c0-0.1,0-0.1,0-0.2l-3.2-7.6c-0.1-0.2-0.3-0.3-0.5-0.3h-1.8c-0.1,0-0.3,0.1-0.4,0.1l-6.5,6.5
		c-0.3,0.3-0.7,0.4-1.1,0.4h-10c-0.4,0-0.9-0.2-1.1-0.5c-0.3-0.3-0.4-0.8-0.3-1.2c0.1-0.7,0.8-1.2,1.6-1.2h9.1
		c0.1,0,0.3-0.1,0.4-0.1l5.9-5.9c0.1-0.1,0.1-0.2,0.1-0.4v-0.7h7v1.1v0c0,0.1,0,0.1,0,0.2l3.7,8.9c0.1,0.2,0.1,0.4,0.1,0.6V52.6z
		 M52.6,20.3c-0.3,0.3-0.7,0.5-1.1,0.5h-16c-0.3,0-0.5,0.2-0.5,0.5v9.5h-7v-8.7c0-0.2-0.1-0.4-0.3-0.5c-0.2-0.1-0.4,0-0.5,0.1
		l-9.9,9.9c-0.3,0.3-0.7,0.5-1.2,0.4c-0.4,0-0.8-0.3-1.1-0.6c-0.4-0.6-0.3-1.4,0.2-2l11.2-11.2c0.3-0.3,0.7-0.4,1.1-0.4h23.9
		c0.8,0,1.5,0.5,1.6,1.2C53,19.5,52.9,19.9,52.6,20.3z"/>
	<path class="st1" d="M22.4,48.1c-1.9,0-3.5,1.6-3.5,3.5s1.6,3.5,3.5,3.5s3.5-1.6,3.5-3.5S24.3,48.1,22.4,48.1z M22.4,54.1
		c-1.4,0-2.5-1.1-2.5-2.5s1.1-2.5,2.5-2.5s2.5,1.1,2.5,2.5S23.8,54.1,22.4,54.1z"/>
</g>
</svg>
