<?xml version="1.0" encoding="utf-8"?>
<!-- Generator: Adobe Illustrator 25.2.1, SVG Export Plug-In . SVG Version: 6.00 Build 0)  -->
<svg version="1.1" id="Layer_1" xmlns="http://www.w3.org/2000/svg" xmlns:xlink="http://www.w3.org/1999/xlink" x="0px" y="0px"
	 viewBox="0 0 63 63" style="enable-background:new 0 0 63 63;" xml:space="preserve">
<style type="text/css">
	.st0{fill:#00A64F;}
</style>
<g id="Golf">
	<path class="st0" d="M36,13.4c-0.1,0.4-0.2,0.7-0.4,1h2.7l1-1H36z"/>
	<path class="st0" d="M20.6,13.4c-1.7,0-3.2,0.8-4.1,2.2l-0.3,0.5c-0.5,0.7-0.3,1.6,0.4,2.1c0.3,0.2,0.5,0.2,0.8,0.2
		c0.5,0,1-0.2,1.3-0.7l2.2-3.4h8.7c-0.2-0.3-0.3-0.6-0.4-1H20.6z M17.8,17.2c-0.2,0.2-0.5,0.3-0.7,0.1c-0.2-0.2-0.3-0.5-0.1-0.7
		l0.3-0.5c0.5-0.8,1.4-1.4,2.3-1.6L17.8,17.2z"/>
	<path d="M36.1,12.5c0-1.9-1.6-3.5-3.5-3.5s-3.5,1.6-3.5,3.5c0,0.3,0,0.6,0.1,0.8c0.1,0.4,0.2,0.7,0.4,1c0.6,1,1.7,1.7,3,1.7
		s2.3-0.7,3-1.7c0.2-0.3,0.3-0.6,0.4-1C36,13.1,36.1,12.8,36.1,12.5z M34.9,13.4c-0.1,0.4-0.4,0.7-0.7,1c-0.4,0.4-1,0.7-1.7,0.7
		s-1.2-0.3-1.7-0.7c-0.3-0.3-0.5-0.6-0.7-1c-0.1-0.3-0.2-0.5-0.2-0.8c0-1.4,1.1-2.5,2.5-2.5s2.5,1.1,2.5,2.5
		C35.1,12.8,35,13.1,34.9,13.4z"/>
	<path d="M44.8,11.4c-0.5,0-1,0.1-1.4,0.3c-1-0.5-2.2-0.3-3,0.5l-1.2,1.2l-1,1L35.6,17h-6.9h-0.1c-0.7,0-1.3,0.3-1.8,0.7
		c0,0-0.1,0.1-0.1,0.2c0,0,0,0-0.1,0.1c-0.1,0.1-0.1,0.2-0.2,0.3c-0.1,0.1-0.1,0.2-0.2,0.3c0,0,0,0.1-0.1,0.1
		c-0.1,0.1-0.1,0.3-0.1,0.4c0,0,0,0,0,0c0,0.1,0,0.2,0,0.3c0,0.1,0,0.2,0,0.3c0,0,0,0,0,0c0,0.1,0,0.2,0.1,0.3c0,0,0,0.1,0,0.1
		c0,0,0,0.1,0,0.1c0.1,0.3,0.2,0.6,0.5,0.8c0.4,0.4,0.9,0.7,1.4,0.8v9.6v11l-6.3,6.3c-1,1-1,2.6,0,3.5c1,1,2.6,1,3.5,0l6.8-6.8v8
		c0,1.4,1.1,2.5,2.5,2.5s2.5-1.1,2.5-2.5v-22V22h7.5c1.4,0,2.5-1.1,2.5-2.5V14C47.1,12.6,46.1,11.5,44.8,11.4z M36.1,53.5
		c0,0.8-0.7,1.5-1.5,1.5s-1.5-0.7-1.5-1.5v-10v-8c0-0.3-0.2-0.5-0.5-0.5s-0.5,0.2-0.5,0.5v8c0,0.4-0.2,0.8-0.4,1.1l-7.1,7.1
		c-0.6,0.6-1.5,0.6-2.1,0c-0.6-0.6-0.6-1.5,0-2.1l6.5-6.5c0.1-0.1,0.1-0.2,0.1-0.4V32h7V53.5z M36.1,31h-7v-9h7V31z M36.6,21h-7.9
		c-0.8,0-1.4-0.5-1.6-1.2c0,0,0-0.1,0-0.1c0,0,0,0,0,0c0-0.1,0-0.1,0-0.2c0,0,0-0.1,0-0.1c0,0,0-0.1,0-0.1c0-0.1,0.1-0.3,0.2-0.4
		c0,0,0,0,0,0c0.1-0.1,0.1-0.2,0.2-0.3c0.3-0.3,0.6-0.4,1.1-0.4h0.1h7.1c0.1,0,0.3-0.1,0.4-0.1l0.4-0.4L37,17l2.7-2.7l1-1l0.5-0.5
		c0.4-0.4,1-0.6,1.5-0.5c0.2,0,0.3,0.1,0.5,0.2c0,0,0,0,0.1,0c0,0,0,0,0,0c0.1,0.1,0.2,0.2,0.3,0.3c0.2,0.2,0.3,0.5,0.3,0.8
		c0,0.4-0.1,0.9-0.4,1.2l-0.2,0.2l-0.5,0.5l-0.5,0.5L41.2,17l-0.5,0.5L40.2,18l-2.6,2.6C37.4,20.9,37,21,36.6,21z M46.1,19.5
		c0,0.8-0.7,1.5-1.5,1.5h-6l3-3h1c0.3,0,0.5-0.2,0.5-0.5v-1l0.9-0.9c0.5-0.5,0.8-1.2,0.7-2c0-0.5-0.2-0.9-0.5-1.3
		c0.2,0,0.3-0.1,0.5,0c0.8,0.1,1.4,0.8,1.4,1.6V19.5z"/>
</g>
</svg>
