<?xml version="1.0" encoding="utf-8"?>
<!-- Generator: Adobe Illustrator 25.2.1, SVG Export Plug-In . SVG Version: 6.00 Build 0)  -->
<svg version="1.1" id="Layer_1" xmlns="http://www.w3.org/2000/svg" xmlns:xlink="http://www.w3.org/1999/xlink" x="0px" y="0px"
	 viewBox="0 0 63 63" style="enable-background:new 0 0 63 63;" xml:space="preserve">
<style type="text/css">
	.st0{fill:#FCB019;}
	.st1{fill:#00A64F;}
</style>
<g id="Hockey">
	<path class="st0" d="M56.9,46c-1.1,0-2,0.9-2,2s0.9,2,2,2s2-0.9,2-2S58,46,56.9,46z M56.9,49c-0.6,0-1-0.4-1-1s0.4-1,1-1s1,0.4,1,1
		S57.4,49,56.9,49z"/>
	<path class="st1" d="M51,45.8c-0.2,0.2-0.2,0.5,0,0.7c0.3,0.3,0.4,0.7,0.4,1.1c0,0.4-0.2,0.8-0.4,1.1c-0.6,0.6-1.5,0.6-2.1,0
		L36.6,36.3c-0.2,0.3-0.4,0.5-0.6,0.7c0,0-0.1,0-0.1,0l12.3,12.3c0.5,0.5,1.1,0.7,1.8,0.7c0.6,0,1.3-0.2,1.8-0.7
		c0.5-0.5,0.7-1.1,0.7-1.8s-0.3-1.3-0.7-1.8C51.5,45.6,51.2,45.6,51,45.8z"/>
	<path d="M33.5,19.1c0.9,0,1.8-0.3,2.5-1c0.7-0.7,1-1.5,1-2.5c0-0.9-0.4-1.8-1-2.5c-1.4-1.4-3.6-1.4-5,0c-1.4,1.4-1.4,3.6,0,4.9
		C31.7,18.8,32.6,19.1,33.5,19.1z M31.7,13.8c0.5-0.5,1.1-0.7,1.8-0.7c0.6,0,1.3,0.2,1.8,0.7c0.5,0.5,0.7,1.1,0.7,1.8
		c0,0.7-0.3,1.3-0.7,1.8c-1,1-2.6,1-3.5,0C30.8,16.4,30.8,14.8,31.7,13.8z"/>
	<path d="M36.6,36.3c0.2-0.3,0.4-0.7,0.4-1.2c0.1-0.7-0.2-1.5-0.7-2l-4.9-4.9v-7c0-0.9-0.4-1.8-1-2.5c-1.3-1.3-3.6-1.3-4.9,0
		l-7.8,7.8c0,0,0,0,0,0L16.2,28c-1,1-1,2.5,0,3.5V38H8.7c-1.4,0-2.5,1.1-2.5,2.5S7.3,43,8.7,43h10c1.4,0,2.5-1.1,2.5-2.5v-4l2.1,2.1
		v8.9c0,1.3,0.9,2.4,2.1,2.6c0.1,0,0.3,0,0.4,0c0.6,0,1.2-0.2,1.6-0.6c0.6-0.5,0.9-1.2,0.9-1.9v-10c0-0.7-0.3-1.3-0.7-1.8l-4.6-4.6
		l3.5-3.5v1.6c0,0.7,0.3,1.3,0.7,1.8l5.6,5.6c0.5,0.5,1.2,0.8,1.9,0.8c0.5,0,0.9-0.1,1.3-0.4c0,0,0.1,0,0.1,0
		C36.2,36.8,36.4,36.5,36.6,36.3z M20.2,40.5c0,0.8-0.7,1.5-1.5,1.5h-10c-0.8,0-1.5-0.7-1.5-1.5S7.8,39,8.7,39h8
		c0.3,0,0.5-0.2,0.5-0.5v-6l3,3V40.5z M26.8,36.5c0.3,0.3,0.4,0.7,0.4,1.1v10c0,0.4-0.2,0.9-0.5,1.1c-0.3,0.3-0.8,0.4-1.2,0.3
		c-0.7-0.1-1.2-0.8-1.2-1.6v-9.1c0-0.1-0.1-0.3-0.1-0.4l-2.9-2.9l-0.5-0.5l-0.5-0.5l-3-3l-0.3-0.3c-0.1-0.1-0.2-0.2-0.2-0.4
		c-0.3-0.6-0.2-1.3,0.2-1.8c0,0,0,0,0,0l1.1-1.1l0.4,0.4l0.5,0.5l1.9,1.9l0.5,0.5L26.8,36.5z M35.8,35.6c-0.1,0.2-0.3,0.4-0.5,0.6
		c-0.1,0.1-0.2,0.1-0.2,0.1c-0.6,0.3-1.3,0.1-1.8-0.3l-5.6-5.6c-0.3-0.3-0.4-0.7-0.4-1.1v-2.6v-1.4v-1c0-0.2-0.1-0.3-0.2-0.4
		c-0.1,0-0.2-0.1-0.3-0.1c-0.3,0-0.5,0.2-0.5,0.5v2l-4.2,4.2l-3.5-3.5l7.4-7.4c0.9-0.9,2.6-0.9,3.5,0c0,0,0.1,0.1,0.1,0.1
		c0.4,0.5,0.7,1,0.7,1.7v2.4v4.7c0,0.1,0.1,0.3,0.1,0.4l5.1,5.1c0.3,0.3,0.5,0.7,0.4,1.2C36,35.2,35.9,35.4,35.8,35.6z"/>
</g>
</svg>
