<?xml version="1.0" encoding="utf-8"?>
<!-- Generator: Adobe Illustrator 25.2.1, SVG Export Plug-In . SVG Version: 6.00 Build 0)  -->
<svg version="1.1" id="Layer_1" xmlns="http://www.w3.org/2000/svg" xmlns:xlink="http://www.w3.org/1999/xlink" x="0px" y="0px"
	 viewBox="0 0 63 63" style="enable-background:new 0 0 63 63;" xml:space="preserve">
<g id="Karate">
	<path d="M49.6,12.8c-1.4-1.4-3.6-1.4-5,0c-1.4,1.4-1.4,3.6,0,4.9c0.7,0.7,1.6,1,2.5,1c0.9,0,1.8-0.3,2.5-1
		C51,16.4,51,14.2,49.6,12.8z M48.9,17c-1,1-2.6,1-3.5,0c-1-1-1-2.6,0-3.5c0.5-0.5,1.1-0.7,1.8-0.7c0.6,0,1.3,0.2,1.8,0.7
		C49.9,14.5,49.9,16.1,48.9,17z"/>
	<path d="M46.8,21.3L46.8,21.3l-5.7-5.7c0,0,0,0,0,0c0,0,0,0,0,0c-0.5-0.5-1.1-0.7-1.8-0.7h-5.5V9.4c0-1.4-1.1-2.5-2.5-2.5
		S28.9,8,28.9,9.4v8c0,1.4,1.1,2.5,2.5,2.5h4.8l-3.9,3.9l0,0l-1.4,1.4L18.5,12.8c-0.9-0.9-2.6-0.9-3.5,0c-0.5,0.5-0.7,1.1-0.7,1.8
		s0.3,1.3,0.7,1.8l16.2,16.2v19c0,1.4,1.1,2.5,2.5,2.5s2.5-1.1,2.5-2.5v-19l0.3-0.3l0,0l2.1-2.1l0,0l0.9-0.9l3.6,3.6
		c0.1,0.1,0.2,0.2,0.3,0.2c0,0,0.1,0,0.1,0.1c0.1,0.1,0.2,0.1,0.4,0.2c0,0,0,0,0.1,0c0.1,0.1,0.2,0.1,0.4,0.1c0,0,0.1,0,0.1,0
		c0.2,0,0.3,0.1,0.5,0.1c1.4,0,2.5-1.1,2.5-2.5v-8C47.5,22.4,47.3,21.8,46.8,21.3C46.8,21.3,46.8,21.3,46.8,21.3z M45.2,21.1h-3.9
		c0-0.6,0-1.8,0-3.9L45.2,21.1z M31.4,18.9c-0.8,0-1.5-0.7-1.5-1.5v-8c0-0.8,0.7-1.5,1.5-1.5s1.5,0.7,1.5,1.5v6
		c0,0.3,0.2,0.5,0.5,0.5h6c0.3,0,0.7,0.1,0.9,0.3c0,1.6,0,4,0,4.9h-4l1.4-1.4c0.1-0.1,0.2-0.4,0.1-0.5s-0.3-0.3-0.5-0.3H31.4z
		 M36.5,30.8l-4.9-4.9l0.7-0.7l4.9,4.9L36.5,30.8z M35.4,32c-0.1,0.1-0.1,0.2-0.1,0.4v19.2c0,0.8-0.7,1.5-1.5,1.5s-1.5-0.7-1.5-1.5
		V32.4c0-0.1-0.1-0.3-0.1-0.4L15.7,15.6c-0.3-0.3-0.4-0.7-0.4-1.1c0-0.4,0.2-0.8,0.4-1.1s0.7-0.4,1.1-0.4c0.4,0,0.8,0.2,1.1,0.4
		l18,18L35.4,32z M46.5,31.1c0,0.8-0.7,1.5-1.5,1.5c0,0,0,0-0.1,0v0c-0.1,0-0.2,0-0.2,0c0,0,0,0-0.1,0c-0.1,0-0.1,0-0.2-0.1
		c0,0,0,0,0,0c-0.1,0-0.1-0.1-0.2-0.1c0,0,0,0,0,0c-0.1,0-0.1-0.1-0.2-0.2l-1.4-1.4l-2.2-2.2l-0.7-0.7l-1.3-1.3
		c-0.6-0.6-0.6-1.5,0-2.1c0.6-0.6,1.6-0.6,2.1,0l1.3,1.3l0.7,0.7l0.1,0.1l1,1l0.4,0.4c0.1,0.1,0.3,0.2,0.4,0.1
		c0.1,0,0.2-0.1,0.3-0.1c0.2-0.2,0.2-0.5,0-0.7L43.5,26v-1c0-0.2-0.1-0.4-0.3-0.5c-0.1,0-0.1,0-0.2,0c-0.1,0-0.3,0.1-0.4,0.1
		l-0.2,0.2l-1.3-1.3c-1-1-2.6-1-3.5,0c-1,1-1,2.6,0,3.5l1.3,1.3L38,29.4L33,24.5l2.3-2.3h5.4h5.4c0.2,0.3,0.3,0.6,0.3,0.9V31.1z"/>
</g>
</svg>
