<?xml version="1.0" encoding="utf-8"?>
<!-- Generator: Adobe Illustrator 25.2.1, SVG Export Plug-In . SVG Version: 6.00 Build 0)  -->
<svg version="1.1" id="Layer_1" xmlns="http://www.w3.org/2000/svg" xmlns:xlink="http://www.w3.org/1999/xlink" x="0px" y="0px"
	 viewBox="0 0 63 63" style="enable-background:new 0 0 63 63;" xml:space="preserve">
<style type="text/css">
	.st0{fill:#EE2B2F;}
</style>
<g id="Gymnastics_rhythmic">
	<path class="st0" d="M14.7,22.2c1.3-0.4,2.4-1.4,3-2.6l2.9-5.9c0.6-1.2,1.8-2.1,3.1-2.3c1.4-0.2,2.7,0.2,3.7,1.2c2,2,5.4,2,7.4,0
		L39,8.5l5.5,10.9l0,0.1c0.1-0.1,0.3-0.2,0.5-0.3c0.1-0.1,0.3-0.1,0.4-0.1L39.6,7.4c-0.1-0.1-0.2-0.2-0.4-0.3c-0.2,0-0.3,0-0.4,0.1
		l-4.6,4.6c-1.7,1.7-4.3,1.7-6,0c-1.2-1.2-2.9-1.7-4.5-1.5c-1.7,0.3-3.1,1.3-3.8,2.8l-2.9,5.9c-0.5,1-1.4,1.8-2.5,2.1
		c-1.1,0.4-2.2,0.3-3.2-0.2L0,15.5v1.1l10.7,5.3C11.9,22.6,13.3,22.7,14.7,22.2z"/>
	<path class="st0" d="M47.1,23.7C47.1,23.7,47.1,23.7,47.1,23.7C47.1,23.7,47.1,23.7,47.1,23.7C47.2,23.7,47.2,23.6,47.1,23.7
		C47.2,23.6,47.2,23.6,47.1,23.7C47.2,23.6,47.1,23.7,47.1,23.7z"/>
	<path d="M28.1,24.6c0.4,0,0.9-0.1,1.3-0.3c1.8-0.7,2.6-2.8,1.9-4.6c-0.4-0.9-1-1.5-1.9-1.9c-0.9-0.4-1.8-0.4-2.7,0
		c-0.9,0.4-1.5,1-1.9,1.9c-0.4,0.9-0.4,1.8,0,2.7C25.4,23.8,26.7,24.6,28.1,24.6z M25.7,20.1c0.3-0.6,0.7-1.1,1.4-1.4
		c0.3-0.1,0.6-0.2,1-0.2c0.3,0,0.6,0.1,1,0.2c0.6,0.3,1.1,0.7,1.4,1.4c0.5,1.3-0.1,2.7-1.4,3.3c-1.3,0.5-2.7-0.1-3.3-1.4
		C25.5,21.4,25.5,20.7,25.7,20.1z"/>
	<path d="M44.5,19.4L44.5,19.4l-14.3,5.9l-14.8,6.1c-1.3,0.5-1.9,2-1.4,3.3c0.4,1,1.3,1.5,2.3,1.5c0.3,0,0.6-0.1,1-0.2L28,31.6v7.9
		v2L15.6,53.9c-1,1-1,2.6,0,3.5c0.5,0.5,1.1,0.7,1.8,0.7c0.6,0,1.3-0.2,1.8-0.7L32.5,44h19c1.4,0,2.5-1.1,2.5-2.5S52.9,39,51.5,39
		H35V28.7l11.9-4.9c0.1,0,0.2-0.1,0.3-0.1c0,0,0,0,0,0c0,0,0,0,0.1,0c0,0,0,0,0,0c0,0,0.1,0,0.1-0.1c0,0,0,0,0,0
		c0.1-0.1,0.2-0.2,0.4-0.3c0,0,0.1-0.1,0.1-0.1c0.1-0.1,0.2-0.2,0.2-0.3c0,0,0-0.1,0-0.1c0.1-0.1,0.1-0.2,0.2-0.3c0,0,0,0,0,0
		c0,0,0,0,0,0c0,0,0,0,0-0.1c0.1-0.1,0.1-0.3,0.1-0.4c0,0,0-0.1,0-0.1c0-0.1,0-0.2,0-0.4c0-0.1,0-0.2,0-0.3c0-0.1,0-0.1,0-0.2
		c0-0.2-0.1-0.3-0.1-0.5c-0.1-0.2-0.1-0.3-0.2-0.4c-0.3-0.4-0.7-0.7-1.1-0.9c-0.5-0.2-1-0.2-1.5-0.1c-0.2,0-0.3,0.1-0.4,0.1
		C44.8,19.3,44.6,19.3,44.5,19.4z M16.9,35.1c-0.8,0.3-1.6,0-2-0.8c-0.3-0.8,0-1.6,0.8-2l12.5-5.2l0.4-0.2l0.3-0.1l1.3-0.5l0,0
		c0.1,0,0.1-0.1,0.2-0.1c0.3-0.1,0.6-0.2,1-0.2c1.2,0,2.2,0.9,2.5,2c0,0.2,0,0.3,0,0.5v0.6V39h-5v-7.8l1.2-0.5
		c0.3-0.1,0.4-0.4,0.3-0.7c0,0,0,0,0,0c-0.1-0.2-0.2-0.3-0.4-0.3c-0.1,0-0.1,0-0.2,0c0,0,0,0,0,0L29,30.1l-0.5,0.2L28,30.5
		L16.9,35.1z M18.4,56.7c-0.6,0.6-1.5,0.6-2.1,0c-0.6-0.6-0.6-1.5,0-2.1l12-12c0.4,0.8,1.3,1.4,2.2,1.4h0.6L18.4,56.7z M51.5,40
		c0.8,0,1.5,0.7,1.5,1.5S52.3,43,51.5,43h-18h-0.7h-0.7h-1.6c-0.7,0-1.3-0.5-1.5-1.2c0-0.1,0-0.2,0-0.3v-0.3v-0.7V40h0.5h0.7h1.3
		h0.1h1.3h0.7h1H51.5z M34.9,27.7c-0.3-1.1-1.1-2-2.1-2.4l10.7-4.4c-0.1,0.5-0.1,1.1,0.1,1.6c0.2,0.5,0.6,0.9,1,1.2L34.9,27.7z
		 M45.9,20C45.9,20,45.9,20,45.9,20c0.2,0,0.4,0,0.6,0.1c0.4,0.2,0.7,0.4,0.8,0.8c0.2,0.4,0.2,0.8,0,1.1c0,0,0,0,0,0c0,0,0,0,0,0
		c-0.1,0.1-0.1,0.2-0.2,0.3c0,0,0,0,0,0c0,0.1-0.1,0.1-0.1,0.2c-0.1,0.1-0.3,0.2-0.5,0.3c-0.1,0-0.2,0.1-0.2,0.1
		c-0.3,0.1-0.6,0-0.9-0.1c-0.4-0.2-0.7-0.4-0.8-0.8c-0.3-0.6-0.1-1.3,0.4-1.7c0.1-0.1,0.2-0.2,0.4-0.3C45.5,20,45.7,20,45.9,20z"/>
</g>
</svg>
