<?xml version="1.0" encoding="utf-8"?>
<!-- Generator: Adobe Illustrator 25.2.1, SVG Export Plug-In . SVG Version: 6.00 Build 0)  -->
<svg version="1.1" id="Layer_1" xmlns="http://www.w3.org/2000/svg" xmlns:xlink="http://www.w3.org/1999/xlink" x="0px" y="0px"
	 viewBox="0 0 63 63" style="enable-background:new 0 0 63 63;" xml:space="preserve">
<style type="text/css">
	.st0{fill:#FCB019;}
	.st1{fill:#2A76BC;}
</style>
<g id="Sailing">
	<path class="st0" d="M55.8,0h-1.1L40.3,25.8c0.3,0.1,0.6,0.3,0.9,0.5L55.8,0z"/>
	<path class="st0" d="M41.9,28.7H63v-1H41.9c0,0.2,0.1,0.3,0.1,0.5S42,28.5,41.9,28.7z"/>
	<path class="st1" d="M62.3,45.9c-1.5,1.4-4.2,1.4-5.7,0l-0.8-0.8c-0.2-0.2-0.5-0.2-0.7,0l-0.8,0.8c-1.6,1.5-4.1,1.5-5.7,0l-0.8-0.8
		c-0.2-0.2-0.5-0.2-0.7,0l-0.8,0.8c-1.5,1.4-4.2,1.4-5.7,0l-0.8-0.8c-0.2-0.2-0.5-0.2-0.7,0l-0.8,0.8c-1.6,1.5-4.1,1.5-5.7,0
		l-0.8-0.8c-0.2-0.2-0.5-0.2-0.7,0l-0.8,0.8c-1.6,1.5-4.1,1.5-5.7,0l-0.8-0.8c-0.2-0.2-0.5-0.2-0.7,0l-0.8,0.8
		c-1.6,1.5-4.1,1.5-5.7,0l-0.8-0.8c-0.2-0.2-0.5-0.2-0.7,0l-0.4,0.4l-0.4,0.4c-1.6,1.5-4.1,1.5-5.7,0l-0.8-0.8
		c-0.2-0.2-0.5-0.2-0.7,0l-0.8,0.8c-1.6,1.5-4.1,1.5-5.7,0L0,45.3v1.4c1.9,1.8,5.1,1.8,7,0l0.5-0.4L8,46.7c1.9,1.8,5.1,1.8,7,0
		l0.5-0.4l0.5,0.4c1.9,1.8,5.1,1.8,7,0l0.5-0.4l0.5,0.4c1.9,1.8,5.1,1.8,7,0l0.5-0.4l0.5,0.4c1.9,1.8,5.1,1.8,7,0l0.5-0.4l0.5,0.4
		c0.9,0.9,2.2,1.4,3.5,1.4c1.3,0,2.6-0.5,3.5-1.4l0.5-0.4l0.5,0.4c1.9,1.8,5.1,1.8,7,0l0.5-0.4l0.5,0.4c0.9,0.9,2.2,1.4,3.5,1.4
		c1.3,0,2.6-0.5,3.5-1.4v-1.4L62.3,45.9z"/>
	<path d="M23.9,24.6c1.9,0,3.5-1.6,3.5-3.5s-1.6-3.5-3.5-3.5s-3.5,1.6-3.5,3.5S22,24.6,23.9,24.6z M23.9,18.6c1.4,0,2.5,1.1,2.5,2.5
		s-1.1,2.5-2.5,2.5s-2.5-1.1-2.5-2.5S22.5,18.6,23.9,18.6z"/>
	<path d="M63,45.3v1.4 M63,39H41.5l-1.1-2.7c-0.3-0.6-0.7-1.1-1.4-1.4c-0.6-0.3-1.3-0.3-1.9,0l-6,2.5l-2.8-6.8l11.2,0
		c1.2,0,2.2-0.9,2.5-2c0-0.2,0.1-0.3,0.1-0.5s0-0.3-0.1-0.5c-0.1-0.6-0.4-1-0.8-1.4c-0.3-0.2-0.5-0.4-0.9-0.5
		c-0.2-0.1-0.5-0.1-0.8-0.1l-16,0c0,0,0,0,0,0c-0.3,0-0.7,0.1-1,0.2c-0.9,0.4-1.5,1-1.9,1.9c-0.4,0.9-0.4,1.8,0,2.7l3.6,8.6H9.5
		c-0.2,0-0.4,0.1-0.5,0.3c-0.1,0.2,0,0.4,0.1,0.5l5.6,5.6l0.4-0.4c0.2-0.2,0.5-0.2,0.7,0L10.7,40h13.9l0.2,0.6c0,0,0,0,0,0l0.8,1.9
		c0.3,0.6,0.7,1.1,1.4,1.4c0.3,0.1,0.6,0.2,1,0.2c0.3,0,0.6-0.1,1-0.2L38,40h3.1H63 M63,27.7v1 M25.6,39.8L25.3,39l-3.7-9
		c-0.3-0.6-0.3-1.3,0-1.9c0.3-0.6,0.7-1.1,1.4-1.4c0,0,0.1,0,0.1,0c0.1,0,0.3-0.1,0.5-0.1h0.1h15.9c0.1,0,0.2,0,0.3,0
		c0.3,0.1,0.6,0.2,0.9,0.5c0.1,0.1,0.2,0.3,0.3,0.5C41,27.9,41,28,41,28.2s0,0.3-0.1,0.5c-0.2,0.6-0.8,1-1.4,1l-11.6,0l-0.5,0
		l-0.5,0l-1.3,0c0,0,0,0,0,0c-0.1,0-0.2,0-0.3,0.1C25.1,29.9,25,30,25,30.2c0,0.3,0.2,0.5,0.5,0.5l1.7,0l3,7.2L27.4,39L25.6,39.8z
		 M37.9,39c-0.1,0-0.1,0-0.2,0l-2.3,1l-6.9,2.9c-0.4,0.2-0.8,0.2-1.1,0c-0.4-0.2-0.7-0.4-0.8-0.8L26,40.7l0,0l1.6-0.7l2.4-1l1.1-0.4
		l6.5-2.7c0.4-0.2,0.8-0.2,1.1,0s0.7,0.4,0.8,0.8l1,2.3H37.9z"/>
</g>
</svg>
