<?xml version="1.0" encoding="utf-8"?>
<!-- Generator: Adobe Illustrator 25.2.1, SVG Export Plug-In . SVG Version: 6.00 Build 0)  -->
<svg version="1.1" id="Layer_1" xmlns="http://www.w3.org/2000/svg" xmlns:xlink="http://www.w3.org/1999/xlink" x="0px" y="0px"
	 viewBox="0 0 63 63" style="enable-background:new 0 0 63 63;" xml:space="preserve">
<style type="text/css">
	.st0{fill:#00A64F;}
</style>
<g id="Skateboarding">
	<path d="M31.7,14c1.9,0,3.5-1.6,3.5-3.5S33.7,7,31.7,7s-3.5,1.6-3.5,3.5S29.8,14,31.7,14z M31.7,8c1.4,0,2.5,1.1,2.5,2.5
		S33.1,13,31.7,13s-2.5-1.1-2.5-2.5S30.3,8,31.7,8z"/>
	<path d="M47.6,10.1L42.7,15h-15c-0.7,0-1.3,0.3-1.8,0.8L14.6,27.1c-0.5,0.5-0.7,1.1-0.7,1.8c0,0.7,0.3,1.3,0.7,1.8
		c0.5,0.5,1.1,0.7,1.8,0.7s1.3-0.2,1.8-0.7l9-9.1v8V41l-3.6,8.8c-0.5,1.3,0.1,2.7,1.4,3.3c0.3,0.1,0.6,0.2,1,0.2s0.6-0.1,1-0.2
		c0.6-0.3,1.1-0.7,1.4-1.4l3.8-9.2c0.1-0.3,0.2-0.6,0.2-1V34H40l-2.4,5.8c-0.5,1.3,0.1,2.7,1.4,3.3c1.3,0.5,2.7-0.1,3.3-1.4
		c0,0,3.7-9,3.8-9.2c0.1-0.3,0.2-0.6,0.2-1c0-1.4-1.1-2.5-2.5-2.5h-7.5v-9h7.5c0.7,0,1.3-0.3,1.8-0.7l5.7-5.7c1-1,1-2.6,0-3.5
		C50.2,9.2,48.6,9.2,47.6,10.1z M43.7,30c0.8,0,1.5,0.7,1.5,1.5c0,0.2,0,0.4-0.1,0.6c0,0.1-3.8,9.2-3.8,9.2
		c-0.2,0.4-0.4,0.7-0.8,0.8c-0.4,0.2-0.8,0.2-1.1,0c-0.8-0.3-1.1-1.2-0.8-2l2.7-6.5c0.1-0.2,0-0.3,0-0.5S40.9,33,40.7,33h-9
		c-0.3,0-0.5,0.2-0.5,0.5v8c0,0.2,0,0.4-0.1,0.6l-3.8,9.2c-0.3,0.8-1.2,1.1-2,0.8c-0.8-0.3-1.1-1.2-0.8-2l3.7-8.9c0-0.1,0-0.1,0-0.2
		V30h7.5H43.7z M50.4,12.9l-5.7,5.7c-0.3,0.3-0.7,0.4-1.1,0.4h-8c-0.3,0-0.5,0.2-0.5,0.5V29h-7v-8.7c0-0.2-0.1-0.4-0.3-0.5
		c-0.2-0.1-0.4,0-0.5,0.1l-9.9,9.9c-0.6,0.6-1.5,0.6-2.1,0c-0.3-0.3-0.4-0.7-0.4-1.1c0-0.4,0.2-0.8,0.4-1.1l11.3-11.3
		c0.3-0.3,0.7-0.5,1.1-0.5h15.2c0.1,0,0.3-0.1,0.4-0.1l5.1-5.1c0.6-0.6,1.6-0.6,2.1,0C51,11.4,51,12.4,50.4,12.9z"/>
	<path class="st0" d="M44.1,40.8c-0.2,0.2-0.3,0.5-0.1,0.7c0.2,0.2,0.1,0.5-0.1,0.7L26,55c-0.2,0.2-0.5,0.1-0.7-0.1
		c-0.2-0.2-0.5-0.3-0.7-0.1c-0.2,0.2-0.3,0.5-0.1,0.7c0.3,0.4,0.8,0.6,1.2,0.6c0.3,0,0.6-0.1,0.9-0.3L44.5,43
		c0.7-0.5,0.8-1.4,0.3-2.1C44.6,40.7,44.3,40.7,44.1,40.8z"/>
	<path class="st0" d="M29.5,55.3c-0.3,0-0.5,0-0.7,0.2c-0.2,0.2-0.4,0.4-0.4,0.6c0,0.3,0,0.5,0.2,0.7c0.2,0.3,0.5,0.4,0.8,0.4
		c0.2,0,0.4-0.1,0.6-0.2c0.4-0.3,0.6-0.9,0.2-1.4C30,55.5,29.8,55.4,29.5,55.3z M29.3,56.3L29.3,56.3l0.4-0.3L29.3,56.3z"/>
	<path class="st0" d="M44.8,45.3c-0.3-0.4-0.9-0.6-1.4-0.2s-0.6,0.9-0.2,1.4c0.2,0.3,0.5,0.4,0.8,0.4c0.2,0,0.4-0.1,0.6-0.2
		C45,46.3,45.1,45.7,44.8,45.3C44.8,45.3,44.8,45.3,44.8,45.3z"/>
</g>
</svg>
