<?xml version="1.0" encoding="utf-8"?>
<!-- Generator: Adobe Illustrator 25.2.1, SVG Export Plug-In . SVG Version: 6.00 Build 0)  -->
<svg version="1.1" id="Layer_1" xmlns="http://www.w3.org/2000/svg" xmlns:xlink="http://www.w3.org/1999/xlink" x="0px" y="0px"
	 viewBox="0 0 63 63" style="enable-background:new 0 0 63 63;" xml:space="preserve">
<style type="text/css">
	.st0{fill:#7F7C7C;}
	.st1{fill:#FCB019;}
	.st2{fill:#2A76BC;}
</style>
<g id="Water_polo">
	<path d="M31.5,16c1.9,0,3.5-1.6,3.5-3.5S33.4,9,31.5,9S28,10.6,28,12.5S29.6,16,31.5,16z M31.5,10c1.4,0,2.5,1.1,2.5,2.5
		S32.9,15,31.5,15S29,13.9,29,12.5S30.1,10,31.5,10z"/>
	<path d="M51.5,22c1.4,0,2.5-1.1,2.5-2.5S52.9,17,51.5,17H22v-5.5c0-0.2,0-0.3-0.1-0.5c-0.3,0.3-0.6,0.5-0.9,0.7v5.9
		c0,0.3,0.2,0.5,0.5,0.5h30c0.8,0,1.5,0.7,1.5,1.5S52.3,21,51.5,21h-16c-0.3,0-0.5,0.2-0.5,0.5V31c0.2,0,0.3,0,0.5,0h0c0,0,0,0,0,0
		c0.2,0,0.3,0,0.5,0v-9H51.5z"/>
	<path d="M27.5,21h-8c-0.8,0-1.5-0.7-1.5-1.5v-7.9c-0.4-0.2-0.7-0.4-0.9-0.7c0,0.2-0.1,0.3-0.1,0.5v8c0,1.4,1.1,2.5,2.5,2.5H27v9
		c0.2,0,0.3,0,0.5,0c0,0,0,0,0,0h0c0.2,0,0.3,0,0.5,0v-9.5C28,21.3,27.8,21,27.5,21z"/>
	<path class="st0" d="M20.7,48.8c-0.9,0.9-1,2.3-0.3,3.3c0.4,0.6,1.1,1,1.8,1c0.1,0,0.1,0,0.2,0c0.7,0,1.3-0.3,1.8-0.7l7.1-7.1
		c0.5-0.5,0.7-1.1,0.7-1.8l0-7.5h0.5l5.6,5.6v8.9c0,1.3,0.9,2.4,2.1,2.6c0.7,0.1,1.5-0.1,2-0.6s0.9-1.2,0.9-1.9v-10
		c0-0.7-0.3-1.3-0.7-1.8L36,32.5V32c-0.2,0-0.3,0-0.5,0c-1.1,0-2.2-0.3-3.1-1h-1.9c-0.9,0.7-2,1-3.1,1c-0.2,0-0.3,0-0.5,0v10.5
		L20.7,48.8z M27.9,43.1c0.1-0.1,0.1-0.2,0.1-0.4V32h7v0.7c0,0.1,0.1,0.3,0.1,0.4l6.5,6.5c0.3,0.3,0.4,0.7,0.4,1.1v10
		c0,0.4-0.2,0.9-0.5,1.1c-0.3,0.3-0.8,0.4-1.2,0.3c-0.7-0.1-1.2-0.8-1.2-1.6v-9.1c0-0.1-0.1-0.3-0.1-0.4L33,35.2
		c-0.1-0.1-0.2-0.1-0.4-0.1h-1.2c-0.3,0-0.5,0.2-0.5,0.5l0,8c0,0.4-0.2,0.8-0.4,1.1l-7.1,7.1c-0.3,0.3-0.7,0.5-1.2,0.4
		c-0.4,0-0.8-0.3-1.1-0.6c-0.4-0.6-0.3-1.4,0.2-2L27.9,43.1z"/>
	<polygon class="st0" points="35.5,31 35.5,31 35.5,31 	"/>
	<polygon class="st0" points="27.5,31 27.5,31 27.5,31 	"/>
	<path class="st1" d="M19.5,12c0.5,0,1-0.1,1.5-0.4c0.4-0.2,0.7-0.4,0.9-0.7c0.6-0.6,1.1-1.5,1.1-2.5C23,6.6,21.4,5,19.5,5
		S16,6.6,16,8.5c0,1,0.4,1.9,1.1,2.5c0.3,0.3,0.6,0.5,0.9,0.7C18.5,11.9,19,12,19.5,12z M22,8.5c0,0.6-0.2,1.1-0.5,1.5
		c-0.2,0.3-0.5,0.5-0.7,0.7C20.4,10.9,20,11,19.5,11s-0.9-0.1-1.2-0.3c-0.3-0.2-0.5-0.4-0.7-0.7C17.2,9.6,17,9.1,17,8.5
		C17,7.2,18.1,6,19.5,6S22,7.2,22,8.5z"/>
	<path class="st2" d="M62.3,29.9c-1.5,1.4-4.2,1.4-5.7,0l-0.8-0.8c-0.2-0.2-0.5-0.2-0.7,0l-0.8,0.8c-1.6,1.5-4.1,1.5-5.7,0l-0.8-0.8
		c-0.2-0.2-0.5-0.2-0.7,0l-0.8,0.8c-1.6,1.5-4.1,1.5-5.7,0l-0.8-0.8c-0.2-0.2-0.5-0.2-0.7,0l-0.8,0.8c-0.7,0.6-1.5,1-2.3,1.1
		c-0.2,0-0.3,0-0.5,0c0,0,0,0,0,0c-0.2,0-0.3,0-0.5,0c-0.9-0.1-1.7-0.4-2.3-1.1l-0.8-0.8c-0.2-0.2-0.5-0.2-0.7,0l-0.8,0.8
		c-0.7,0.6-1.5,1-2.3,1.1c-0.2,0-0.3,0-0.5,0c0,0,0,0,0,0c-0.2,0-0.3,0-0.5,0c-0.9-0.1-1.7-0.4-2.3-1.1l-0.8-0.8
		c-0.2-0.2-0.5-0.2-0.7,0l-0.8,0.8c-1.6,1.5-4.1,1.5-5.7,0l-0.8-0.8c-0.2-0.2-0.5-0.2-0.7,0l-0.8,0.8c-1.6,1.5-4.1,1.5-5.7,0
		l-0.8-0.8c-0.2-0.2-0.5-0.2-0.7,0l-0.8,0.8c-1.6,1.5-4.1,1.5-5.7,0L0,29.3v1.4c1.9,1.8,5.1,1.8,7,0l0.5-0.4L8,30.7
		c1.9,1.8,5.1,1.8,7,0l0.5-0.4l0.5,0.4c1.9,1.8,5.1,1.8,7,0l0.5-0.4l0.5,0.4c0.8,0.8,1.9,1.2,3,1.3c0.2,0,0.3,0,0.5,0
		c1.1,0,2.2-0.3,3.1-1c0.2-0.1,0.3-0.2,0.5-0.4l0.5-0.4l0.5,0.4c0.2,0.1,0.3,0.2,0.5,0.4c0.9,0.7,2,1,3.1,1c0.2,0,0.3,0,0.5,0
		c1.1-0.1,2.2-0.5,3-1.3l0.5-0.4l0.5,0.4c1.9,1.8,5.1,1.8,7,0l0.5-0.4l0.5,0.4c1.9,1.8,5.1,1.8,7,0l0.5-0.4l0.5,0.4
		c0.9,0.9,2.2,1.4,3.5,1.4c1.3,0,2.6-0.5,3.5-1.4v-1.4L62.3,29.9z"/>
</g>
</svg>
